<?xml version="1.0" encoding="utf-8"?>
<!-- Generator: Adobe Illustrator 26.0.3, SVG Export Plug-In . SVG Version: 6.00 Build 0)  -->
<svg version="1.1" id="Layer_1" xmlns="http://www.w3.org/2000/svg" xmlns:xlink="http://www.w3.org/1999/xlink" x="0px" y="0px"
	 viewBox="0 0 1024 954.9" style="enable-background:new 0 0 1024 954.9;" xml:space="preserve">
<style type="text/css">
	.st0{fill:#2BB673;}
	.st1{fill:#006838;}
	.st2{fill:#C7E6D8;}
	.st3{enable-background:new    ;}
	.st4{fill:#00320F;}
</style>
<g>
	<circle class="st0" cx="512" cy="606.1" r="348.8"/>
	<g>
		<polygon class="st1" points="340.4,455.5 518.3,558.2 518.3,455.5 779.3,606.1 518.3,756.8 518.3,654 340.4,756.8 		"/>
		<path class="st2" d="M526.8,470.2l235.5,135.9l-235.5,136V639.3L348.9,742.1V470.2l177.9,102.7V470.2 M331.9,440.8v29.4v271.9
			v29.5l25.5-14.7l152.4-88.1v73.3v29.4l25.5-14.7l235.5-136l25.5-14.7l-25.5-14.7L535.3,455.5l-25.5-14.7v29.4v73.3l-152.4-88
			L331.9,440.8L331.9,440.8z"/>
	</g>
</g>
<g>
	<path class="st0" d="M984.4,177.1H39.6C17.7,177.1,0,159.3,0,137.4V39.6C0,17.7,17.7,0,39.6,0h944.7c21.9,0,39.6,17.7,39.6,39.6
		v97.8C1024,159.3,1006.3,177.1,984.4,177.1z"/>
	<g class="st3">
		<g>
			<path class="st4" d="M68.5,127c-0.8,0-1.5-0.7-1.5-1.5V51.4H42.7c-0.8,0-1.5-0.7-1.5-1.5v-9.3c0-0.8,0.7-1.5,1.5-1.5h62.9
				c0.8,0,1.5,0.7,1.5,1.5v9.3c0,0.8-0.7,1.5-1.5,1.5H81.1v74.1c0,0.8-0.7,1.5-1.5,1.5H68.5z"/>
			<path class="st2" d="M105.6,40.6v9.3h-26v75.6H68.5V49.9H42.7v-9.3H105.6 M105.6,37.6H42.7c-1.7,0-3,1.3-3,3v9.3c0,1.7,1.3,3,3,3
				h22.8v72.6c0,1.7,1.3,3,3,3h11.1c1.7,0,3-1.3,3-3V52.9h23c1.7,0,3-1.3,3-3v-9.3C108.6,38.9,107.3,37.6,105.6,37.6L105.6,37.6z"/>
		</g>
		<g>
			<path class="st4" d="M113.6,127.2c-0.8,0-1.5-0.7-1.5-1.5V36.1c0-0.8,0.7-1.5,1.5-1.5h11.2c0.8,0,1.5,0.7,1.5,1.5v33.8
				c1.7-2,3.7-3.6,6-4.9c3.7-2.1,7.9-3.3,12-3.3c10.5,0,22.8,7.2,22.8,27.6v36.3c0,0.8-0.7,1.5-1.5,1.5h-11.1
				c-0.8,0-1.5-0.7-1.5-1.5v-35c0-7.6-2.2-16.6-12.6-16.6c-6.9,0-11.8,5.1-13.5,10.1c-0.5,1.3-0.7,2.7-0.7,4.8v36.8
				c0,0.8-0.7,1.5-1.5,1.5H113.6z"/>
			<path class="st2" d="M124.8,36.1v38h0.3c1.8-3.1,4.5-5.9,7.9-7.8c3.3-1.9,7.2-3.1,11.3-3.1c8.2,0,21.3,5,21.3,26.1v36.3h-11.1
				v-35c0-9.8-3.7-18.1-14.1-18.1c-7.2,0-12.8,5-14.9,11.1c-0.6,1.5-0.8,3.1-0.8,5.3v36.8h-11.1V36.1h0.1H124.8 M124.8,33.1h-11.1
				h-0.1c-1.7,0-3,1.3-3,3v89.6c0,1.7,1.3,3,3,3h11.1c1.7,0,3-1.3,3-3V88.9c0-1.9,0.2-3.1,0.6-4.2c0,0,0-0.1,0.1-0.1
				c1.6-4.5,5.9-9.1,12.1-9.1c7.4,0,11.1,5.1,11.1,15.1v35c0,1.7,1.3,3,3,3h11.1c1.7,0,3-1.3,3-3V89.3c0-21.5-13.1-29.1-24.3-29.1
				c-4.4,0-8.8,1.2-12.8,3.5c-1.3,0.7-2.6,1.6-3.7,2.6V36.1C127.8,34.4,126.5,33.1,124.8,33.1L124.8,33.1z"/>
		</g>
		<g>
			<path class="st4" d="M183.6,127c-0.8,0-1.5-0.7-1.5-1.5v-61c0-0.8,0.7-1.5,1.5-1.5h11.1c0.8,0,1.5,0.7,1.5,1.5v61
				c0,0.8-0.7,1.5-1.5,1.5H183.6z M188.9,55.7c-4.7,0-8.2-3.6-8.2-8.3c0-4.8,3.6-8.4,8.4-8.4c4.9,0,8.4,3.5,8.4,8.4
				c0.1,2.2-0.7,4.3-2.2,5.8C193.7,54.8,191.5,55.7,188.9,55.7z"/>
			<path class="st2" d="M189.1,40.5c4.2,0,6.9,3,6.9,6.9c0.1,3.8-2.6,6.8-7.1,6.8c-3.9,0-6.7-3-6.7-6.8
				C182.2,43.5,185.1,40.5,189.1,40.5 M194.7,64.5v61h-11.1v-61H194.7 M189.1,37.5c-5.6,0-9.9,4.3-9.9,9.9c0,5.5,4.3,9.8,9.7,9.8
				c3,0,5.6-1,7.5-2.9c1.8-1.8,2.7-4.2,2.6-6.9C199,41.6,194.8,37.5,189.1,37.5L189.1,37.5z M194.7,61.5h-11.1c-1.7,0-3,1.3-3,3v61
				c0,1.7,1.3,3,3,3h11.1c1.7,0,3-1.3,3-3v-61C197.7,62.8,196.4,61.5,194.7,61.5L194.7,61.5z"/>
		</g>
		<g>
			<path class="st4" d="M225.9,128.3c-6.8,0-13.2-1.6-17.9-4.4c-0.6-0.4-0.9-1.1-0.6-1.8l2.8-8.4c0.1-0.4,0.5-0.8,0.9-0.9
				c0.2-0.1,0.3-0.1,0.5-0.1c0.3,0,0.6,0.1,0.8,0.2c3.3,2.1,8.8,4.2,13.8,4.2c6.5,0,10.3-2.8,10.3-7.6c0-3.9-1.6-6.6-10.3-9.8
				c-14.1-5-17.1-12.9-17.1-18.7c0-11.4,9.3-19.4,22.5-19.4c8.1,0,13.7,2.8,15.8,4c0.6,0.4,0.9,1.1,0.7,1.8l-2.8,8.1
				c-0.1,0.4-0.5,0.8-0.9,0.9c-0.2,0.1-0.3,0.1-0.5,0.1c-0.3,0-0.6-0.1-0.8-0.2c-2-1.2-6.1-3.3-11.7-3.3c-5.2,0-8.7,2.7-8.7,6.8
				c0,3.8,2.4,5.8,10.6,8.9c11.7,4.4,17,10.5,17,19.8C250.2,120.5,240.7,128.3,225.9,128.3z"/>
			<path class="st2" d="M231.6,63.1c6.2,0,11.6,1.8,15,3.8l-2.8,8.1c-2.4-1.5-6.8-3.5-12.5-3.5c-6.5,0-10.2,3.8-10.2,8.3
				c0,5,3.7,7.3,11.6,10.3c10.6,4,16,9.3,16,18.4c0,10.7-8.3,18.3-22.8,18.3c-6.7,0-12.8-1.6-17.1-4.2l2.8-8.4
				c3.3,2.1,9.1,4.4,14.6,4.4c8.1,0,11.8-4,11.8-9.1c0-5.3-3.1-8.2-11.3-11.2c-11-3.9-16.1-10-16.1-17.3
				C210.6,71.2,218.5,63.1,231.6,63.1 M231.6,60.1c-13.9,0-24,8.8-24,20.9c0,6.3,3.1,14.8,18.1,20.1c8.6,3.2,9.3,5.6,9.3,8.4
				c0,5.3-5.5,6.1-8.8,6.1c-4.7,0-9.9-2-13-3.9c-0.5-0.3-1-0.5-1.6-0.5c-0.3,0-0.7,0.1-1,0.2c-0.9,0.3-1.6,1-1.8,1.9l-2.8,8.4
				c-0.4,1.3,0.1,2.8,1.3,3.5c4.9,3,11.6,4.6,18.7,4.6c15.7,0,25.8-8.4,25.8-21.3c0-12.8-9.6-18.1-17.9-21.2
				c-8.3-3.1-9.7-4.8-9.7-7.5c0-3.2,2.9-5.3,7.2-5.3c5.3,0,9.1,1.9,10.9,3c0.5,0.3,1,0.5,1.6,0.5c0.3,0,0.7-0.1,1-0.2
				c0.9-0.3,1.5-1,1.8-1.8l2.8-8.1c0.5-1.3-0.1-2.8-1.3-3.6C246,63,240,60.1,231.6,60.1L231.6,60.1z"/>
		</g>
		<g>
			<path class="st4" d="M326.3,127c-0.8,0-1.5-0.7-1.5-1.5v-51h-21.4v51c0,0.8-0.7,1.5-1.5,1.5h-11.1c-0.8,0-1.5-0.7-1.5-1.5v-51
				h-7.1c-0.8,0-1.5-0.7-1.5-1.5v-8.4c0-0.8,0.7-1.5,1.5-1.5h7.1v-1.8c0-17.6,10.5-28.1,28.1-28.1c5.9,0,12.8,1.8,16.4,4.3
				c0.6,0.4,0.8,1.1,0.6,1.8l-3.1,8.4c-0.2,0.4-0.5,0.8-1,0.9c-0.1,0-0.3,0.1-0.4,0.1c-0.3,0-0.6-0.1-0.9-0.3
				c-2-1.5-6.4-3.2-11.9-3.2c-9.2,0-13.6,5.4-13.6,16.4V63h33.9c0.8,0,1.5,0.7,1.5,1.5v61c0,0.8-0.7,1.5-1.5,1.5H326.3z"/>
			<path class="st2" d="M317.4,34.7c5.7,0,12.3,1.8,15.5,4l-3.1,8.4c-2.6-1.9-7.4-3.5-12.8-3.5c-11.7,0-15.1,8.2-15.1,17.9v3h35.4
				v61h-11V73h-24.4v52.5h-11.1V73h-8.6v-8.4h8.6v-3.3C290.8,45.2,300.2,34.7,317.4,34.7 M317.4,31.7c-18.3,0-29.6,11.3-29.6,29.6
				v0.3h-5.6c-1.7,0-3,1.3-3,3V73c0,1.7,1.3,3,3,3h5.6v49.5c0,1.7,1.3,3,3,3h11.1c1.7,0,3-1.3,3-3V76h18.4v49.5c0,1.7,1.3,3,3,3h11
				c1.7,0,3-1.3,3-3v-61c0-1.7-1.3-3-3-3h-32.4c0-13.4,6.9-14.9,12.1-14.9c4.9,0,9,1.5,11,2.9c0.5,0.4,1.1,0.6,1.8,0.6
				c0.3,0,0.6,0,0.9-0.1c0.9-0.3,1.6-1,1.9-1.8l3.1-8.4c0.5-1.3,0-2.7-1.1-3.5C330.8,33.6,323.5,31.7,317.4,31.7L317.4,31.7z"/>
		</g>
		<g>
			<path class="st4" d="M355.6,127c-0.8,0-1.5-0.7-1.5-1.5V36.1c0-0.8,0.7-1.5,1.5-1.5h11.1c0.8,0,1.5,0.7,1.5,1.5v89.4
				c0,0.8-0.7,1.5-1.5,1.5H355.6z"/>
			<path class="st2" d="M366.7,36.1v89.4h-11.1V36.1H366.7 M366.7,33.1h-11.1c-1.7,0-3,1.3-3,3v89.4c0,1.7,1.3,3,3,3h11.1
				c1.7,0,3-1.3,3-3V36.1C369.7,34.4,368.4,33.1,366.7,33.1L366.7,33.1z"/>
		</g>
		<g>
			<path class="st4" d="M410.9,128.3c-19.1,0-31.5-12.6-31.5-32.2c0-20.3,12.4-34.4,30.1-34.4c19.7,0,26.7,16.3,26.7,30.2
				c0,1.7-0.2,3.1-0.3,4.3c0,0.4-0.1,0.7-0.1,1.1c-0.1,0.8-0.7,1.4-1.5,1.4h-41.2c1.1,16.3,13.8,18.1,19.3,18.1
				c7.9,0,12.5-1.4,16.3-3c0.2-0.1,0.4-0.1,0.6-0.1c0.2,0,0.5,0.1,0.7,0.2c0.4,0.2,0.7,0.6,0.8,1l1.9,7.9c0.2,0.7-0.2,1.4-0.8,1.7
				C427.9,126.2,421.1,128.3,410.9,128.3z M422.5,87.6c-0.2-2.8-0.9-8-4.4-11.4c-2.3-2.4-5.5-3.6-9.5-3.6c-9.8,0-14,8.8-15.2,15
				H422.5z"/>
			<path class="st2" d="M409.5,63.2c19.9,0,25.2,17.5,25.2,28.7c0,2.3-0.3,4-0.4,5.2h-42.8c0,0,0-0.1,0-0.1v0.1h0
				c0.3,14.9,9.8,21.1,20.9,21.1c7.9,0,12.7-1.4,16.9-3.1l1.9,7.9c-3.9,1.8-10.6,3.8-20.3,3.8c-18.8,0-30-12.3-30-30.7
				C380.9,77.7,391.7,63.2,409.5,63.2 M391.6,89.1H424c0.1-7.1-2.9-18-15.4-18C397.4,71.1,392.5,81.4,391.6,89.1 M409.5,60.2
				c-18.6,0-31.6,14.8-31.6,35.9c0,20.5,13,33.7,33,33.7c10.5,0,17.5-2.2,21.6-4.1c1.3-0.6,2-2,1.7-3.4l-1.9-7.9
				c-0.2-0.8-0.8-1.6-1.5-2c-0.4-0.2-0.9-0.3-1.4-0.3c-0.4,0-0.8,0.1-1.1,0.2c-3.7,1.5-8.2,2.9-15.8,2.9c-4.9,0-15.9-1.5-17.7-15.1
				h39.6c1.6,0,2.9-1.2,3-2.8c0-0.3,0.1-0.6,0.1-1c0.1-1.1,0.3-2.6,0.3-4.4c0-3.5-0.5-12.5-5.6-20.2
				C427.1,64.2,419.3,60.2,409.5,60.2L409.5,60.2z M395.3,86.1c1.2-4.6,4.6-12,13.3-12c3.6,0,6.4,1,8.4,3.1c2.5,2.6,3.5,6.2,3.8,8.9
				H395.3L395.3,86.1z"/>
		</g>
		<g>
			<path class="st4" d="M475.1,127c-0.8,0-1.5-0.7-1.5-1.5v-61c0-0.8,0.7-1.5,1.5-1.5h11.1c0.8,0,1.5,0.7,1.5,1.5v61
				c0,0.8-0.7,1.5-1.5,1.5H475.1z M480.3,55.7c-4.7,0-8.2-3.6-8.2-8.3c0-4.8,3.6-8.4,8.4-8.4c4.9,0,8.4,3.5,8.4,8.4
				c0.1,2.2-0.7,4.3-2.2,5.8C485.1,54.8,482.9,55.7,480.3,55.7z"/>
			<path class="st2" d="M480.5,40.5c4.3,0,6.9,3,6.9,6.9c0.1,3.8-2.6,6.8-7.1,6.8c-3.9,0-6.7-3-6.7-6.8
				C473.6,43.5,476.5,40.5,480.5,40.5 M486.2,64.5v61h-11.1v-61H486.2 M480.5,37.5c-5.6,0-9.9,4.3-9.9,9.9c0,5.5,4.3,9.8,9.7,9.8
				c3,0,5.6-1,7.5-2.9c1.8-1.8,2.7-4.2,2.6-6.9C490.4,41.6,486.2,37.5,480.5,37.5L480.5,37.5z M486.2,61.5h-11.1c-1.7,0-3,1.3-3,3
				v61c0,1.7,1.3,3,3,3h11.1c1.7,0,3-1.3,3-3v-61C489.2,62.8,487.9,61.5,486.2,61.5L486.2,61.5z"/>
		</g>
		<g>
			<path class="st4" d="M517.4,128.3c-6.8,0-13.2-1.6-17.9-4.4c-0.6-0.4-0.9-1.1-0.6-1.8l2.8-8.4c0.1-0.4,0.5-0.8,0.9-0.9
				c0.2-0.1,0.3-0.1,0.5-0.1c0.3,0,0.6,0.1,0.8,0.2c3.3,2.1,8.8,4.2,13.8,4.2c6.5,0,10.3-2.8,10.3-7.6c0-3.9-1.6-6.6-10.3-9.8
				c-14.1-5-17.1-12.9-17.1-18.7c0-11.4,9.3-19.4,22.5-19.4c8.1,0,13.7,2.8,15.8,4c0.6,0.4,0.9,1.1,0.7,1.8l-2.8,8.1
				c-0.1,0.4-0.5,0.8-0.9,0.9c-0.2,0.1-0.3,0.1-0.5,0.1c-0.3,0-0.6-0.1-0.8-0.2c-2-1.2-6.1-3.3-11.7-3.3c-5.2,0-8.7,2.7-8.7,6.8
				c0,3.8,2.4,5.8,10.6,8.9c11.7,4.4,17,10.5,17,19.8C541.7,120.5,532.2,128.3,517.4,128.3z"/>
			<path class="st2" d="M523.1,63.1c6.2,0,11.6,1.8,15,3.8l-2.8,8.1c-2.4-1.5-6.8-3.5-12.5-3.5c-6.5,0-10.2,3.8-10.2,8.3
				c0,5,3.7,7.3,11.6,10.3c10.6,4,16,9.3,16,18.4c0,10.7-8.3,18.3-22.8,18.3c-6.7,0-12.8-1.6-17.1-4.2l2.8-8.4
				c3.3,2.1,9.1,4.4,14.6,4.4c8.1,0,11.8-4,11.8-9.1c0-5.3-3.1-8.2-11.3-11.2c-11-3.9-16.1-10-16.1-17.3
				C502.1,71.2,510,63.1,523.1,63.1 M523.1,60.1c-13.9,0-24,8.8-24,20.9c0,6.3,3.1,14.8,18.1,20.1c8.6,3.2,9.3,5.6,9.3,8.4
				c0,5.3-5.5,6.1-8.8,6.1c-4.7,0-9.9-2-13-3.9c-0.5-0.3-1-0.5-1.6-0.5c-0.3,0-0.7,0.1-1,0.2c-0.9,0.3-1.6,1-1.8,1.9l-2.8,8.4
				c-0.4,1.3,0.1,2.8,1.3,3.5c4.9,3,11.6,4.6,18.7,4.6c15.7,0,25.8-8.4,25.8-21.3c0-12.8-9.6-18.1-17.9-21.2
				c-8.3-3.1-9.7-4.8-9.7-7.5c0-3.2,2.9-5.3,7.2-5.3c5.3,0,9.1,1.9,10.9,3c0.5,0.3,1,0.5,1.6,0.5c0.3,0,0.7-0.1,1-0.2
				c0.9-0.3,1.5-1,1.8-1.8l2.8-8.1c0.5-1.3-0.1-2.8-1.3-3.6C537.5,63,531.5,60.1,523.1,60.1L523.1,60.1z"/>
		</g>
		<g>
			<path class="st4" d="M593.9,128.3c-6.8,0-13.2-1.6-17.9-4.4c-0.6-0.4-0.9-1.1-0.6-1.8l2.8-8.4c0.1-0.4,0.5-0.8,0.9-0.9
				c0.2-0.1,0.3-0.1,0.5-0.1c0.3,0,0.6,0.1,0.8,0.2c3.3,2.1,8.8,4.2,13.8,4.2c6.5,0,10.3-2.8,10.3-7.6c0-3.9-1.6-6.6-10.3-9.8
				c-14.1-5-17.1-12.9-17.1-18.7c0-11.4,9.3-19.4,22.5-19.4c8.1,0,13.7,2.8,15.8,4c0.6,0.4,0.9,1.1,0.7,1.8l-2.8,8.1
				c-0.1,0.4-0.5,0.8-0.9,0.9c-0.2,0.1-0.3,0.1-0.5,0.1c-0.3,0-0.6-0.1-0.8-0.2c-2-1.2-6.1-3.3-11.7-3.3c-5.2,0-8.7,2.7-8.7,6.8
				c0,3.8,2.4,5.8,10.6,8.9c11.7,4.4,17,10.5,17,19.8C618.2,120.5,608.7,128.3,593.9,128.3z"/>
			<path class="st2" d="M599.6,63.1c6.2,0,11.6,1.8,15,3.8l-2.8,8.1c-2.4-1.5-6.8-3.5-12.5-3.5c-6.6,0-10.2,3.8-10.2,8.3
				c0,5,3.7,7.3,11.6,10.3c10.6,4,16,9.3,16,18.4c0,10.7-8.3,18.3-22.8,18.3c-6.7,0-12.8-1.6-17.1-4.2l2.8-8.4
				c3.3,2.1,9.1,4.4,14.6,4.4c8.1,0,11.8-4,11.8-9.1c0-5.3-3.1-8.2-11.3-11.2c-11-3.9-16.1-10-16.1-17.3
				C578.6,71.2,586.5,63.1,599.6,63.1 M599.6,60.1c-13.9,0-24,8.8-24,20.9c0,6.3,3.1,14.8,18.1,20.1c8.6,3.2,9.3,5.6,9.3,8.4
				c0,5.3-5.5,6.1-8.8,6.1c-4.7,0-9.9-2-13-3.9c-0.5-0.3-1-0.5-1.6-0.5c-0.3,0-0.7,0.1-1,0.2c-0.9,0.3-1.6,1-1.8,1.9l-2.8,8.4
				c-0.4,1.3,0.1,2.8,1.3,3.5c4.9,3,11.6,4.6,18.7,4.6c15.7,0,25.8-8.4,25.8-21.3c0-12.8-9.6-18.1-17.9-21.2
				c-8.3-3.1-9.7-4.8-9.7-7.5c0-3.2,2.8-5.3,7.2-5.3c5.3,0,9.1,1.9,10.9,3c0.5,0.3,1,0.5,1.6,0.5c0.3,0,0.7-0.1,1-0.2
				c0.9-0.3,1.5-1,1.8-1.8l2.8-8.1c0.5-1.3-0.1-2.8-1.3-3.6C614,63,608,60.1,599.6,60.1L599.6,60.1z"/>
		</g>
		<g>
			<path class="st4" d="M668.7,127.1c-0.5,0-0.9-0.2-1.2-0.6l-19.9-27.7l-4.1,4.5v22.3c0,0.8-0.7,1.5-1.5,1.5h-11
				c-0.8,0-1.5-0.7-1.5-1.5V36.1c0-0.8,0.7-1.5,1.5-1.5h11c0.8,0,1.5,0.7,1.5,1.5v52.3c0.9-1.2,1.9-2.3,2.7-3.4l0.3-0.4l17.9-21
				c0.3-0.3,0.7-0.5,1.1-0.5H679c0.6,0,1.1,0.4,1.4,0.9s0.1,1.2-0.3,1.6l-22.7,24.2l26,34.9c0.3,0.5,0.4,1.1,0.1,1.6
				c-0.3,0.5-0.8,0.8-1.3,0.8H668.7z"/>
			<path class="st2" d="M642,36.1v56.4h0h0h0.3c1.5-2.1,3.7-4.8,5.4-6.9l17.9-21H679l-23.6,25.1l26.8,35.9h-13.5l-21-29.2l-5.7,6.3
				v22.9h-11V36.1H642 M679,64.6L679,64.6 M642,33.1h-11c-1.7,0-3,1.3-3,3v89.5c0,1.7,1.3,3,3,3h11c1.7,0,3-1.3,3-3v-21.7l2.4-2.7
				l18.8,26.2c0.6,0.8,1.5,1.2,2.4,1.2h13.5c1.1,0,2.2-0.6,2.7-1.7c0.5-1,0.4-2.2-0.3-3.1l-25.3-33.9l21.8-23.2
				c0.5-0.5,0.9-1.3,0.9-2.1c0-1.7-1.3-3-3-3h0h-13.4c-0.9,0-1.7,0.4-2.3,1.1l-17.9,21c0,0,0,0,0,0.1l-0.3,0.4c0,0,0,0,0,0.1V36.1
				C645,34.4,643.7,33.1,642,33.1L642,33.1z"/>
		</g>
		<g>
			<path class="st4" d="M692.3,127c-0.8,0-1.5-0.7-1.5-1.5v-61c0-0.8,0.7-1.5,1.5-1.5h11.1c0.8,0,1.5,0.7,1.5,1.5v61
				c0,0.8-0.7,1.5-1.5,1.5H692.3z M697.5,55.7c-4.7,0-8.2-3.6-8.2-8.3c0-4.8,3.6-8.4,8.4-8.4c4.9,0,8.4,3.5,8.4,8.4
				c0.1,2.2-0.7,4.3-2.2,5.8C702.3,54.8,700.1,55.7,697.5,55.7z"/>
			<path class="st2" d="M697.7,40.5c4.2,0,6.9,3,6.9,6.9c0.1,3.8-2.6,6.8-7.1,6.8c-3.9,0-6.7-3-6.7-6.8
				C690.8,43.5,693.7,40.5,697.7,40.5 M703.4,64.5v61h-11.1v-61H703.4 M697.7,37.5c-5.6,0-9.9,4.3-9.9,9.9c0,5.5,4.3,9.8,9.7,9.8
				c3,0,5.6-1,7.5-2.9c1.8-1.8,2.7-4.2,2.6-6.9C707.6,41.6,703.4,37.5,697.7,37.5L697.7,37.5z M703.4,61.5h-11.1c-1.7,0-3,1.3-3,3
				v61c0,1.7,1.3,3,3,3h11.1c1.7,0,3-1.3,3-3v-61C706.4,62.8,705.1,61.5,703.4,61.5L703.4,61.5z"/>
		</g>
		<g>
			<path class="st4" d="M721.7,152c-0.8,0-1.5-0.7-1.5-1.5V84.4c0-6.3-0.2-11.8-0.4-16.6l-0.1-3.3c0-0.4,0.1-0.8,0.4-1.1
				c0.3-0.3,0.7-0.5,1.1-0.5h10c0.8,0,1.5,0.6,1.5,1.4L733,71c5-6.1,12.1-9.3,20.7-9.3c15.8,0,27.3,13.7,27.3,32.5
				c0,23.6-15.1,34.3-29.2,34.3c-7.1,0-13.4-2.6-17.6-7.1v29.1c0,0.8-0.7,1.5-1.5,1.5H721.7z M734.7,104.9
				c1.9,7.1,7.9,11.8,15.1,11.8c10.5,0,17-8.5,17-22.1c0-10.6-5.1-21.2-16.6-21.2c-7.1,0-13.4,5.2-15.3,12.6
				c-0.4,1.3-0.8,2.8-0.8,4.1v10.1c0.1,0.2,0.1,0.4,0.1,0.5c0,1.1,0.2,2.3,0.3,3.4C734.6,104.4,734.6,104.6,734.7,104.9z"/>
			<path class="st2" d="M753.7,63.2c14.7,0,25.8,12.5,25.8,31c0,21.9-13.4,32.8-27.7,32.8c-8.1,0-15.1-3.5-18.8-9.6h-0.3v33.1h-11
				V84.4c0-7.8-0.3-14.1-0.5-19.9h10l0.5,10.5h0.3C736.5,67.6,743.7,63.2,753.7,63.2 M732.6,100.7L732.6,100.7
				c0.1,1.6,0.4,3.1,0.6,4.5c2,7.7,8.7,13,16.6,13c11.7,0,18.5-9.6,18.5-23.6c0-12.2-6.4-22.7-18.1-22.7c-7.6,0-14.6,5.4-16.8,13.7
				c-0.4,1.4-0.8,3-0.8,4.5V100.7 M753.7,60.2c-7.8,0-14.3,2.4-19.4,7.2l-0.1-3c-0.1-1.6-1.4-2.9-3-2.9h-10c-0.8,0-1.6,0.3-2.2,0.9
				c-0.6,0.6-0.9,1.4-0.8,2.2c0,1.1,0.1,2.2,0.1,3.3c0.2,4.8,0.4,10.2,0.4,16.5v66.1c0,1.7,1.3,3,3,3h11c1.7,0,3-1.3,3-3v-25.7
				c4.3,3.3,9.9,5.2,16.1,5.2c8.3,0,15.9-3.2,21.4-9.1c6.1-6.5,9.3-15.7,9.3-26.7C782.5,74.5,770.4,60.2,753.7,60.2L753.7,60.2z
				 M735.6,99.9v-9.8c0-1.1,0.3-2.5,0.7-3.7c0,0,0,0,0-0.1c1.8-6.8,7.5-11.5,13.9-11.5c10.4,0,15.1,9.9,15.1,19.7
				c0,10-4.1,20.6-15.5,20.6c-6.5,0-11.9-4.3-13.7-10.6c0-0.3-0.1-0.5-0.1-0.8c-0.2-1.1-0.3-2.1-0.3-3.1
				C735.7,100.4,735.7,100.2,735.6,99.9L735.6,99.9z"/>
		</g>
		<g>
			<path class="st4" d="M793.4,152c-0.8,0-1.5-0.7-1.5-1.5V84.4c0-6.3-0.2-11.7-0.4-16.5l-0.1-3.4c0-0.4,0.1-0.8,0.4-1.1
				c0.3-0.3,0.7-0.5,1.1-0.5h10c0.8,0,1.5,0.6,1.5,1.4l0.3,6.5c5-6.1,12.1-9.3,20.7-9.3c15.8,0,27.3,13.7,27.3,32.5
				c0,23.6-15.1,34.3-29.2,34.3c-7.1,0-13.4-2.6-17.6-7.1v29.1c0,0.8-0.7,1.5-1.5,1.5H793.4z M806.4,104.9
				c1.9,7.1,7.9,11.8,15.1,11.8c10.5,0,17-8.5,17-22.1c0-10.6-5.1-21.2-16.6-21.2c-7.1,0-13.4,5.2-15.4,12.6
				c-0.4,1.3-0.8,2.8-0.8,4.1v10.1c0.1,0.2,0.1,0.4,0.1,0.5c0,1.1,0.2,2.3,0.3,3.4C806.3,104.4,806.3,104.6,806.4,104.9z"/>
			<path class="st2" d="M825.4,63.2c14.7,0,25.8,12.5,25.8,31c0,21.9-13.4,32.8-27.7,32.8c-8.1,0-15.1-3.5-18.8-9.6h-0.3v33.1h-11
				V84.4c0-7.8-0.3-14.1-0.5-19.9h10l0.5,10.5h0.3C808.2,67.6,815.4,63.2,825.4,63.2 M804.3,100.7L804.3,100.7
				c0.1,1.6,0.4,3.1,0.6,4.5c2,7.7,8.7,13,16.6,13c11.7,0,18.5-9.6,18.5-23.6c0-12.2-6.4-22.7-18.1-22.7c-7.6,0-14.6,5.4-16.8,13.7
				c-0.4,1.4-0.8,3-0.8,4.5V100.7 M825.4,60.2c-7.8,0-14.3,2.4-19.4,7.2l-0.1-3c-0.1-1.6-1.4-2.9-3-2.9h-10c-0.8,0-1.6,0.3-2.2,0.9
				c-0.6,0.6-0.9,1.4-0.8,2.2c0,1.1,0.1,2.2,0.1,3.3c0.2,4.8,0.4,10.2,0.4,16.5v66.1c0,1.7,1.3,3,3,3h11c1.7,0,3-1.3,3-3v-25.7
				c4.3,3.3,9.9,5.2,16.1,5.2c8.3,0,15.9-3.2,21.4-9.1c6.1-6.5,9.3-15.7,9.3-26.7C854.2,74.5,842.1,60.2,825.4,60.2L825.4,60.2z
				 M807.3,99.9v-9.8c0-1.1,0.3-2.5,0.7-3.7c0,0,0,0,0-0.1c1.8-6.8,7.5-11.5,13.9-11.5c10.4,0,15.1,9.9,15.1,19.7
				c0,10-4.1,20.6-15.5,20.6c-6.5,0-11.9-4.3-13.7-10.6c0-0.3-0.1-0.5-0.1-0.8c-0.2-1.1-0.3-2.1-0.3-3.1
				C807.4,100.4,807.4,100.2,807.3,99.9L807.3,99.9z"/>
		</g>
		<g>
			<path class="st4" d="M890.6,128.3c-19.1,0-31.5-12.6-31.5-32.2c0-20.3,12.4-34.4,30.1-34.4c19.7,0,26.7,16.3,26.7,30.2
				c0,1.7-0.2,3.1-0.3,4.3c0,0.4-0.1,0.8-0.1,1.1c-0.1,0.8-0.7,1.4-1.5,1.4h-41.2c1.1,16.3,13.8,18.1,19.3,18.1
				c7.9,0,12.5-1.4,16.3-3c0.2-0.1,0.4-0.1,0.6-0.1c0.2,0,0.5,0.1,0.7,0.2c0.4,0.2,0.7,0.6,0.8,1l1.9,7.9c0.2,0.7-0.2,1.4-0.8,1.7
				C907.6,126.2,900.8,128.3,890.6,128.3z M902.2,87.6c-0.2-2.8-0.9-8-4.4-11.4c-2.3-2.4-5.5-3.6-9.5-3.6c-9.8,0-14,8.8-15.2,15
				H902.2z"/>
			<path class="st2" d="M889.2,63.2c19.9,0,25.2,17.5,25.2,28.7c0,2.3-0.3,4-0.4,5.2h-42.8c0,0,0-0.1,0-0.1v0.1h0
				c0.3,14.9,9.8,21.1,20.9,21.1c7.9,0,12.7-1.4,16.9-3.1l1.9,7.9c-3.9,1.8-10.6,3.8-20.3,3.8c-18.8,0-30-12.3-30-30.7
				C860.6,77.7,871.4,63.2,889.2,63.2 M871.3,89.1h32.4c0.1-7.1-2.9-18-15.4-18C877.1,71.1,872.2,81.4,871.3,89.1 M889.2,60.2
				c-18.6,0-31.6,14.8-31.6,35.9c0,20.5,13,33.7,33,33.7c10.5,0,17.5-2.2,21.6-4.1c1.3-0.6,2-2,1.7-3.4l-1.9-7.9
				c-0.2-0.8-0.8-1.6-1.5-2c-0.4-0.2-0.9-0.3-1.4-0.3c-0.4,0-0.8,0.1-1.1,0.2c-3.7,1.5-8.2,2.9-15.8,2.9c-4.9,0-15.9-1.5-17.7-15.1
				H914c1.6,0,2.9-1.2,3-2.8c0-0.3,0.1-0.6,0.1-1c0.1-1.1,0.3-2.6,0.3-4.4c0-3.5-0.5-12.5-5.6-20.2C906.8,64.2,899,60.2,889.2,60.2
				L889.2,60.2z M875,86.1c1.2-4.6,4.6-12,13.3-12c3.6,0,6.4,1,8.4,3.1c2.5,2.6,3.5,6.2,3.8,8.9H875L875,86.1z"/>
		</g>
		<g>
			<path class="st4" d="M949.7,128.4c-16,0-27.6-13.7-27.6-32.5c-0.1-10.7,3.4-20,9.6-26.3c5.1-5.2,11.9-8,19.2-8
				c7,0,13.2,2.4,17.2,6.7V36.1c0-0.8,0.7-1.5,1.5-1.5h11.2c0.8,0,1.5,0.7,1.5,1.5v73.7c0,7,0.2,12.2,0.5,15.6
				c0,0.4-0.1,0.8-0.4,1.2c-0.3,0.3-0.7,0.5-1.1,0.5h-10c-0.8,0-1.5-0.6-1.5-1.4l-0.3-6.3C965,125.1,957.9,128.4,949.7,128.4z
				 M953.2,73.3c-10.2,0-16.8,8.7-16.8,22.1c0,9.7,4.3,21,16.5,21c7.1,0,13-4.8,14.7-12.1c0.3-1.2,0.5-2.5,0.5-4.4V89.3
				c0-0.2,0-0.4,0.1-0.5c0-1.1-0.1-2.6-0.4-3.8C966.2,78,960.3,73.3,953.2,73.3z"/>
			<path class="st2" d="M980.8,36.1v73.7c0,5.4,0.1,11.6,0.5,15.7h-10l-0.5-10.6h-0.3c-3.4,6.8-10.8,12-20.8,12
				c-14.7,0-26.1-12.5-26.1-31c-0.1-20.3,12.5-32.8,27.3-32.8c9.3,0,15.6,4.4,18.4,9.3h0.3V36.1H980.8 M952.9,117.9
				c7.4,0,14.2-4.9,16.2-13.2c0.4-1.5,0.5-3,0.5-4.8V89.3h0.1c0-1.4-0.1-3.3-0.5-4.7c-1.6-7.1-7.7-12.8-16-12.8
				c-11.5,0-18.3,10.1-18.3,23.6C934.9,107.7,940.9,117.9,952.9,117.9 M980.8,33.1h-11.2c-1.7,0-3,1.3-3,3v28.8
				c-4.1-3.1-9.6-4.8-15.7-4.8c-7.6,0-14.8,3-20.2,8.5c-6.6,6.6-10.1,16.3-10.1,27.4c0,19.7,12.2,34,29.1,34c7.2,0,13.7-2.6,18.5-7
				l0.1,2.7c0.1,1.6,1.4,2.9,3,2.9h10c0.8,0,1.7-0.4,2.2-1s0.8-1.5,0.8-2.3c-0.3-3.3-0.5-8.5-0.5-15.4V36.1
				C983.8,34.4,982.5,33.1,980.8,33.1L980.8,33.1z M952.9,114.9c-11.1,0-15-10.1-15-19.5c0-12.5,6-20.6,15.3-20.6
				c7.4,0,11.9,5.3,13.1,10.5c0,0.1,0,0.1,0,0.2c0.2,0.7,0.3,1.8,0.4,3.1c-0.1,0.2-0.1,0.5-0.1,0.7v10.6c0,1.8-0.1,3-0.4,4
				c0,0,0,0,0,0.1C964.6,110.5,959.3,114.9,952.9,114.9L952.9,114.9z"/>
		</g>
	</g>
</g>
</svg>
