<svg xmlns="http://www.w3.org/2000/svg" xml:space="preserve" viewBox="0 0 16 16"><path d="M10.61 5.03a.7.7 0 0 0-.254-.057H5.642a.67.67 0 1 0 0 1.338l3.107-.004L5.17 9.885a.667.667 0 1 0 .942.942L9.691 7.25l-.004 3.107a.668.668 0 0 0 .926.62.67.67 0 0 0 .412-.62V5.642a.7.7 0 0 0-.056-.255.67.67 0 0 0-.358-.358"/><path d="M11.333 1.333H4.667a3.333 3.333 0 0 0-3.334 3.334v6.666a3.333 3.333 0 0 0 3.334 3.334h6.666a3.333 3.333 0 0 0 3.334-3.334V4.667a3.333 3.333 0 0 0-3.334-3.334m2 10a2 2 0 0 1-2 2H4.667a2 2 0 0 1-2-2V4.667a2 2 0 0 1 2-2h6.666a2 2 0 0 1 2 2z"/></svg>