<?xml version="1.0" encoding="utf-8"?>
<!-- Generator: Adobe Illustrator 26.0.3, SVG Export Plug-In . SVG Version: 6.00 Build 0)  -->
<svg version="1.1" id="Layer_1" xmlns="http://www.w3.org/2000/svg" xmlns:xlink="http://www.w3.org/1999/xlink" x="0px" y="0px"
	 viewBox="0 0 32 32" style="enable-background:new 0 0 32 32;" xml:space="preserve">
<style type="text/css">
	.st0{fill:#3D50F5;}
	.st1{fill:#FFFFFF;}
</style>
<g>
	<path class="st0" d="M3.9956055,31C2.34375,31,1,29.65625,1,28.0048828V3.9956055C1,2.34375,2.34375,1,3.9956055,1h15.3139648
		c1.0380859,0,2.0136719,0.4042969,2.7470703,1.1376953l7.8056641,7.8051758C30.5957031,10.6767578,31,11.6523438,31,12.6899414
		v15.3149414C31,29.65625,29.65625,31,28.0048828,31H3.9956055z"/>
	<path class="st1" d="M19.3099098,2c0.7705994,0,1.4950809,0.3000901,2.0399895,0.84499l7.8051109,7.80511
		C29.6999092,11.1950102,30,11.9194899,30,12.6900902v15.3144989C30,29.1048603,29.1048603,30,28.0045891,30H3.99541
		C2.8951399,30,2,29.1048603,2,28.0045891V3.99541C2,2.8951399,2.8951399,2,3.99541,2H19.3099098 M19.3099098,0H3.99541
		C1.78881,0,0,1.78881,0,3.99541v24.0091782C0,30.2111893,1.78881,32,3.99541,32h24.0091782
		C30.2111893,32,32,30.2111893,32,28.0045891V12.6900902c0-1.2955799-0.5146694-2.5380898-1.4307804-3.4541998l-7.805109-7.8051105
		C21.8479996,0.51467,20.6054897,0,19.3099098,0L19.3099098,0z"/>
</g>
<g>
	<path class="st1" d="M25.0000019,17H6.999999C6.4477148,17,6,16.5522861,6,16.0000019V15.999999
		C6,15.4477148,6.4477148,15,6.999999,15h18.0000038C25.5522861,15,26,15.4477148,26,15.999999v0.0000029
		C26,16.5522861,25.5522861,17,25.0000019,17z"/>
</g>
<g>
	<path class="st1" d="M25.0000019,25H6.999999C6.4477148,25,6,24.5522861,6,24.0000019v-0.0000038
		C6,23.4477139,6.4477148,23,6.999999,23h18.0000038C25.5522861,23,26,23.4477139,26,23.9999981v0.0000038
		C26,24.5522861,25.5522861,25,25.0000019,25z"/>
</g>
<g>
	<path class="st1" d="M19.0000019,9H6.999999C6.4477148,9,6,8.5522852,6,8.000001V7.999999C6,7.4477148,6.4477148,7,6.999999,7
		h12.0000029C19.5522861,7,20,7.4477148,20,7.999999V8.000001C20,8.5522852,19.5522861,9,19.0000019,9z"/>
</g>
</svg>
