<?xml version="1.0" encoding="utf-8"?>
<!-- Generator: Adobe Illustrator 26.0.3, SVG Export Plug-In . SVG Version: 6.00 Build 0)  -->
<svg version="1.1" id="Layer_1" xmlns="http://www.w3.org/2000/svg" xmlns:xlink="http://www.w3.org/1999/xlink" x="0px" y="0px"
	 viewBox="0 0 128 128" style="enable-background:new 0 0 128 128;" xml:space="preserve">
<style type="text/css">
	.st0{fill:none;stroke:#007F00;stroke-width:2;stroke-linecap:round;stroke-miterlimit:10;}
	.st1{fill:none;stroke:#FF0000;stroke-width:2;stroke-linecap:round;stroke-miterlimit:10;}
	.st2{fill:none;stroke:#0000FF;stroke-width:2;stroke-linecap:round;stroke-linejoin:round;stroke-miterlimit:10;}
	.st3{fill:none;stroke:#FF00FF;stroke-width:2;stroke-linecap:round;stroke-linejoin:round;stroke-miterlimit:10;}
	.st4{fill:none;stroke:#F7931E;stroke-width:2;stroke-linecap:round;stroke-linejoin:round;stroke-miterlimit:10;}
	.st5{fill:none;stroke:#ED1E79;stroke-width:2;stroke-linecap:round;stroke-linejoin:round;stroke-miterlimit:10;}
</style>
<g>
	<g>
		<path class="st0" d="M64,4.7L64,4.7c26.3,0,47.6,21.3,47.6,47.6v71"/>
		<path class="st1" d="M16.4,123.3v-71C16.4,26,37.7,4.7,64,4.7"/>
		<polyline class="st2" points="111.6,123.3 102.1,109.3 92.5,123.3 83,109.3 73.5,123.3 64,109.3 54.5,123.3 45,109.3 35.5,123.3
			25.9,109.3 16.4,123.3 		"/>
	</g>
	<path class="st3" d="M27.5,52.9c0-8,6.5-14.5,14.5-14.5s14.5,6.5,14.5,14.5"/>
	<path class="st4" d="M71.5,52.9c0-8,6.5-14.5,14.5-14.5s14.5,6.5,14.5,14.5"/>
	<path class="st5" d="M76.7,75.1c0,8-6.5,14.5-14.5,14.5s-14.5-6.5-14.5-14.5"/>
</g>
</svg>
