<?xml version="1.0" encoding="utf-8"?>
<!-- Generator: Adobe Illustrator 26.0.3, SVG Export Plug-In . SVG Version: 6.00 Build 0)  -->
<svg version="1.1" id="Layer_1" xmlns="http://www.w3.org/2000/svg" xmlns:xlink="http://www.w3.org/1999/xlink" x="0px" y="0px"
	 viewBox="0 0 1024 954.9" style="enable-background:new 0 0 1024 954.9;" xml:space="preserve">
<style type="text/css">
	.st0{fill:url(#SVGID_1_);}
	.st1{fill:#C7E5FF;}
</style>
<radialGradient id="SVGID_1_" cx="511.9502" cy="477.45" r="495.0008" gradientUnits="userSpaceOnUse">
	<stop  offset="0" style="stop-color:#0066A5"/>
	<stop  offset="1" style="stop-color:#00182A"/>
</radialGradient>
<path class="st0" d="M930.4,954.9h-837C41.8,954.9,0,913.1,0,861.4v-768C0,41.8,41.8,0,93.5,0h837c51.6,0,93.5,41.8,93.5,93.5v768
	C1023.9,913.1,982.1,954.9,930.4,954.9z"/>
<g>
	<g>
		<path class="st1" d="M19.6,121.4h148.1v34.8h-53.2V300H73V156.3H19.6V121.4z"/>
		<path class="st1" d="M308.6,218.5V300h-38.8v-13.3v-48.9c0-11.7-0.2-19.8-0.7-24.2c-0.5-4.4-1.3-7.6-2.4-9.7
			c-1.5-2.8-3.6-5-6.2-6.5c-2.6-1.6-5.5-2.3-8.8-2.3c-8.1,0-14.4,3.4-19,10.3c-4.6,6.9-6.9,16.4-6.9,28.6V300h-38.5V113.9h38.5v71.8
			c5.8-7.8,12-13.6,18.5-17.3c6.5-3.7,13.8-5.6,21.7-5.6c13.9,0,24.4,4.7,31.6,14.2C305,186.6,308.6,200.4,308.6,218.5z"/>
		<path class="st1" d="M344.4,113.9h38.5v34.9h-38.5V113.9z M344.4,166.1h38.5v134h-38.5V166.1z"/>
		<path class="st1" d="M514,170.3v32.5c-8.2-3.8-16.2-6.7-23.9-8.6c-7.7-1.9-14.9-2.9-21.7-2.9c-7.3,0-12.8,1-16.3,3
			c-3.5,2-5.3,5.2-5.3,9.4c0,3.4,1.3,6.1,4,7.9c2.7,1.8,7.5,3.2,14.5,4.1l6.7,1.1c19.8,2.8,33.1,7.4,39.9,13.8
			c6.8,6.4,10.2,16.4,10.2,30c0,14.3-4.7,25-14.2,32.2c-9.5,7.2-23.6,10.8-42.5,10.8c-8,0-16.2-0.7-24.7-2.1
			c-8.5-1.4-17.2-3.5-26.1-6.3v-32.5c7.7,4.1,15.5,7.3,23.6,9.3c8.1,2.1,16.3,3.1,24.6,3.1c7.5,0,13.2-1.2,17-3.5
			c3.8-2.3,5.7-5.7,5.7-10.3c0-3.8-1.3-6.7-3.9-8.6c-2.6-1.9-7.9-3.3-15.7-4.4l-6.8-1c-17.1-2.4-29.2-6.8-36.1-13.3
			c-6.9-6.5-10.3-16.3-10.3-29.4c0-14.2,4.4-24.7,13.2-31.6c8.8-6.9,22.2-10.3,40.3-10.3c7.1,0,14.6,0.6,22.4,1.8
			C496.3,165.8,504.8,167.7,514,170.3z"/>
		<path class="st1" d="M707,113.9V142h-21.3c-5.4,0-9.2,1.1-11.4,3.3c-2.2,2.2-3.2,6-3.2,11.4v9.3H704v30.6h-32.9V300h-38.6V196.7
			h-19.1v-30.6h19.1v-9.3c0-14.6,3.7-25.4,11-32.4c7.3-7,18.7-10.5,34.1-10.5H707z"/>
		<path class="st1" d="M723.5,113.9h38.5v34.9h-38.5V113.9z M723.5,166.1h38.5v134h-38.5V166.1z"/>
		<path class="st1" d="M799,113.9h38.5V300H799V113.9z"/>
		<path class="st1" d="M994.8,232.7v12.2h-90.1c0.9,10,4.1,17.6,9.7,22.6c5.6,5,13.5,7.5,23.5,7.5c8.1,0,16.4-1.3,24.9-4
			c8.5-2.7,17.2-6.7,26.1-12.1v33c-9.1,3.8-18.2,6.7-27.3,8.7c-9.1,2-18.2,2.9-27.3,2.9c-21.8,0-38.8-6.2-50.9-18.5
			s-18.1-29.6-18.1-51.9c0-21.8,5.9-39,17.8-51.6c11.9-12.5,28.2-18.8,49-18.8c19,0,34.2,6.3,45.5,19S994.8,211.5,994.8,232.7z
			 M955.2,218.5c0-8.1-2.1-14.7-6.4-19.7c-4.3-5-9.9-7.5-16.8-7.5c-7.4,0-13.5,2.3-18.1,7s-7.6,11.4-8.8,20.2H955.2z"/>
		<path class="st1" d="M427.2,358.9h38.5v34.9h-38.5V358.9z M427.2,411.1h38.5v134h-38.5V411.1z"/>
		<path class="st1" d="M596.8,415.3v32.5c-8.2-3.8-16.2-6.7-23.9-8.6c-7.7-1.9-14.9-2.9-21.7-2.9c-7.3,0-12.8,1-16.3,3
			c-3.5,2-5.3,5.2-5.3,9.4c0,3.4,1.3,6.1,4,7.9c2.7,1.8,7.5,3.2,14.5,4.1l6.7,1.1c19.8,2.8,33.1,7.4,39.9,13.8
			c6.8,6.4,10.2,16.4,10.2,30c0,14.3-4.7,25-14.2,32.2c-9.5,7.2-23.6,10.8-42.5,10.8c-8,0-16.2-0.7-24.7-2.1
			c-8.5-1.4-17.2-3.5-26.1-6.3v-32.5c7.7,4.1,15.5,7.3,23.6,9.3c8.1,2.1,16.3,3.1,24.6,3.1c7.5,0,13.2-1.2,17-3.5
			c3.8-2.3,5.7-5.7,5.7-10.3c0-3.8-1.3-6.7-3.9-8.6c-2.6-1.9-7.9-3.3-15.7-4.4l-6.8-1c-17.1-2.4-29.2-6.8-36.1-13.3
			c-6.9-6.5-10.3-16.3-10.3-29.4c0-14.2,4.4-24.7,13.2-31.6c8.8-6.9,22.2-10.3,40.3-10.3c7.1,0,14.6,0.6,22.4,1.8
			C579.1,410.8,587.6,412.7,596.8,415.3z"/>
		<path class="st1" d="M136.6,660.3v32.5c-8.2-3.8-16.2-6.7-23.9-8.6c-7.7-1.9-14.9-2.9-21.7-2.9c-7.3,0-12.8,1-16.3,3
			c-3.5,2-5.3,5.2-5.3,9.4c0,3.4,1.3,6.1,4,7.9c2.7,1.8,7.5,3.2,14.5,4.1l6.7,1.1c19.8,2.8,33.1,7.4,39.9,13.8
			c6.8,6.4,10.2,16.4,10.2,30c0,14.3-4.7,25-14.2,32.2c-9.5,7.2-23.6,10.8-42.5,10.8c-8,0-16.2-0.7-24.7-2.1
			c-8.5-1.4-17.2-3.5-26.1-6.3v-32.5c7.7,4.1,15.5,7.3,23.6,9.3C69,764,77.2,765,85.5,765c7.5,0,13.2-1.2,17-3.5
			c3.8-2.3,5.7-5.7,5.7-10.3c0-3.8-1.3-6.7-3.9-8.6c-2.6-1.9-7.9-3.3-15.7-4.4l-6.8-1c-17.1-2.4-29.2-6.8-36.1-13.3
			c-6.9-6.5-10.3-16.3-10.3-29.4c0-14.2,4.4-24.7,13.2-31.6c8.8-6.9,22.2-10.3,40.3-10.3c7.1,0,14.6,0.6,22.4,1.8
			C119,655.8,127.5,657.7,136.6,660.3z"/>
		<path class="st1" d="M173.7,603.9h38.5v101.3l44.4-49.2h44.7l-58.9,61.5L306,790h-46.8l-47-55.9V790h-38.5V603.9z"/>
		<path class="st1" d="M320.3,603.9h38.5v34.9h-38.5V603.9z M320.3,656.1h38.5v134h-38.5V656.1z"/>
		<path class="st1" d="M434.2,770.7V841h-38.5V656.1h38.5v19.6c5.3-7.8,11.2-13.6,17.7-17.3c6.5-3.7,13.9-5.6,22.2-5.6
			c14.8,0,27,6.6,36.6,19.7c9.6,13.1,14.4,30,14.4,50.7s-4.8,37.5-14.4,50.7s-21.8,19.7-36.6,19.7c-8.4,0-15.8-1.9-22.2-5.6
			C445.5,784.2,439.6,778.5,434.2,770.7z M459.8,683.9c-8.2,0-14.5,3.4-19,10.1c-4.4,6.7-6.6,16.4-6.6,29.1
			c0,12.7,2.2,22.4,6.6,29.1c4.4,6.7,10.7,10.1,19,10.1c8.3,0,14.6-3.3,19-10c4.3-6.7,6.5-16.4,6.5-29.2s-2.2-22.5-6.5-29.2
			C474.5,687.3,468.1,683.9,459.8,683.9z"/>
		<path class="st1" d="M592,770.7V841h-38.5V656.1H592v19.6c5.3-7.8,11.2-13.6,17.7-17.3c6.5-3.7,13.9-5.6,22.2-5.6
			c14.8,0,27,6.6,36.6,19.7c9.6,13.1,14.4,30,14.4,50.7s-4.8,37.5-14.4,50.7s-21.8,19.7-36.6,19.7c-8.4,0-15.8-1.9-22.2-5.6
			C603.3,784.2,597.4,778.5,592,770.7z M617.6,683.9c-8.2,0-14.5,3.4-19,10.1c-4.4,6.7-6.6,16.4-6.6,29.1c0,12.7,2.2,22.4,6.6,29.1
			c4.4,6.7,10.7,10.1,19,10.1c8.3,0,14.6-3.3,19-10c4.3-6.7,6.5-16.4,6.5-29.2s-2.2-22.5-6.5-29.2
			C632.2,687.3,625.9,683.9,617.6,683.9z"/>
		<path class="st1" d="M831.6,722.7v12.2h-90.1c0.9,10,4.1,17.6,9.7,22.6s13.5,7.5,23.5,7.5c8.1,0,16.4-1.3,24.9-4
			c8.5-2.7,17.2-6.7,26.1-12.1v33c-9.1,3.8-18.2,6.7-27.3,8.7c-9.1,2-18.2,2.9-27.3,2.9c-21.9,0-38.8-6.2-50.9-18.5
			s-18.1-29.6-18.1-51.9c0-21.8,5.9-39,17.8-51.6c11.9-12.5,28.2-18.8,49-18.8c19,0,34.2,6.3,45.5,19
			C825.9,684.5,831.6,701.5,831.6,722.7z M792,708.5c0-8.1-2.1-14.7-6.4-19.7c-4.3-5-9.9-7.5-16.8-7.5c-7.4,0-13.5,2.3-18.1,7
			c-4.7,4.7-7.6,11.4-8.8,20.2H792z"/>
		<path class="st1" d="M942.9,675.7v-71.8h38.8V790h-38.8v-19.4c-5.3,7.9-11.2,13.7-17.6,17.3c-6.4,3.7-13.8,5.5-22.2,5.5
			c-14.8,0-27-6.6-36.5-19.7c-9.5-13.1-14.3-30-14.3-50.7s4.8-37.5,14.3-50.7c9.5-13.1,21.7-19.7,36.5-19.7c8.4,0,15.8,1.9,22.2,5.6
			C931.6,662.1,937.5,667.9,942.9,675.7z M917.4,762.4c8.3,0,14.6-3.3,19-10c4.3-6.7,6.5-16.4,6.5-29.2s-2.2-22.5-6.5-29.2
			c-4.3-6.7-10.7-10-19-10c-8.1,0-14.4,3.3-18.7,10c-4.3,6.7-6.5,16.4-6.5,29.2s2.2,22.5,6.5,29.2
			C903,759.1,909.2,762.4,917.4,762.4z"/>
	</g>
</g>
</svg>
