<?xml version="1.0" encoding="utf-8"?>
<!-- Generator: Adobe Illustrator 26.0.3, SVG Export Plug-In . SVG Version: 6.00 Build 0)  -->
<svg version="1.1" id="Layer_1" xmlns="http://www.w3.org/2000/svg" xmlns:xlink="http://www.w3.org/1999/xlink" x="0px" y="0px"
	 viewBox="0 0 1024 1024" style="enable-background:new 0 0 1024 1024;" xml:space="preserve">
<style type="text/css">
	.st0{fill:#FBAB18;}
	.st1{fill:none;stroke:#108040;stroke-width:18;stroke-linecap:round;stroke-miterlimit:10;}
	.st2{fill:none;stroke:#ED2224;stroke-width:18;stroke-linecap:round;stroke-miterlimit:10;}
	.st3{fill:none;stroke:#3A53A4;stroke-width:18;stroke-linecap:round;stroke-linejoin:round;stroke-miterlimit:10;}
	.st4{fill:none;stroke:#B9539F;stroke-width:18;stroke-linecap:round;stroke-linejoin:round;stroke-miterlimit:10;}
	.st5{fill:none;stroke:#F79421;stroke-width:18;stroke-linecap:round;stroke-linejoin:round;stroke-miterlimit:10;}
	.st6{fill:none;stroke:#ED2079;stroke-width:18;stroke-linecap:round;stroke-linejoin:round;stroke-miterlimit:10;}
	.st7{fill:#FFE000;stroke:#F7941D;stroke-width:3;stroke-miterlimit:10;}
</style>
<g>
	<path class="st0" d="M88.3,39.9h-21v-7.6h51.2v7.6H97.3v61.5h-9V39.9z"/>
	<path class="st0" d="M125.1,28.6h9v31h0.2c1.4-2.6,3.7-4.8,6.5-6.4c2.7-1.5,5.8-2.6,9.2-2.6c6.7,0,17.3,4.1,17.3,21.2v29.5h-9V72.9
		c0-8-3-14.8-11.5-14.8c-5.8,0-10.5,4.1-12.1,9c-0.5,1.2-0.6,2.6-0.6,4.3v29.9h-9V28.6z"/>
	<path class="st0" d="M192,37.8c0.1,3.1-2.2,5.5-5.7,5.5c-3.2,0-5.4-2.5-5.4-5.5c0-3.2,2.4-5.6,5.6-5.6
		C189.9,32.2,192,34.7,192,37.8z M182,101.4V51.8h9v49.6H182z"/>
	<path class="st0" d="M204.7,92.2c2.7,1.7,7.4,3.6,11.9,3.6c6.6,0,9.6-3.3,9.6-7.4c0-4.3-2.6-6.7-9.2-9.1c-8.9-3.2-13.1-8.1-13.1-14
		c0-8,6.5-14.6,17.1-14.6c5,0,9.4,1.4,12.2,3.1l-2.3,6.6c-1.9-1.2-5.5-2.9-10.1-2.9c-5.3,0-8.3,3.1-8.3,6.8c0,4.1,3,5.9,9.4,8.4
		c8.6,3.3,13,7.6,13,15c0,8.7-6.8,14.9-18.6,14.9c-5.4,0-10.5-1.3-13.9-3.4L204.7,92.2z"/>
	<path class="st0" d="M269.2,101.4V58.6h-7v-6.9h7v-2.7c0-13.1,7.7-21.6,21.6-21.6c4.6,0,10,1.4,12.6,3.3l-2.6,6.9
		c-2.2-1.5-6-2.9-10.5-2.9c-9.5,0-12.3,6.7-12.3,14.6v2.5h28.8v49.6H298V58.6h-19.9v42.8H269.2z"/>
	<path class="st0" d="M321.9,28.6h9v72.8h-9V28.6z"/>
	<path class="st0" d="M351.1,78.2c0.2,12.2,8,17.2,17,17.2c6.5,0,10.4-1.1,13.7-2.6l1.5,6.5c-3.2,1.4-8.6,3.1-16.5,3.1
		c-15.3,0-24.4-10-24.4-25c0-15,8.8-26.8,23.3-26.8c16.2,0,20.5,14.3,20.5,23.4c0,1.8-0.2,3.3-0.3,4.2H351.1z M377.6,71.8
		c0.1-5.7-2.4-14.7-12.5-14.7c-9.1,0-13.1,8.4-13.8,14.7H377.6z"/>
	<path class="st0" d="M429.3,37.8c0.1,3.1-2.2,5.5-5.7,5.5c-3.2,0-5.4-2.5-5.4-5.5c0-3.2,2.4-5.6,5.6-5.6
		C427.1,32.2,429.3,34.7,429.3,37.8z M419.2,101.4V51.8h9v49.6H419.2z"/>
	<path class="st0" d="M442,92.2c2.7,1.7,7.4,3.6,11.9,3.6c6.6,0,9.6-3.3,9.6-7.4c0-4.3-2.6-6.7-9.2-9.1c-8.9-3.2-13.1-8.1-13.1-14
		c0-8,6.5-14.6,17.1-14.6c5,0,9.4,1.4,12.2,3.1l-2.3,6.6c-1.9-1.2-5.5-2.9-10.1-2.9c-5.3,0-8.3,3.1-8.3,6.8c0,4.1,3,5.9,9.4,8.4
		c8.6,3.3,13,7.6,13,15c0,8.7-6.8,14.9-18.6,14.9c-5.4,0-10.5-1.3-13.9-3.4L442,92.2z"/>
	<path class="st0" d="M505.5,65.2c0-5.1-0.1-9.3-0.4-13.4h8l0.5,8.2h0.2c2.5-4.7,8.2-9.3,16.4-9.3c6.9,0,17.5,4.1,17.5,21.1v29.6h-9
		V72.8c0-8-3-14.7-11.5-14.7c-5.9,0-10.6,4.2-12.1,9.2c-0.4,1.1-0.6,2.7-0.6,4.2v29.8h-9V65.2z"/>
	<path class="st0" d="M607.3,76.2c0,18.4-12.7,26.3-24.7,26.3c-13.4,0-23.8-9.8-23.8-25.5c0-16.6,10.9-26.3,24.6-26.3
		C597.7,50.6,607.3,61,607.3,76.2z M568,76.7c0,10.9,6.3,19.1,15.1,19.1c8.6,0,15.1-8.1,15.1-19.3c0-8.4-4.2-19.1-14.9-19.1
		C572.6,57.4,568,67.3,568,76.7z"/>
	<path class="st0" d="M629.6,37.5v14.3h12.9v6.9h-12.9v26.8c0,6.2,1.7,9.6,6.8,9.6c2.4,0,4.1-0.3,5.2-0.6l0.4,6.8
		c-1.7,0.7-4.5,1.2-8,1.2c-4.2,0-7.6-1.3-9.7-3.8c-2.6-2.7-3.5-7.1-3.5-12.9V58.6h-7.7v-6.9h7.7V39.9L629.6,37.5z"/>
	<path class="st0" d="M674.4,28.6h9v72.8h-9V28.6z"/>
	<path class="st0" d="M743.5,76.2c0,18.4-12.7,26.3-24.7,26.3c-13.4,0-23.8-9.8-23.8-25.5c0-16.6,10.9-26.3,24.6-26.3
		C733.9,50.6,743.5,61,743.5,76.2z M704.1,76.7c0,10.9,6.3,19.1,15.1,19.1c8.6,0,15.1-8.1,15.1-19.3c0-8.4-4.2-19.1-14.9-19.1
		C708.7,57.4,704.1,67.3,704.1,76.7z"/>
	<path class="st0" d="M782.4,101.4l-0.7-6.3h-0.3c-2.8,3.9-8.1,7.4-15.2,7.4c-10,0-15.2-7.1-15.2-14.3c0-12,10.7-18.6,29.8-18.5v-1
		c0-4.1-1.1-11.5-11.3-11.5c-4.6,0-9.4,1.4-12.9,3.7l-2.1-5.9c4.1-2.7,10-4.4,16.3-4.4c15.2,0,18.9,10.4,18.9,20.3v18.6
		c0,4.3,0.2,8.5,0.8,11.9H782.4z M781,76.1c-9.8-0.2-21,1.5-21,11.2c0,5.8,3.9,8.6,8.5,8.6c6.5,0,10.6-4.1,12-8.3
		c0.3-0.9,0.5-1.9,0.5-2.9V76.1z"/>
	<path class="st0" d="M847.2,28.6v60c0,4.4,0.1,9.4,0.4,12.8h-8.1l-0.4-8.6h-0.2c-2.8,5.5-8.8,9.7-16.9,9.7
		c-12,0-21.2-10.1-21.2-25.2c-0.1-16.5,10.2-26.7,22.2-26.7c7.6,0,12.7,3.6,15,7.6h0.2V28.6H847.2z M838.1,72c0-1.1-0.1-2.7-0.4-3.8
		c-1.3-5.7-6.3-10.5-13-10.5c-9.3,0-14.9,8.2-14.9,19.2c0,10,4.9,18.4,14.7,18.4c6,0,11.6-4,13.2-10.8c0.3-1.2,0.4-2.5,0.4-3.9V72z"
		/>
	<path class="st0" d="M867.1,78.2c0.2,12.2,8,17.2,17,17.2c6.5,0,10.4-1.1,13.7-2.6l1.5,6.5c-3.2,1.4-8.6,3.1-16.5,3.1
		c-15.3,0-24.4-10-24.4-25c0-15,8.8-26.8,23.3-26.8c16.2,0,20.5,14.3,20.5,23.4c0,1.8-0.2,3.3-0.3,4.2H867.1z M893.6,71.8
		c0.1-5.7-2.4-14.7-12.5-14.7c-9.1,0-13.1,8.4-13.8,14.7H893.6z"/>
	<path class="st0" d="M956.3,28.6v60c0,4.4,0.1,9.4,0.4,12.8h-8.1l-0.4-8.6H948c-2.8,5.5-8.8,9.7-16.9,9.7
		c-12,0-21.2-10.1-21.2-25.2c-0.1-16.5,10.2-26.7,22.2-26.7c7.6,0,12.7,3.6,15,7.6h0.2V28.6H956.3z M947.3,72c0-1.1-0.1-2.7-0.4-3.8
		c-1.3-5.7-6.3-10.5-13-10.5c-9.3,0-14.9,8.2-14.9,19.2c0,10,4.9,18.4,14.7,18.4c6,0,11.6-4,13.2-10.8c0.3-1.2,0.4-2.5,0.4-3.9V72z"
		/>
</g>
<g>
	<g>
		<path class="st1" d="M512,229.7L512,229.7c153.2,0,277.5,124.2,277.5,277.5v414.5"/>
		<path class="st2" d="M234.5,921.7V507.1c0-153.2,124.2-277.5,277.5-277.5"/>
		<polyline class="st3" points="789.5,921.7 734,840.1 678.4,921.7 623,840.1 567.5,921.7 512,840.1 456.5,921.7 401,840.1 
			345.6,921.7 290,840.1 234.5,921.7 		"/>
	</g>
	<path class="st4" d="M299,511c0-46.7,37.8-84.5,84.5-84.5S468,464.3,468,511"/>
	<path class="st5" d="M555.9,511c0-46.7,37.8-84.5,84.5-84.5s84.5,37.8,84.5,84.5"/>
	<path class="st6" d="M586.3,640.4c0,46.7-37.8,84.5-84.5,84.5s-84.5-37.8-84.5-84.5"/>
</g>
<polygon class="st7" points="930,387.2 970.6,402.5 933.8,425.4 931.8,468.8 898.6,440.9 856.8,452.4 873.1,412.2 849.2,376 
	892.5,379.1 919.5,345.2 "/>
<polygon class="st7" points="151.1,220 206.7,206.9 183.3,259.1 212.9,308 156.1,301.8 118.7,345.2 107,289.1 54.3,267 103.9,238.6 
	108.7,181.6 "/>
<polygon class="st7" points="109.6,899.1 140.9,894 125.9,922 140.5,950.2 109.2,944.6 86.9,967.1 82.6,935.7 54.3,921.4 
	82.8,907.6 87.6,876.3 "/>
</svg>
