<?xml version="1.0" encoding="utf-8"?>
<!-- Generator: Adobe Illustrator 26.0.3, SVG Export Plug-In . SVG Version: 6.00 Build 0)  -->
<svg version="1.1" id="Layer_1" xmlns="http://www.w3.org/2000/svg"
	xmlns:xlink="http://www.w3.org/1999/xlink" x="0px" y="0px"
	viewBox="0 0 256 128" style="enable-background:new 0 0 256 128;" xml:space="preserve">
<style type="text/css">
  .st0{fill:none;stroke:#00DB00;stroke-width:4;stroke-miterlimit:10;}
  .st1{fill:#FFFF00;stroke:#FF6900;stroke-width:2;stroke-miterlimit:10;}
  .st2{fill:#FFFF00;stroke:#FF6900;stroke-width:4;stroke-miterlimit:10;}
  .st3{fill:#FF00FF;}
  .st4{fill:none;stroke:#FF00FF;stroke-width:2;stroke-miterlimit:10;}
</style>
<polygon class="st0" data-original-line-width="true" points="36.0692101,56.7798271 49.0544853,53.5910645 43.6869316,65.8374939 50.7322998,77.2018433
  37.4265862,75.8813477 28.7955837,86.0936661 25.9397564,73.0311279 13.5601368,67.9783401 25.1008511,61.2257385
  26.0808277,47.890625 "/>
<g fill="cornflowerblue">
  <path d="M6.5673828,5.9082031h1.2358398v8.0952148h4.4482422v1.0400391h-5.684082V5.9082031z"/>
  <path d="M13.5,5.5224609h1.1254883v1.4257812H13.5V5.5224609z M13.5,8.1904297h1.1254883v6.8530273H13.5V8.1904297z"/>
  <path d="M22.6777344,10.9072266v4.1362305h-1.1259766v-4.0996094c0-0.6484375-0.1264648-1.1337891-0.3793945-1.4560547
    s-0.6323242-0.4833984-1.1376953-0.4833984c-0.6079102,0-1.0874023,0.1938477-1.4379883,0.5810547
    c-0.3510742,0.3876953-0.5263672,0.9160156-0.5263672,1.5849609v3.8730469h-1.1318359V8.1904297h1.1318359v1.0644531
    c0.269043-0.4116211,0.5864258-0.7197266,0.9516602-0.9238281c0.3647461-0.2036133,0.7861328-0.3056641,1.2631836-0.3056641
    c0.7875977,0,1.3833008,0.2436523,1.7871094,0.730957S22.6777344,9.9609375,22.6777344,10.9072266z"/>
  <path d="M30.7856445,11.3354492v0.5507812h-5.1767578c0.0488281,0.7749023,0.2822266,1.3652344,0.7006836,1.7714844
    c0.4179688,0.4057617,1.0004883,0.6088867,1.7470703,0.6088867c0.4321289,0,0.8510742-0.0532227,1.2573242-0.1591797
    c0.4057617-0.105957,0.8085938-0.2651367,1.2084961-0.4775391v1.0649414
    c-0.4038086,0.1713867-0.8178711,0.3017578-1.2421875,0.3916016c-0.4243164,0.0893555-0.8544922,0.1342773-1.2910156,0.1342773
    c-1.0932617,0-1.9589844-0.3178711-2.5976562-0.9541016c-0.6381836-0.6367188-0.9575195-1.4970703-0.9575195-2.5825195
    c0-1.121582,0.3027344-2.0117188,0.9086914-2.6708984c0.605957-0.6586914,1.4223633-0.987793,2.4506836-0.987793
    c0.921875,0,1.6508789,0.2963867,2.1875,0.8901367C30.5170898,9.5087891,30.7856445,10.315918,30.7856445,11.3354492z
     M29.659668,11.0048828c-0.0083008-0.6157227-0.1806641-1.1074219-0.5170898-1.4746094s-0.7822266-0.5507812-1.3369141-0.5507812
    c-0.628418,0-1.1313477,0.1777344-1.5083008,0.5327148c-0.3774414,0.3549805-0.5947266,0.8544922-0.6518555,1.4990234
    L29.659668,11.0048828z"/>
  <path d="M35.9619141,8.1904297h1.1254883l1.4077148,5.3476562l1.4008789-5.3476562h1.328125l1.4072266,5.3476562
    l1.4008789-5.3476562h1.1259766l-1.7924805,6.8530273h-1.328125l-1.4746094-5.6171875l-1.4804688,5.6171875h-1.328125
    L35.9619141,8.1904297z"/>
  <path d="M46.8657227,5.5224609h1.1254883v1.4257812h-1.1254883V5.5224609z M46.8657227,8.1904297h1.1254883v6.8530273h-1.1254883
    V8.1904297z"/>
  <path d="M54.8564453,9.2304688V5.5224609h1.1259766v9.5209961h-1.1259766v-1.027832
    c-0.2368164,0.4077148-0.5351562,0.7109375-0.8964844,0.9086914c-0.3608398,0.1977539-0.7944336,0.2963867-1.300293,0.2963867
    c-0.828125,0-1.5019531-0.3300781-2.0219727-0.9912109c-0.5200195-0.6606445-0.7802734-1.5292969-0.7802734-2.6064453
    c0-1.0766602,0.2602539-1.9458008,0.7802734-2.6064453c0.5200195-0.6611328,1.1938477-0.9912109,2.0219727-0.9912109
    c0.5058594,0,0.9394531,0.0986328,1.300293,0.2963867C54.3212891,8.5200195,54.6196289,8.8227539,54.8564453,9.2304688z
     M51.0200195,11.6230469c0,0.828125,0.1704102,1.4775391,0.5107422,1.9487305
    c0.3408203,0.4711914,0.8085938,0.7070312,1.4042969,0.7070312S54,14.0429688,54.3422852,13.5717773
    c0.3427734-0.4711914,0.5141602-1.1206055,0.5141602-1.9487305s-0.1713867-1.4775391-0.5141602-1.9487305
    C54,9.203125,53.5307617,8.9672852,52.9350586,8.9672852S51.871582,9.203125,51.5307617,9.6743164
    C51.1904297,10.1455078,51.0200195,10.7949219,51.0200195,11.6230469z"/>
  <path d="M59.4150391,6.2446289v1.9458008h2.3193359v0.875h-2.3193359v3.7202148
    c0,0.559082,0.0766602,0.9179688,0.2294922,1.0766602c0.152832,0.1591797,0.4638672,0.2387695,0.9331055,0.2387695h1.1567383
    v0.9423828h-1.1567383c-0.8686523,0-1.4682617-0.1621094-1.7988281-0.4863281s-0.4956055-0.9150391-0.4956055-1.7714844V9.0654297
    h-0.8261719v-0.875h0.8261719V6.2446289H59.4150391z"/>
  <path d="M68.9116211,10.9072266v4.1362305h-1.1259766v-4.0996094c0-0.6484375-0.1264648-1.1337891-0.3793945-1.4560547
    s-0.6323242-0.4833984-1.1376953-0.4833984c-0.6079102,0-1.0874023,0.1938477-1.4379883,0.5810547
    c-0.3510742,0.3876953-0.5263672,0.9160156-0.5263672,1.5849609v3.8730469h-1.1318359V5.5224609h1.1318359v3.7324219
    c0.269043-0.4116211,0.5864258-0.7197266,0.9516602-0.9238281c0.3647461-0.2036133,0.7861328-0.3056641,1.2631836-0.3056641
    c0.7875977,0,1.3833008,0.2436523,1.7871094,0.730957S68.9116211,9.9609375,68.9116211,10.9072266z"/>
  <path d="M12.2148438,21.9072266v4.1362305h-1.1259766v-4.0996094c0-0.6484375-0.1264648-1.1337891-0.3793945-1.4560547
    s-0.6323242-0.4833984-1.1376953-0.4833984c-0.6079102,0-1.0874023,0.1938477-1.4379883,0.5810547
    c-0.3510742,0.3876953-0.5263672,0.9160156-0.5263672,1.5849609v3.8730469H6.4755859v-6.8530273h1.1318359v1.0644531
    c0.269043-0.4116211,0.5864258-0.7197266,0.9516602-0.9238281c0.3647461-0.2036133,0.7861328-0.3056641,1.2631836-0.3056641
    c0.7875977,0,1.3833008,0.2436523,1.7871094,0.730957S12.2148438,20.9609375,12.2148438,21.9072266z"/>
  <path d="M17.1162109,19.0253906c0.9790039,0,1.7480469,0.3178711,2.3066406,0.9541016
    c0.559082,0.6367188,0.8383789,1.5175781,0.8383789,2.6435547c0,1.1220703-0.2792969,2.0019531-0.8383789,2.6401367
    c-0.5585938,0.6386719-1.3276367,0.9575195-2.3066406,0.9575195c-0.9829102,0-1.7529297-0.3188477-2.3095703-0.9575195
    c-0.5571289-0.6381836-0.8354492-1.5180664-0.8354492-2.6401367c0-1.1259766,0.2783203-2.0068359,0.8354492-2.6435547
    C15.3632812,19.3432617,16.1333008,19.0253906,17.1162109,19.0253906z M17.1162109,19.9794922
    c-0.6035156,0-1.0810547,0.2358398-1.4316406,0.7070312c-0.3510742,0.4711914-0.5263672,1.1166992-0.5263672,1.9365234
    s0.1743164,1.465332,0.5234375,1.9365234c0.3486328,0.4711914,0.8266602,0.7070312,1.4345703,0.7070312
    c0.5996094,0,1.074707-0.2368164,1.4257812-0.7099609c0.3505859-0.4731445,0.5263672-1.1176758,0.5263672-1.9335938
    c0-0.8115234-0.1757812-1.4550781-0.5263672-1.9306641C18.190918,20.2172852,17.7158203,19.9794922,17.1162109,19.9794922z"/>
  <path d="M23.2407227,17.2446289v1.9458008h2.3193359v0.875h-2.3193359v3.7202148
    c0,0.559082,0.0766602,0.9179688,0.2294922,1.0766602c0.152832,0.1591797,0.4638672,0.2387695,0.9331055,0.2387695h1.1567383
    v0.9423828h-1.1567383c-0.8686523,0-1.4682617-0.1621094-1.7988281-0.4863281s-0.4956055-0.9150391-0.4956055-1.7714844v-3.7202148
    h-0.8261719v-0.875h0.8261719v-1.9458008H23.2407227z"/>
  <path d="M7.6074219,36.015625v3.6342773H6.4755859v-9.4594727h1.1318359v1.0400391
    c0.2368164-0.4077148,0.5356445-0.7104492,0.8964844-0.9086914c0.3608398-0.1977539,0.7924805-0.2963867,1.2939453-0.2963867
    c0.8325195,0,1.5083008,0.3300781,2.0283203,0.9912109c0.5205078,0.6606445,0.7802734,1.5297852,0.7802734,2.6064453
    c0,1.0771484-0.2597656,1.9458008-0.7802734,2.6064453c-0.5200195,0.6611328-1.1958008,0.9912109-2.0283203,0.9912109
    c-0.5014648,0-0.9331055-0.0986328-1.2939453-0.2963867S7.8442383,36.4233398,7.6074219,36.015625z M11.4379883,33.6230469
    c0-0.828125-0.1704102-1.4775391-0.5112305-1.9487305c-0.340332-0.4711914-0.8085938-0.7070312-1.4042969-0.7070312
    c-0.5952148,0-1.0634766,0.2358398-1.4042969,0.7070312c-0.340332,0.4711914-0.5107422,1.1206055-0.5107422,1.9487305
    s0.1704102,1.4775391,0.5107422,1.9487305c0.3408203,0.4711914,0.809082,0.7070312,1.4042969,0.7070312
    c0.5957031,0,1.0639648-0.2358398,1.4042969-0.7070312C11.2675781,35.1005859,11.4379883,34.4511719,11.4379883,33.6230469z"/>
  <path d="M18.4438477,31.2426758c-0.1264648-0.0732422-0.2641602-0.1274414-0.4130859-0.1621094
    s-0.3129883-0.0517578-0.4921875-0.0517578c-0.6367188,0-1.125,0.2070312-1.4658203,0.6210938
    c-0.340332,0.4140625-0.5107422,1.0083008-0.5107422,1.7836914v3.6098633h-1.1318359v-6.8530273h1.1318359v1.0644531
    c0.2368164-0.4160156,0.5444336-0.7250977,0.9238281-0.9267578c0.3793945-0.2021484,0.840332-0.3027344,1.3828125-0.3027344
    c0.0776367,0,0.1630859,0.0048828,0.2573242,0.0151367c0.09375,0.0102539,0.1977539,0.0253906,0.3120117,0.0458984
    L18.4438477,31.2426758z"/>
  <path d="M25.2114258,33.3354492v0.5507812H20.034668c0.0488281,0.7749023,0.2822266,1.3652344,0.7006836,1.7714844
    c0.4179688,0.4057617,1.0004883,0.6088867,1.7470703,0.6088867c0.4321289,0,0.8510742-0.0532227,1.2573242-0.1591797
    c0.4057617-0.105957,0.8085938-0.2651367,1.2084961-0.4775391v1.0649414
    c-0.4038086,0.1713867-0.8178711,0.3017578-1.2421875,0.3916016c-0.4243164,0.0893555-0.8544922,0.1342773-1.2910156,0.1342773
    c-1.0932617,0-1.9589844-0.3178711-2.5976562-0.9541016c-0.6381836-0.6367188-0.9575195-1.4970703-0.9575195-2.5825195
    c0-1.121582,0.3027344-2.0117188,0.9086914-2.6708984c0.605957-0.6586914,1.4223633-0.987793,2.4506836-0.987793
    c0.921875,0,1.6508789,0.2963867,2.1875,0.8901367C24.9428711,31.5087891,25.2114258,32.315918,25.2114258,33.3354492z
     M24.0854492,33.0048828c-0.0083008-0.6157227-0.1806641-1.1074219-0.5170898-1.4746094s-0.7822266-0.5507812-1.3369141-0.5507812
    c-0.628418,0-1.1313477,0.1777344-1.5083008,0.5327148c-0.3774414,0.3549805-0.5947266,0.8544922-0.6518555,1.4990234
    L24.0854492,33.0048828z"/>
  <path d="M31.4277344,30.3920898v1.0649414c-0.3183594-0.1630859-0.6484375-0.2856445-0.9912109-0.3671875
    s-0.6977539-0.1225586-1.0649414-0.1225586c-0.5585938,0-0.9780273,0.0859375-1.2573242,0.2573242
    s-0.4189453,0.4282227-0.4189453,0.7709961c0,0.2607422,0.0996094,0.4658203,0.2998047,0.6147461
    c0.199707,0.1489258,0.6015625,0.2905273,1.2050781,0.425293l0.3857422,0.0854492
    c0.7993164,0.1713867,1.3676758,0.4130859,1.7041016,0.7250977c0.3364258,0.3125,0.5048828,0.7475586,0.5048828,1.3066406
    c0,0.6362305-0.2519531,1.1401367-0.7558594,1.5112305s-1.1962891,0.5566406-2.0771484,0.5566406
    c-0.3671875,0-0.7495117-0.0356445-1.1474609-0.1069336c-0.3974609-0.0712891-0.8168945-0.1782227-1.2573242-0.3212891v-1.1625977
    c0.4160156,0.2163086,0.8261719,0.378418,1.2299805,0.4868164c0.4038086,0.1079102,0.8032227,0.1621094,1.1992188,0.1621094
    c0.5302734,0,0.9379883-0.0908203,1.2236328-0.2724609s0.4282227-0.4375,0.4282227-0.7680664
    c0-0.3056641-0.1030273-0.5405273-0.3085938-0.7036133c-0.2060547-0.1630859-0.6582031-0.3203125-1.3554688-0.4711914
    l-0.3916016-0.0917969c-0.6977539-0.1464844-1.2016602-0.3720703-1.5112305-0.6757812
    c-0.3100586-0.3041992-0.465332-0.7211914-0.465332-1.2514648c0-0.6445312,0.2285156-1.1420898,0.6855469-1.4931641
    c0.456543-0.3505859,1.1054688-0.5258789,1.9458008-0.5258789c0.4160156,0,0.8076172,0.0302734,1.1748047,0.0917969
    C30.7792969,30.1782227,31.1176758,30.2700195,31.4277344,30.3920898z"/>
  <path d="M39.449707,33.3354492v0.5507812h-5.1767578c0.0488281,0.7749023,0.2822266,1.3652344,0.7006836,1.7714844
    c0.4179688,0.4057617,1.0004883,0.6088867,1.7470703,0.6088867c0.4321289,0,0.8510742-0.0532227,1.2573242-0.1591797
    c0.4057617-0.105957,0.8085938-0.2651367,1.2084961-0.4775391v1.0649414
    c-0.4038086,0.1713867-0.8178711,0.3017578-1.2421875,0.3916016c-0.4243164,0.0893555-0.8544922,0.1342773-1.2910156,0.1342773
    c-1.0932617,0-1.9589844-0.3178711-2.5976562-0.9541016c-0.6381836-0.6367188-0.9575195-1.4970703-0.9575195-2.5825195
    c0-1.121582,0.3027344-2.0117188,0.9086914-2.6708984c0.605957-0.6586914,1.4223633-0.987793,2.4506836-0.987793
    c0.921875,0,1.6508789,0.2963867,2.1875,0.8901367C39.1811523,31.5087891,39.449707,32.315918,39.449707,33.3354492z
     M38.3237305,33.0048828c-0.0083008-0.6157227-0.1806641-1.1074219-0.5170898-1.4746094s-0.7822266-0.5507812-1.3369141-0.5507812
    c-0.628418,0-1.1313477,0.1777344-1.5083008,0.5327148c-0.3774414,0.3549805-0.5947266,0.8544922-0.6518555,1.4990234
    L38.3237305,33.0048828z"/>
  <path d="M45.2685547,31.2426758c-0.1264648-0.0732422-0.2641602-0.1274414-0.4130859-0.1621094
    s-0.3129883-0.0517578-0.4921875-0.0517578c-0.6367188,0-1.125,0.2070312-1.4658203,0.6210938
    c-0.340332,0.4140625-0.5107422,1.0083008-0.5107422,1.7836914v3.6098633h-1.1318359v-6.8530273h1.1318359v1.0644531
    c0.2368164-0.4160156,0.5444336-0.7250977,0.9238281-0.9267578c0.3793945-0.2021484,0.840332-0.3027344,1.3828125-0.3027344
    c0.0776367,0,0.1630859,0.0048828,0.2573242,0.0151367c0.09375,0.0102539,0.1977539,0.0253906,0.3120117,0.0458984
    L45.2685547,31.2426758z"/>
  <path d="M45.6416016,30.1904297h1.1933594l2.1416016,5.7514648l2.1416016-5.7514648h1.1933594l-2.5703125,6.8530273h-1.5292969
    L45.6416016,30.1904297z"/>
  <path d="M59.7275391,33.3354492v0.5507812h-5.1767578c0.0488281,0.7749023,0.2822266,1.3652344,0.7006836,1.7714844
    c0.4179688,0.4057617,1.0004883,0.6088867,1.7470703,0.6088867c0.4321289,0,0.8510742-0.0532227,1.2573242-0.1591797
    c0.4057617-0.105957,0.8085938-0.2651367,1.2084961-0.4775391v1.0649414
    c-0.4038086,0.1713867-0.8178711,0.3017578-1.2421875,0.3916016c-0.4243164,0.0893555-0.8544922,0.1342773-1.2910156,0.1342773
    c-1.0932617,0-1.9589844-0.3178711-2.5976562-0.9541016c-0.6381836-0.6367188-0.9575195-1.4970703-0.9575195-2.5825195
    c0-1.121582,0.3027344-2.0117188,0.9086914-2.6708984c0.605957-0.6586914,1.4223633-0.987793,2.4506836-0.987793
    c0.921875,0,1.6508789,0.2963867,2.1875,0.8901367C59.4589844,31.5087891,59.7275391,32.315918,59.7275391,33.3354492z
     M58.6015625,33.0048828c-0.0083008-0.6157227-0.1806641-1.1074219-0.5170898-1.4746094s-0.7822266-0.5507812-1.3369141-0.5507812
    c-0.628418,0-1.1313477,0.1777344-1.5083008,0.5327148c-0.3774414,0.3549805-0.5947266,0.8544922-0.6518555,1.4990234
    L58.6015625,33.0048828z"/>
  <path d="M66.0844727,31.2304688v-3.7080078h1.1259766v9.5209961h-1.1259766v-1.027832
    c-0.2368164,0.4077148-0.5351562,0.7109375-0.8964844,0.9086914c-0.3608398,0.1977539-0.7944336,0.2963867-1.300293,0.2963867
    c-0.828125,0-1.5019531-0.3300781-2.0219727-0.9912109c-0.5200195-0.6606445-0.7802734-1.5292969-0.7802734-2.6064453
    c0-1.0766602,0.2602539-1.9458008,0.7802734-2.6064453c0.5200195-0.6611328,1.1938477-0.9912109,2.0219727-0.9912109
    c0.5058594,0,0.9394531,0.0986328,1.300293,0.2963867C65.5493164,30.5200195,65.8476562,30.8227539,66.0844727,31.2304688z
     M62.2480469,33.6230469c0,0.828125,0.1704102,1.4775391,0.5107422,1.9487305
    c0.3408203,0.4711914,0.8085938,0.7070312,1.4042969,0.7070312s1.0649414-0.2358398,1.4072266-0.7070312
    c0.3427734-0.4711914,0.5141602-1.1206055,0.5141602-1.9487305s-0.1713867-1.4775391-0.5141602-1.9487305
    c-0.3422852-0.4711914-0.8115234-0.7070312-1.4072266-0.7070312s-1.0634766,0.2358398-1.4042969,0.7070312
    C62.418457,32.1455078,62.2480469,32.7949219,62.2480469,33.6230469z"/>
</g>
<g fill="cornflowerblue">
  <path d="M99.2558594,6.6123047v1.3032227c-0.4160156-0.3876953-0.8598633-0.6772461-1.3310547-0.8686523
    c-0.4711914-0.1918945-0.9716797-0.2875977-1.5019531-0.2875977c-1.0444336,0-1.84375,0.3188477-2.3984375,0.9575195
    c-0.5551758,0.6381836-0.8325195,1.5610352-0.8325195,2.7685547c0,1.2036133,0.2773438,2.1245117,0.8325195,2.7626953
    c0.5546875,0.6386719,1.3540039,0.9575195,2.3984375,0.9575195c0.5302734,0,1.0307617-0.0957031,1.5019531-0.2875977
    c0.4711914-0.1914062,0.9150391-0.480957,1.3310547-0.8686523v1.2910156
    c-0.4326172,0.293457-0.890625,0.5141602-1.3740234,0.6606445c-0.4829102,0.1469727-0.9941406,0.2202148-1.5327148,0.2202148
    c-1.3828125,0-2.4716797-0.4228516-3.2670898-1.2695312c-0.7954102-0.8461914-1.1933594-2.0019531-1.1933594-3.4663086
    c0-1.4682617,0.3979492-2.6259766,1.1933594-3.472168c0.7954102-0.8466797,1.8842773-1.2700195,3.2670898-1.2700195
    c0.546875,0,1.0620117,0.0727539,1.5454102,0.2172852C98.3779297,6.1054688,98.831543,6.3227539,99.2558594,6.6123047z"/>
  <path d="M103.7714844,8.0258789c0.9790039,0,1.7480469,0.3178711,2.3066406,0.9541016
    c0.559082,0.6367188,0.8383789,1.5175781,0.8383789,2.6435547c0,1.1220703-0.2792969,2.0019531-0.8383789,2.6401367
    c-0.5585938,0.6386719-1.3276367,0.9575195-2.3066406,0.9575195c-0.9829102,0-1.7529297-0.3188477-2.3095703-0.9575195
    c-0.5571289-0.6381836-0.8354492-1.5180664-0.8354492-2.6401367c0-1.1259766,0.2783203-2.0068359,0.8354492-2.6435547
    C102.0185547,8.34375,102.7885742,8.0258789,103.7714844,8.0258789z M103.7714844,8.9799805
    c-0.6035156,0-1.0810547,0.2358398-1.4316406,0.7070312c-0.3510742,0.4711914-0.5263672,1.1166992-0.5263672,1.9365234
    s0.1743164,1.465332,0.5234375,1.9365234c0.3486328,0.4711914,0.8266602,0.7070312,1.4345703,0.7070312
    c0.5996094,0,1.074707-0.2368164,1.4257812-0.7099609c0.3505859-0.4731445,0.5263672-1.1176758,0.5263672-1.9335938
    c0-0.8115234-0.1757812-1.4550781-0.5263672-1.9306641C104.8461914,9.2177734,104.3710938,8.9799805,103.7714844,8.9799805z"/>
  <path d="M108.7827148,5.5229492h1.1254883v9.5209961h-1.1254883V5.5229492z"/>
  <path d="M114.9199219,8.0258789c0.9790039,0,1.7480469,0.3178711,2.3066406,0.9541016
    c0.559082,0.6367188,0.8383789,1.5175781,0.8383789,2.6435547c0,1.1220703-0.2792969,2.0019531-0.8383789,2.6401367
    c-0.5585938,0.6386719-1.3276367,0.9575195-2.3066406,0.9575195c-0.9829102,0-1.7529297-0.3188477-2.3095703-0.9575195
    c-0.5571289-0.6381836-0.8354492-1.5180664-0.8354492-2.6401367c0-1.1259766,0.2783203-2.0068359,0.8354492-2.6435547
    C113.1669922,8.34375,113.9370117,8.0258789,114.9199219,8.0258789z M114.9199219,8.9799805
    c-0.6035156,0-1.0810547,0.2358398-1.4316406,0.7070312c-0.3510742,0.4711914-0.5263672,1.1166992-0.5263672,1.9365234
    s0.1743164,1.465332,0.5234375,1.9365234c0.3486328,0.4711914,0.8266602,0.7070312,1.4345703,0.7070312
    c0.5996094,0,1.074707-0.2368164,1.4257812-0.7099609c0.3505859-0.4731445,0.5263672-1.1176758,0.5263672-1.9335938
    c0-0.8115234-0.1757812-1.4550781-0.5263672-1.9306641C115.9946289,9.2177734,115.5195312,8.9799805,114.9199219,8.9799805z"/>
  <path d="M123.9018555,9.2431641c-0.1264648-0.0732422-0.2641602-0.1274414-0.4130859-0.1621094
    s-0.3129883-0.0517578-0.4921875-0.0517578c-0.6367188,0-1.125,0.2070312-1.4658203,0.6210938
    c-0.340332,0.4140625-0.5107422,1.0083008-0.5107422,1.7836914v3.6098633h-1.1318359V8.190918h1.1318359v1.0644531
    c0.2368164-0.4160156,0.5444336-0.7250977,0.9238281-0.9267578c0.3793945-0.2021484,0.840332-0.3027344,1.3828125-0.3027344
    c0.0776367,0,0.1630859,0.0048828,0.2573242,0.0151367c0.09375,0.0102539,0.1977539,0.0253906,0.3120117,0.0458984
    L123.9018555,9.2431641z"/>
  <path d="M98.0625,21.9077148v4.1362305h-1.1259766v-4.0996094c0-0.6484375-0.1264648-1.1337891-0.3793945-1.4560547
    s-0.6323242-0.4833984-1.1376953-0.4833984c-0.6079102,0-1.0874023,0.1938477-1.4379883,0.5810547
    c-0.3510742,0.3876953-0.5263672,0.9160156-0.5263672,1.5849609v3.8730469h-1.1318359V19.190918h1.1318359v1.0644531
    c0.269043-0.4116211,0.5864258-0.7197266,0.9516602-0.9238281c0.3647461-0.2036133,0.7861328-0.3056641,1.2631836-0.3056641
    c0.7875977,0,1.3833008,0.2436523,1.7871094,0.730957S98.0625,20.9614258,98.0625,21.9077148z"/>
  <path d="M102.9638672,19.0258789c0.9790039,0,1.7480469,0.3178711,2.3066406,0.9541016
    c0.559082,0.6367188,0.8383789,1.5175781,0.8383789,2.6435547c0,1.1220703-0.2792969,2.0019531-0.8383789,2.6401367
    c-0.5585938,0.6386719-1.3276367,0.9575195-2.3066406,0.9575195c-0.9829102,0-1.7529297-0.3188477-2.3095703-0.9575195
    c-0.5571289-0.6381836-0.8354492-1.5180664-0.8354492-2.6401367c0-1.1259766,0.2783203-2.0068359,0.8354492-2.6435547
    C101.2109375,19.34375,101.980957,19.0258789,102.9638672,19.0258789z M102.9638672,19.9799805
    c-0.6035156,0-1.0810547,0.2358398-1.4316406,0.7070312c-0.3510742,0.4711914-0.5263672,1.1166992-0.5263672,1.9365234
    s0.1743164,1.465332,0.5234375,1.9365234c0.3486328,0.4711914,0.8266602,0.7070312,1.4345703,0.7070312
    c0.5996094,0,1.074707-0.2368164,1.4257812-0.7099609c0.3505859-0.4731445,0.5263672-1.1176758,0.5263672-1.9335938
    c0-0.8115234-0.1757812-1.4550781-0.5263672-1.9306641C104.0385742,20.2177734,103.5634766,19.9799805,102.9638672,19.9799805z"/>
  <path d="M109.0883789,17.2451172v1.9458008h2.3193359v0.875h-2.3193359v3.7202148
    c0,0.559082,0.0766602,0.9179688,0.2294922,1.0766602c0.152832,0.1591797,0.4638672,0.2387695,0.9331055,0.2387695h1.1567383
    v0.9423828h-1.1567383c-0.8686523,0-1.4682617-0.1621094-1.7988281-0.4863281s-0.4956055-0.9150391-0.4956055-1.7714844V20.065918
    h-0.8261719v-0.875h0.8261719v-1.9458008H109.0883789z"/>
  <path d="M96.3369141,31.2431641c-0.1264648-0.0732422-0.2641602-0.1274414-0.4130859-0.1621094
    s-0.3129883-0.0517578-0.4921875-0.0517578c-0.6367188,0-1.125,0.2070312-1.4658203,0.6210938
    c-0.340332,0.4140625-0.5107422,1.0083008-0.5107422,1.7836914v3.6098633h-1.1318359V30.190918h1.1318359v1.0644531
    c0.2368164-0.4160156,0.5444336-0.7250977,0.9238281-0.9267578c0.3793945-0.2021484,0.840332-0.3027344,1.3828125-0.3027344
    c0.0776367,0,0.1630859,0.0048828,0.2573242,0.0151367c0.09375,0.0102539,0.1977539,0.0253906,0.3120117,0.0458984
    L96.3369141,31.2431641z"/>
  <path d="M103.1044922,33.3359375v0.5507812h-5.1767578c0.0488281,0.7749023,0.2822266,1.3652344,0.7006836,1.7714844
    c0.4179688,0.4057617,1.0004883,0.6088867,1.7470703,0.6088867c0.4321289,0,0.8510742-0.0532227,1.2573242-0.1591797
    c0.4057617-0.105957,0.8085938-0.2651367,1.2084961-0.4775391v1.0649414
    c-0.4038086,0.1713867-0.8178711,0.3017578-1.2421875,0.3916016c-0.4243164,0.0893555-0.8544922,0.1342773-1.2910156,0.1342773
    c-1.0932617,0-1.9589844-0.3178711-2.5976562-0.9541016c-0.6381836-0.6367188-0.9575195-1.4970703-0.9575195-2.5825195
    c0-1.121582,0.3027344-2.0117188,0.9086914-2.6708984c0.605957-0.6586914,1.4223633-0.987793,2.4506836-0.987793
    c0.921875,0,1.6508789,0.2963867,2.1875,0.8901367C102.8359375,31.5092773,103.1044922,32.3164062,103.1044922,33.3359375z
     M101.9785156,33.0053711c-0.0083008-0.6157227-0.1806641-1.1074219-0.5170898-1.4746094s-0.7822266-0.5507812-1.3369141-0.5507812
    c-0.628418,0-1.1313477,0.1777344-1.5083008,0.5327148c-0.3774414,0.3549805-0.5947266,0.8544922-0.6518555,1.4990234
    L101.9785156,33.0053711z"/>
  <path d="M106.0415039,36.0161133v3.6342773h-1.1318359V30.190918h1.1318359v1.0400391
    c0.2368164-0.4077148,0.5356445-0.7104492,0.8964844-0.9086914c0.3608398-0.1977539,0.7924805-0.2963867,1.2939453-0.2963867
    c0.8325195,0,1.5083008,0.3300781,2.0283203,0.9912109c0.5205078,0.6606445,0.7802734,1.5297852,0.7802734,2.6064453
    c0,1.0771484-0.2597656,1.9458008-0.7802734,2.6064453c-0.5200195,0.6611328-1.1958008,0.9912109-2.0283203,0.9912109
    c-0.5014648,0-0.9331055-0.0986328-1.2939453-0.2963867S106.2783203,36.4238281,106.0415039,36.0161133z M109.8720703,33.6235352
    c0-0.828125-0.1704102-1.4775391-0.5112305-1.9487305c-0.340332-0.4711914-0.8085938-0.7070312-1.4042969-0.7070312
    c-0.5952148,0-1.0634766,0.2358398-1.4042969,0.7070312c-0.340332,0.4711914-0.5107422,1.1206055-0.5107422,1.9487305
    s0.1704102,1.4775391,0.5107422,1.9487305c0.3408203,0.4711914,0.809082,0.7070312,1.4042969,0.7070312
    c0.5957031,0,1.0639648-0.2358398,1.4042969-0.7070312C109.7016602,35.1010742,109.8720703,34.4516602,109.8720703,33.6235352z"/>
  <path d="M112.9067383,27.5229492h1.1254883v9.5209961h-1.1254883V27.5229492z"/>
  <path d="M121.7485352,33.1342773v3.909668h-1.1259766v-1.0400391c-0.2568359,0.4160156-0.5771484,0.7231445-0.9604492,0.9208984
    c-0.3837891,0.1977539-0.8525391,0.2963867-1.4072266,0.2963867c-0.7016602,0-1.2597656-0.1967773-1.6738281-0.590332
    s-0.6210938-0.9208984-0.6210938-1.581543c0-0.7709961,0.2583008-1.3525391,0.7744141-1.7441406
    c0.515625-0.3916016,1.2856445-0.5874023,2.3095703-0.5874023h1.5786133v-0.1098633
    c0-0.5180664-0.1704102-0.9189453-0.5107422-1.2026367c-0.3408203-0.2832031-0.8188477-0.425293-1.4350586-0.425293
    c-0.3916016,0-0.7729492,0.0473633-1.144043,0.1411133s-0.7280273,0.234375-1.0708008,0.421875v-1.0400391
    c0.4121094-0.1591797,0.8115234-0.2783203,1.1992188-0.3579102s0.7646484-0.1191406,1.1318359-0.1191406
    c0.9912109,0,1.7319336,0.2568359,2.2211914,0.7709961C121.5039062,31.3105469,121.7485352,32.0898438,121.7485352,33.1342773z
     M119.5029297,33.5991211c-0.909668,0-1.5400391,0.1040039-1.890625,0.3120117
    c-0.3510742,0.2080078-0.5263672,0.5629883-0.5263672,1.0644531c0,0.3999023,0.1318359,0.7172852,0.3945312,0.9516602
    c0.2631836,0.2348633,0.6210938,0.3520508,1.0742188,0.3520508c0.6240234,0,1.1245117-0.2211914,1.5019531-0.6640625
    c0.3774414-0.4423828,0.565918-1.03125,0.565918-1.7651367v-0.2509766H119.5029297z"/>
  <path d="M128.9995117,30.4541016v1.0522461c-0.3183594-0.175293-0.6376953-0.3066406-0.9575195-0.3945312
    c-0.3203125-0.0878906-0.6435547-0.1318359-0.9702148-0.1318359c-0.7299805,0-1.296875,0.2319336-1.7006836,0.6948242
    s-0.605957,1.112793-0.605957,1.9487305c0,0.8364258,0.2021484,1.4858398,0.605957,1.9487305
    s0.9707031,0.6948242,1.7006836,0.6948242c0.3266602,0,0.6499023-0.0439453,0.9702148-0.1318359
    c0.3198242-0.0874023,0.6391602-0.2192383,0.9575195-0.3945312v1.0400391
    c-0.3144531,0.1469727-0.6396484,0.2568359-0.9760742,0.3305664c-0.3364258,0.0732422-0.6943359,0.1098633-1.0737305,0.1098633
    c-1.0322266,0-1.8520508-0.3242188-2.4599609-0.9726562s-0.9116211-1.5234375-0.9116211-2.625
    c0-1.1176758,0.3071289-1.996582,0.9208984-2.637207c0.6137695-0.6401367,1.4550781-0.9604492,2.5239258-0.9604492
    c0.3466797,0,0.6855469,0.0356445,1.015625,0.1069336C128.3691406,30.2041016,128.6894531,30.3110352,128.9995117,30.4541016z"/>
  <path d="M136.8193359,33.3359375v0.5507812h-5.1767578c0.0488281,0.7749023,0.2822266,1.3652344,0.7001953,1.7714844
    c0.4189453,0.4057617,1.0009766,0.6088867,1.7470703,0.6088867c0.4326172,0,0.8515625-0.0532227,1.2578125-0.1591797
    c0.4052734-0.105957,0.8085938-0.2651367,1.2080078-0.4775391v1.0649414
    c-0.4033203,0.1713867-0.8173828,0.3017578-1.2421875,0.3916016c-0.4238281,0.0893555-0.8544922,0.1342773-1.2910156,0.1342773
    c-1.0927734,0-1.9589844-0.3178711-2.5966797-0.9541016c-0.6386719-0.6367188-0.9580078-1.4970703-0.9580078-2.5825195
    c0-1.121582,0.3027344-2.0117188,0.9082031-2.6708984c0.6064453-0.6586914,1.4228516-0.987793,2.4511719-0.987793
    c0.921875,0,1.6513672,0.2963867,2.1875,0.8901367C136.5507812,31.5092773,136.8193359,32.3164062,136.8193359,33.3359375z
     M135.6933594,33.0053711c-0.0087891-0.6157227-0.1806641-1.1074219-0.5175781-1.4746094
    c-0.3359375-0.3671875-0.7822266-0.5507812-1.3369141-0.5507812c-0.6279297,0-1.1308594,0.1777344-1.5078125,0.5327148
    c-0.3779297,0.3549805-0.5947266,0.8544922-0.6513672,1.4990234L135.6933594,33.0053711z"/>
  <path d="M143.1767578,31.230957v-3.7080078h1.1259766v9.5209961h-1.1259766v-1.027832
    c-0.2363281,0.4077148-0.5351562,0.7109375-0.8964844,0.9086914s-0.7939453,0.2963867-1.2998047,0.2963867
    c-0.828125,0-1.5029297-0.3300781-2.0224609-0.9912109c-0.5205078-0.6606445-0.7802734-1.5292969-0.7802734-2.6064453
    c0-1.0766602,0.2597656-1.9458008,0.7802734-2.6064453c0.5195312-0.6611328,1.1943359-0.9912109,2.0224609-0.9912109
    c0.5058594,0,0.9384766,0.0986328,1.2998047,0.2963867C142.6416016,30.5205078,142.9404297,30.8232422,143.1767578,31.230957z
     M139.3398438,33.6235352c0,0.828125,0.1708984,1.4775391,0.5117188,1.9487305
    c0.3398438,0.4711914,0.8085938,0.7070312,1.4042969,0.7070312c0.5947266,0,1.0644531-0.2358398,1.4072266-0.7070312
    s0.5136719-1.1206055,0.5136719-1.9487305s-0.1708984-1.4775391-0.5136719-1.9487305s-0.8125-0.7070312-1.4072266-0.7070312
    c-0.5957031,0-1.0644531,0.2358398-1.4042969,0.7070312C139.5107422,32.1459961,139.3398438,32.7954102,139.3398438,33.6235352z"/>
</g>
<polygon class="st1" data-original-color="true" points="125.4805679,57.2213402 137.6894226,62.6738319 125.9353256,69.04776 124.522438,82.3439789
  114.8282623,73.1348267 101.7462006,75.8998489 107.5089569,63.8343506 100.8366852,52.2470131 114.0924454,53.9992752
  123.0508118,44.0728836 "/>
<g fill="cornflowerblue">
  <path d="M165.2441406,5.9091797h1.6650391l4.0507812,7.6420898V5.9091797h1.1992188v9.1352539h-1.6650391l-4.0507812-7.6425781
    v7.6425781h-1.1992188V5.9091797z"/>
  <path d="M177.2255859,8.0263672c0.9785156,0,1.7470703,0.3178711,2.3066406,0.9541016
    c0.5585938,0.6367188,0.8378906,1.5175781,0.8378906,2.6435547c0,1.1220703-0.2792969,2.0019531-0.8378906,2.6401367
    c-0.5595703,0.6386719-1.328125,0.9575195-2.3066406,0.9575195c-0.9833984,0-1.7539062-0.3188477-2.3105469-0.9575195
    c-0.5566406-0.6381836-0.8349609-1.5180664-0.8349609-2.6401367c0-1.1259766,0.2783203-2.0068359,0.8349609-2.6435547
    C175.4716797,8.3442383,176.2421875,8.0263672,177.2255859,8.0263672z M177.2255859,8.9804688
    c-0.6044922,0-1.0810547,0.2358398-1.4326172,0.7070312c-0.3505859,0.4711914-0.5253906,1.1166992-0.5253906,1.9365234
    s0.1738281,1.465332,0.5224609,1.9365234s0.8271484,0.7070312,1.4355469,0.7070312
    c0.5996094,0,1.0742188-0.2368164,1.4248047-0.7099609c0.3515625-0.4731445,0.5263672-1.1176758,0.5263672-1.9335938
    c0-0.8115234-0.1748047-1.4550781-0.5263672-1.9306641C178.2998047,9.2182617,177.8251953,8.9804688,177.2255859,8.9804688z"/>
  <path d="M187.3339844,6.2456055v1.9458008h2.3183594v0.875h-2.3183594v3.7202148
    c0,0.559082,0.0761719,0.9179688,0.2294922,1.0766602c0.1523438,0.1591797,0.4638672,0.2387695,0.9326172,0.2387695h1.15625
    v0.9423828h-1.15625c-0.8691406,0-1.46875-0.1621094-1.7988281-0.4863281s-0.4960938-0.9150391-0.4960938-1.7714844V9.0664062
    h-0.8251953v-0.875h0.8251953V6.2456055H187.3339844z"/>
  <path d="M195.1044922,9.2436523c-0.1269531-0.0732422-0.2646484-0.1274414-0.4130859-0.1621094
    c-0.1494141-0.034668-0.3134766-0.0517578-0.4931641-0.0517578c-0.6357422,0-1.125,0.2070312-1.4648438,0.6210938
    c-0.3408203,0.4140625-0.5107422,1.0083008-0.5107422,1.7836914v3.6098633h-1.1328125V8.1914062h1.1328125v1.0644531
    c0.2363281-0.4160156,0.5439453-0.7250977,0.9238281-0.9267578c0.3789062-0.2021484,0.8398438-0.3027344,1.3828125-0.3027344
    c0.0771484,0,0.1630859,0.0048828,0.2568359,0.0151367s0.1972656,0.0253906,0.3115234,0.0458984L195.1044922,9.2436523z"/>
  <path d="M201.6455078,11.1347656v3.909668h-1.1259766v-1.0400391c-0.2568359,0.4160156-0.5771484,0.7231445-0.9609375,0.9208984
    c-0.3828125,0.1977539-0.8525391,0.2963867-1.4072266,0.2963867c-0.7011719,0-1.2587891-0.1967773-1.6728516-0.590332
    s-0.6210938-0.9208984-0.6210938-1.581543c0-0.7709961,0.2578125-1.3525391,0.7734375-1.7441406
    c0.5166016-0.3916016,1.2861328-0.5874023,2.3105469-0.5874023h1.578125v-0.1098633
    c0-0.5180664-0.1699219-0.9189453-0.5107422-1.2026367c-0.3408203-0.2832031-0.8193359-0.425293-1.4345703-0.425293
    c-0.3916016,0-0.7734375,0.0473633-1.1445312,0.1411133s-0.7285156,0.234375-1.0712891,0.421875V8.503418
    c0.4121094-0.1591797,0.8125-0.2783203,1.2001953-0.3579102c0.3867188-0.0795898,0.7646484-0.1191406,1.1318359-0.1191406
    c0.9912109,0,1.7314453,0.2568359,2.2207031,0.7709961C201.4003906,9.3110352,201.6455078,10.090332,201.6455078,11.1347656z
     M199.3994141,11.5996094c-0.9091797,0-1.5390625,0.1040039-1.890625,0.3120117
    c-0.3505859,0.2080078-0.5253906,0.5629883-0.5253906,1.0644531c0,0.3999023,0.1308594,0.7172852,0.3945312,0.9516602
    c0.2626953,0.2348633,0.6210938,0.3520508,1.0732422,0.3520508c0.6240234,0,1.125-0.2211914,1.5029297-0.6640625
    c0.3769531-0.4423828,0.5654297-1.03125,0.5654297-1.7651367v-0.2509766H199.3994141z"/>
  <path d="M209.6611328,10.9082031v4.1362305h-1.1259766v-4.0996094c0-0.6484375-0.1269531-1.1337891-0.3798828-1.4560547
    s-0.6318359-0.4833984-1.1376953-0.4833984c-0.6083984,0-1.0869141,0.1938477-1.4384766,0.5810547
    c-0.3505859,0.3876953-0.5253906,0.9160156-0.5253906,1.5849609v3.8730469h-1.1328125V8.1914062h1.1328125v1.0644531
    c0.2685547-0.4116211,0.5859375-0.7197266,0.9511719-0.9238281c0.3652344-0.2036133,0.7861328-0.3056641,1.2636719-0.3056641
    c0.7871094,0,1.3828125,0.2436523,1.7861328,0.730957C209.4589844,9.2446289,209.6611328,9.9619141,209.6611328,10.9082031z"/>
  <path d="M216.2753906,8.3930664v1.0649414c-0.3183594-0.1630859-0.6484375-0.2856445-0.9912109-0.3671875
    s-0.6972656-0.1225586-1.0644531-0.1225586c-0.5595703,0-0.9785156,0.0859375-1.2578125,0.2573242
    s-0.4189453,0.4282227-0.4189453,0.7709961c0,0.2607422,0.0996094,0.4658203,0.2998047,0.6147461
    s0.6015625,0.2905273,1.2050781,0.425293l0.3857422,0.0854492c0.7998047,0.1713867,1.3671875,0.4130859,1.7041016,0.7250977
    c0.3369141,0.3125,0.5048828,0.7475586,0.5048828,1.3066406c0,0.6362305-0.2519531,1.1401367-0.7558594,1.5112305
    s-1.1962891,0.5566406-2.0771484,0.5566406c-0.3671875,0-0.75-0.0356445-1.1474609-0.1069336
    s-0.8164062-0.1782227-1.2578125-0.3212891v-1.1625977c0.4169922,0.2163086,0.8261719,0.378418,1.2304688,0.4868164
    c0.4033203,0.1079102,0.8037109,0.1621094,1.1992188,0.1621094c0.5302734,0,0.9384766-0.0908203,1.2236328-0.2724609
    s0.4287109-0.4375,0.4287109-0.7680664c0-0.3056641-0.1035156-0.5405273-0.3095703-0.7036133
    s-0.6572266-0.3203125-1.3554688-0.4711914l-0.3916016-0.0917969c-0.6972656-0.1464844-1.2011719-0.3720703-1.5107422-0.6757812
    c-0.3105469-0.3041992-0.4648438-0.7211914-0.4648438-1.2514648c0-0.6445312,0.2275391-1.1420898,0.6845703-1.4931641
    c0.4570312-0.3505859,1.1054688-0.5258789,1.9462891-0.5258789c0.4160156,0,0.8076172,0.0302734,1.1748047,0.0917969
    C215.6269531,8.1791992,215.9648438,8.2709961,216.2753906,8.3930664z"/>
  <path d="M221.9042969,5.5234375v0.9365234h-1.0771484c-0.4033203,0-0.6845703,0.081543-0.8408203,0.2446289
    C219.8291016,6.8676758,219.75,7.1616211,219.75,7.5854492v0.605957h1.8544922v0.875H219.75v5.9780273h-1.1318359V9.0664062
    h-1.0771484v-0.875h1.0771484V7.7143555c0-0.7631836,0.1777344-1.3188477,0.5322266-1.6674805
    c0.3554688-0.3491211,0.9179688-0.5234375,1.6894531-0.5234375H221.9042969z"/>
  <path d="M225.5029297,8.0263672c0.9785156,0,1.7470703,0.3178711,2.3066406,0.9541016
    c0.5585938,0.6367188,0.8378906,1.5175781,0.8378906,2.6435547c0,1.1220703-0.2792969,2.0019531-0.8378906,2.6401367
    c-0.5595703,0.6386719-1.328125,0.9575195-2.3066406,0.9575195c-0.9833984,0-1.7539062-0.3188477-2.3105469-0.9575195
    c-0.5566406-0.6381836-0.8349609-1.5180664-0.8349609-2.6401367c0-1.1259766,0.2783203-2.0068359,0.8349609-2.6435547
    C223.7490234,8.3442383,224.5195312,8.0263672,225.5029297,8.0263672z M225.5029297,8.9804688
    c-0.6044922,0-1.0810547,0.2358398-1.4326172,0.7070312c-0.3505859,0.4711914-0.5253906,1.1166992-0.5253906,1.9365234
    s0.1738281,1.465332,0.5224609,1.9365234s0.8271484,0.7070312,1.4355469,0.7070312
    c0.5996094,0,1.0742188-0.2368164,1.4248047-0.7099609c0.3515625-0.4731445,0.5263672-1.1176758,0.5263672-1.9335938
    c0-0.8115234-0.1748047-1.4550781-0.5263672-1.9306641C226.5771484,9.2182617,226.1025391,8.9804688,225.5029297,8.9804688z"/>
  <path d="M234.4853516,9.2436523c-0.1269531-0.0732422-0.2646484-0.1274414-0.4130859-0.1621094
    c-0.1494141-0.034668-0.3134766-0.0517578-0.4931641-0.0517578c-0.6357422,0-1.125,0.2070312-1.4648438,0.6210938
    c-0.3408203,0.4140625-0.5107422,1.0083008-0.5107422,1.7836914v3.6098633h-1.1328125V8.1914062h1.1328125v1.0644531
    c0.2363281-0.4160156,0.5439453-0.7250977,0.9238281-0.9267578c0.3789062-0.2021484,0.8398438-0.3027344,1.3828125-0.3027344
    c0.0771484,0,0.1630859,0.0048828,0.2568359,0.0151367s0.1972656,0.0253906,0.3115234,0.0458984L234.4853516,9.2436523z"/>
  <path d="M240.78125,9.5068359c0.28125-0.5058594,0.6181641-0.8789062,1.0097656-1.1196289s0.8525391-0.3608398,1.3828125-0.3608398
    c0.7138672,0,1.2646484,0.2495117,1.6513672,0.7495117c0.3876953,0.4995117,0.5820312,1.2104492,0.5820312,2.1323242v4.1362305
    h-1.1318359v-4.0996094c0-0.6567383-0.1162109-1.144043-0.3496094-1.4624023
    c-0.2324219-0.3183594-0.5869141-0.4770508-1.0644531-0.4770508c-0.5830078,0-1.0439453,0.1938477-1.3828125,0.5810547
    c-0.3388672,0.3876953-0.5078125,0.9160156-0.5078125,1.5849609v3.8730469h-1.1318359v-4.0996094
    c0-0.6606445-0.1162109-1.1494141-0.3486328-1.465332c-0.2324219-0.3164062-0.5917969-0.4741211-1.0771484-0.4741211
    c-0.5751953,0-1.0322266,0.1948242-1.3701172,0.5839844c-0.3388672,0.3896484-0.5078125,0.9169922-0.5078125,1.5820312v3.8730469
    h-1.1328125V8.1914062h1.1328125v1.0644531c0.2568359-0.4199219,0.5644531-0.7299805,0.9238281-0.9296875
    c0.3583984-0.2001953,0.7851562-0.2998047,1.2783203-0.2998047c0.4980469,0,0.9208984,0.1264648,1.2695312,0.3793945
    S240.6142578,9.0258789,240.78125,9.5068359z"/>
  <path d="M252.0214844,8.3930664v1.0649414c-0.3183594-0.1630859-0.6484375-0.2856445-0.9912109-0.3671875
    s-0.6972656-0.1225586-1.0644531-0.1225586c-0.5595703,0-0.9785156,0.0859375-1.2578125,0.2573242
    s-0.4189453,0.4282227-0.4189453,0.7709961c0,0.2607422,0.0996094,0.4658203,0.2998047,0.6147461
    s0.6015625,0.2905273,1.2050781,0.425293l0.3857422,0.0854492c0.7998047,0.1713867,1.3671875,0.4130859,1.7041016,0.7250977
    c0.3369141,0.3125,0.5048828,0.7475586,0.5048828,1.3066406c0,0.6362305-0.2519531,1.1401367-0.7558594,1.5112305
    s-1.1962891,0.5566406-2.0771484,0.5566406c-0.3671875,0-0.75-0.0356445-1.1474609-0.1069336
    s-0.8164062-0.1782227-1.2578125-0.3212891v-1.1625977c0.4169922,0.2163086,0.8261719,0.378418,1.2304688,0.4868164
    c0.4033203,0.1079102,0.8037109,0.1621094,1.1992188,0.1621094c0.5302734,0,0.9384766-0.0908203,1.2236328-0.2724609
    s0.4287109-0.4375,0.4287109-0.7680664c0-0.3056641-0.1035156-0.5405273-0.3095703-0.7036133
    s-0.6572266-0.3203125-1.3554688-0.4711914l-0.3916016-0.0917969c-0.6972656-0.1464844-1.2011719-0.3720703-1.5107422-0.6757812
    c-0.3105469-0.3041992-0.4648438-0.7211914-0.4648438-1.2514648c0-0.6445312,0.2275391-1.1420898,0.6845703-1.4931641
    c0.4570312-0.3505859,1.1054688-0.5258789,1.9462891-0.5258789c0.4160156,0,0.8076172,0.0302734,1.1748047,0.0917969
    C251.3730469,8.1791992,251.7109375,8.2709961,252.0214844,8.3930664z"/>
  <path d="M170.5556641,22.1347656v3.909668h-1.1259766v-1.0400391c-0.2568359,0.4160156-0.5771484,0.7231445-0.9609375,0.9208984
    c-0.3828125,0.1977539-0.8525391,0.2963867-1.4072266,0.2963867c-0.7011719,0-1.2587891-0.1967773-1.6728516-0.590332
    s-0.6210938-0.9208984-0.6210938-1.581543c0-0.7709961,0.2578125-1.3525391,0.7734375-1.7441406
    c0.5166016-0.3916016,1.2861328-0.5874023,2.3105469-0.5874023h1.578125v-0.1098633
    c0-0.5180664-0.1699219-0.9189453-0.5107422-1.2026367c-0.3408203-0.2832031-0.8193359-0.425293-1.4345703-0.425293
    c-0.3916016,0-0.7734375,0.0473633-1.1445312,0.1411133s-0.7285156,0.234375-1.0712891,0.421875V19.503418
    c0.4121094-0.1591797,0.8125-0.2783203,1.2001953-0.3579102c0.3867188-0.0795898,0.7646484-0.1191406,1.1318359-0.1191406
    c0.9912109,0,1.7314453,0.2568359,2.2207031,0.7709961C170.3105469,20.3110352,170.5556641,21.090332,170.5556641,22.1347656z
     M168.3095703,22.5996094c-0.9091797,0-1.5390625,0.1040039-1.890625,0.3120117
    c-0.3505859,0.2080078-0.5253906,0.5629883-0.5253906,1.0644531c0,0.3999023,0.1308594,0.7172852,0.3945312,0.9516602
    c0.2626953,0.2348633,0.6210938,0.3520508,1.0732422,0.3520508c0.6240234,0,1.125-0.2211914,1.5029297-0.6640625
    c0.3769531-0.4423828,0.5654297-1.03125,0.5654297-1.7651367v-0.2509766H168.3095703z"/>
  <path d="M173.9638672,25.0166016v3.6342773h-1.1328125v-9.4594727h1.1328125v1.0400391
    c0.2363281-0.4077148,0.5351562-0.7104492,0.8955078-0.9086914c0.3613281-0.1977539,0.7929688-0.2963867,1.2949219-0.2963867
    c0.8320312,0,1.5078125,0.3300781,2.0283203,0.9912109c0.5195312,0.6606445,0.7802734,1.5297852,0.7802734,2.6064453
    c0,1.0771484-0.2607422,1.9458008-0.7802734,2.6064453c-0.5205078,0.6611328-1.1962891,0.9912109-2.0283203,0.9912109
    c-0.5019531,0-0.9335938-0.0986328-1.2949219-0.2963867C174.4990234,25.7275391,174.2001953,25.4243164,173.9638672,25.0166016z
     M177.7939453,22.6240234c0-0.828125-0.1708984-1.4775391-0.5107422-1.9487305
    c-0.3408203-0.4711914-0.8085938-0.7070312-1.4042969-0.7070312s-1.0644531,0.2358398-1.4042969,0.7070312
    c-0.3408203,0.4711914-0.5107422,1.1206055-0.5107422,1.9487305s0.1699219,1.4775391,0.5107422,1.9487305
    c0.3398438,0.4711914,0.8085938,0.7070312,1.4042969,0.7070312s1.0634766-0.2358398,1.4042969-0.7070312
    C177.6230469,24.1015625,177.7939453,23.4521484,177.7939453,22.6240234z"/>
  <path d="M181.9189453,25.0166016v3.6342773h-1.1328125v-9.4594727h1.1328125v1.0400391
    c0.2363281-0.4077148,0.5351562-0.7104492,0.8955078-0.9086914c0.3613281-0.1977539,0.7929688-0.2963867,1.2949219-0.2963867
    c0.8320312,0,1.5078125,0.3300781,2.0283203,0.9912109c0.5195312,0.6606445,0.7802734,1.5297852,0.7802734,2.6064453
    c0,1.0771484-0.2607422,1.9458008-0.7802734,2.6064453c-0.5205078,0.6611328-1.1962891,0.9912109-2.0283203,0.9912109
    c-0.5019531,0-0.9335938-0.0986328-1.2949219-0.2963867C182.4541016,25.7275391,182.1552734,25.4243164,181.9189453,25.0166016z
     M185.7490234,22.6240234c0-0.828125-0.1708984-1.4775391-0.5107422-1.9487305
    c-0.3408203-0.4711914-0.8085938-0.7070312-1.4042969-0.7070312s-1.0644531,0.2358398-1.4042969,0.7070312
    c-0.3408203,0.4711914-0.5107422,1.1206055-0.5107422,1.9487305s0.1699219,1.4775391,0.5107422,1.9487305
    c0.3398438,0.4711914,0.8085938,0.7070312,1.4042969,0.7070312s1.0634766-0.2358398,1.4042969-0.7070312
    C185.578125,24.1015625,185.7490234,23.4521484,185.7490234,22.6240234z"/>
  <path d="M188.7832031,16.5234375h1.1259766v9.5209961h-1.1259766V16.5234375z"/>
  <path d="M192.2646484,16.5234375h1.1259766v1.4257812h-1.1259766V16.5234375z M192.2646484,19.1914062h1.1259766v6.8530273
    h-1.1259766V19.1914062z"/>
  <path d="M201.6083984,22.3364258v0.5507812h-5.1767578c0.0488281,0.7749023,0.2822266,1.3652344,0.7001953,1.7714844
    c0.4189453,0.4057617,1.0009766,0.6088867,1.7470703,0.6088867c0.4326172,0,0.8515625-0.0532227,1.2578125-0.1591797
    c0.4052734-0.105957,0.8085938-0.2651367,1.2080078-0.4775391v1.0649414
    c-0.4033203,0.1713867-0.8173828,0.3017578-1.2421875,0.3916016c-0.4238281,0.0893555-0.8544922,0.1342773-1.2910156,0.1342773
    c-1.0927734,0-1.9589844-0.3178711-2.5966797-0.9541016c-0.6386719-0.6367188-0.9580078-1.4970703-0.9580078-2.5825195
    c0-1.121582,0.3027344-2.0117188,0.9082031-2.6708984c0.6064453-0.6586914,1.4228516-0.987793,2.4511719-0.987793
    c0.921875,0,1.6513672,0.2963867,2.1875,0.8901367C201.3398438,20.5097656,201.6083984,21.3168945,201.6083984,22.3364258z
     M200.4824219,22.0058594c-0.0087891-0.6157227-0.1806641-1.1074219-0.5175781-1.4746094
    c-0.3359375-0.3671875-0.7822266-0.5507812-1.3369141-0.5507812c-0.6279297,0-1.1308594,0.1777344-1.5078125,0.5327148
    c-0.3779297,0.3549805-0.5947266,0.8544922-0.6513672,1.4990234L200.4824219,22.0058594z"/>
  <path d="M207.9658203,20.2314453v-3.7080078h1.1259766v9.5209961h-1.1259766v-1.027832
    c-0.2363281,0.4077148-0.5351562,0.7109375-0.8964844,0.9086914s-0.7939453,0.2963867-1.2998047,0.2963867
    c-0.828125,0-1.5029297-0.3300781-2.0224609-0.9912109c-0.5205078-0.6606445-0.7802734-1.5292969-0.7802734-2.6064453
    c0-1.0766602,0.2597656-1.9458008,0.7802734-2.6064453c0.5195312-0.6611328,1.1943359-0.9912109,2.0224609-0.9912109
    c0.5058594,0,0.9384766,0.0986328,1.2998047,0.2963867C207.4306641,19.5209961,207.7294922,19.8237305,207.9658203,20.2314453z
     M204.1289062,22.6240234c0,0.828125,0.1708984,1.4775391,0.5117188,1.9487305
    c0.3398438,0.4711914,0.8085938,0.7070312,1.4042969,0.7070312c0.5947266,0,1.0644531-0.2358398,1.4072266-0.7070312
    s0.5136719-1.1206055,0.5136719-1.9487305s-0.1708984-1.4775391-0.5136719-1.9487305s-0.8125-0.7070312-1.4072266-0.7070312
    c-0.5957031,0-1.0644531,0.2358398-1.4042969,0.7070312C204.2998047,21.1464844,204.1289062,21.7958984,204.1289062,22.6240234z"/>
</g>
<polygon class="st2" data-no-transforms="true" points="208.7782898,53.8139038 221.7731781,50.6645355 216.368515,62.8946304 223.3793793,74.2802963
  210.0777283,72.9194565 201.415802,83.1055527 198.5995941,70.0344086 186.2353668,64.9440994 197.7964935,58.226532
  198.8169098,44.8944473 "/>
<g fill="cornflowerblue">
  <path d="M7.6552734,108.0449219h1.59375l3.8789062,7.3183594v-7.3183594h1.1484375v8.7480469h-1.59375l-3.8789062-7.3183594
    v7.3183594H7.6552734V108.0449219z"/>
  <path d="M19.1279297,110.0722656c0.9375,0,1.6738281,0.3046875,2.2089844,0.9140625s0.8027344,1.453125,0.8027344,2.53125
    c0,1.0742188-0.2675781,1.9169922-0.8027344,2.5283203s-1.2714844,0.9169922-2.2089844,0.9169922
    c-0.9414062,0-1.6787109-0.3056641-2.2119141-0.9169922s-0.7998047-1.4541016-0.7998047-2.5283203
    c0-1.078125,0.2666016-1.921875,0.7998047-2.53125S18.1865234,110.0722656,19.1279297,110.0722656z M19.1279297,110.9863281
    c-0.578125,0-1.0351562,0.2255859-1.3710938,0.6767578s-0.5039062,1.0693359-0.5039062,1.8544922
    s0.1669922,1.4033203,0.5009766,1.8544922s0.7919922,0.6767578,1.3740234,0.6767578
    c0.5742188,0,1.0292969-0.2265625,1.3652344-0.6796875s0.5039062-1.0703125,0.5039062-1.8515625
    c0-0.7773438-0.1679688-1.3935547-0.5039062-1.8486328S19.7021484,110.9863281,19.1279297,110.9863281z"/>
  <path d="M27.7294922,111.2382812c-0.1210938-0.0703125-0.2529297-0.1220703-0.3955078-0.1552734
    s-0.2998047-0.0498047-0.4716797-0.0498047c-0.609375,0-1.0771484,0.1982422-1.4033203,0.5947266
    s-0.4892578,0.9658203-0.4892578,1.7080078v3.4570312h-1.0839844v-6.5625h1.0839844V111.25
    c0.2265625-0.3984375,0.5214844-0.6943359,0.8847656-0.8876953s0.8046875-0.2900391,1.3242188-0.2900391
    c0.0742188,0,0.15625,0.0048828,0.2460938,0.0146484s0.1894531,0.0244141,0.2988281,0.0439453L27.7294922,111.2382812z"/>
  <path d="M33.7587891,111.4902344c0.2695312-0.484375,0.5917969-0.8417969,0.9667969-1.0722656
    s0.8164062-0.3457031,1.3242188-0.3457031c0.6835938,0,1.2109375,0.2392578,1.5820312,0.7177734
    s0.5566406,1.1591797,0.5566406,2.0419922v3.9609375h-1.0839844v-3.9257812c0-0.6289062-0.1113281-1.0957031-0.3339844-1.4003906
    s-0.5625-0.4570312-1.0195312-0.4570312c-0.5585938,0-1,0.1855469-1.3242188,0.5566406s-0.4863281,0.8769531-0.4863281,1.5175781
    v3.7089844h-1.0839844v-3.9257812c0-0.6328125-0.1113281-1.1005859-0.3339844-1.4033203s-0.5664062-0.4541016-1.03125-0.4541016
    c-0.5507812,0-0.9882812,0.1865234-1.3125,0.5595703s-0.4863281,0.8779297-0.4863281,1.5146484v3.7089844h-1.0839844v-6.5625
    h1.0839844V111.25c0.2460938-0.4023438,0.5410156-0.6992188,0.8847656-0.890625s0.7519531-0.2871094,1.2246094-0.2871094
    c0.4765625,0,0.8818359,0.1210938,1.2158203,0.3632812S33.5986328,111.0292969,33.7587891,111.4902344z"/>
  <path d="M45.4716797,113.0488281v3.7441406h-1.078125v-0.9960938c-0.2460938,0.3984375-0.5527344,0.6923828-0.9199219,0.8818359
    s-0.8164062,0.2841797-1.3476562,0.2841797c-0.671875,0-1.2060547-0.1884766-1.6025391-0.5654297
    s-0.5947266-0.8818359-0.5947266-1.5146484c0-0.7382812,0.2470703-1.2949219,0.7412109-1.6699219
    s1.2314453-0.5625,2.2119141-0.5625h1.5117188v-0.1054688c0-0.4960938-0.1630859-0.8798828-0.4892578-1.1513672
    s-0.7841797-0.4072266-1.3740234-0.4072266c-0.375,0-0.7402344,0.0449219-1.0957031,0.1347656
    s-0.6972656,0.2246094-1.0253906,0.4042969v-0.9960938c0.3945312-0.1523438,0.7773438-0.2666016,1.1484375-0.3427734
    s0.7324219-0.1142578,1.0839844-0.1142578c0.9492188,0,1.6582031,0.2460938,2.1269531,0.7382812
    S45.4716797,112.0488281,45.4716797,113.0488281z M43.3212891,113.4941406c-0.8710938,0-1.4746094,0.0996094-1.8105469,0.2988281
    s-0.5039062,0.5390625-0.5039062,1.0195312c0,0.3828125,0.1259766,0.6865234,0.3779297,0.9111328
    s0.5947266,0.3369141,1.0283203,0.3369141c0.5976562,0,1.0771484-0.2119141,1.4384766-0.6357422
    s0.5419922-0.9873047,0.5419922-1.6904297v-0.2402344H43.3212891z"/>
  <path d="M47.6923828,107.6757812h1.078125v9.1171875h-1.078125V107.6757812z"/>
  <path d="M59.0244141,110.4238281v1.0195312c-0.3046875-0.15625-0.6210938-0.2734375-0.9492188-0.3515625
    s-0.6679688-0.1171875-1.0195312-0.1171875c-0.5351562,0-0.9365234,0.0820312-1.2041016,0.2460938
    s-0.4013672,0.4101562-0.4013672,0.7382812c0,0.25,0.0957031,0.4462891,0.2871094,0.5888672
    s0.5761719,0.2783203,1.1542969,0.4072266l0.3691406,0.0820312c0.765625,0.1640625,1.3095703,0.3955078,1.6318359,0.6943359
    s0.4833984,0.7158203,0.4833984,1.2509766c0,0.609375-0.2412109,1.0917969-0.7236328,1.4472656
    s-1.1455078,0.5332031-1.9892578,0.5332031c-0.3515625,0-0.7177734-0.0341797-1.0986328-0.1025391
    s-0.7822266-0.1708984-1.2041016-0.3076172v-1.1132812c0.3984375,0.2070312,0.7910156,0.3623047,1.1777344,0.4658203
    s0.7695312,0.1552734,1.1484375,0.1552734c0.5078125,0,0.8984375-0.0869141,1.171875-0.2607422
    s0.4101562-0.4189453,0.4101562-0.7353516c0-0.2929688-0.0986328-0.5175781-0.2958984-0.6738281
    s-0.6298828-0.3066406-1.2978516-0.4511719l-0.375-0.0878906c-0.6679688-0.140625-1.1503906-0.3564453-1.4472656-0.6474609
    s-0.4453125-0.6904297-0.4453125-1.1982422c0-0.6171875,0.21875-1.09375,0.65625-1.4296875
    s1.0585938-0.5039062,1.8632812-0.5039062c0.3984375,0,0.7734375,0.0292969,1.125,0.0878906
    S58.7275391,110.3066406,59.0244141,110.4238281z"/>
  <path d="M62.1591797,108.3671875v1.8632812h2.2207031v0.8378906h-2.2207031v3.5625
    c0,0.5351562,0.0732422,0.8789062,0.2197266,1.03125s0.4443359,0.2285156,0.8935547,0.2285156h1.1074219v0.9023438h-1.1074219
    c-0.8320312,0-1.40625-0.1552734-1.7226562-0.4658203s-0.4746094-0.8759766-0.4746094-1.6962891v-3.5625h-0.7910156v-0.8378906
    h0.7910156v-1.8632812H62.1591797z"/>
  <path d="M70.9306641,113.0488281v3.7441406h-1.078125v-0.9960938c-0.2460938,0.3984375-0.5527344,0.6923828-0.9199219,0.8818359
    s-0.8164062,0.2841797-1.3476562,0.2841797c-0.671875,0-1.2060547-0.1884766-1.6025391-0.5654297
    s-0.5947266-0.8818359-0.5947266-1.5146484c0-0.7382812,0.2470703-1.2949219,0.7412109-1.6699219
    s1.2314453-0.5625,2.2119141-0.5625h1.5117188v-0.1054688c0-0.4960938-0.1630859-0.8798828-0.4892578-1.1513672
    s-0.7841797-0.4072266-1.3740234-0.4072266c-0.375,0-0.7402344,0.0449219-1.0957031,0.1347656
    s-0.6972656,0.2246094-1.0253906,0.4042969v-0.9960938c0.3945312-0.1523438,0.7773438-0.2666016,1.1484375-0.3427734
    s0.7324219-0.1142578,1.0839844-0.1142578c0.9492188,0,1.6582031,0.2460938,2.1269531,0.7382812
    S70.9306641,112.0488281,70.9306641,113.0488281z M68.7802734,113.4941406c-0.8710938,0-1.4746094,0.0996094-1.8105469,0.2988281
    s-0.5039062,0.5390625-0.5039062,1.0195312c0,0.3828125,0.1259766,0.6865234,0.3779297,0.9111328
    s0.5947266,0.3369141,1.0283203,0.3369141c0.5976562,0,1.0771484-0.2119141,1.4384766-0.6357422
    s0.5419922-0.9873047,0.5419922-1.6904297v-0.2402344H68.7802734z"/>
  <path d="M76.9541016,111.2382812c-0.1210938-0.0703125-0.2529297-0.1220703-0.3955078-0.1552734
    s-0.2998047-0.0498047-0.4716797-0.0498047c-0.609375,0-1.0771484,0.1982422-1.4033203,0.5947266
    s-0.4892578,0.9658203-0.4892578,1.7080078v3.4570312h-1.0839844v-6.5625h1.0839844V111.25
    c0.2265625-0.3984375,0.5214844-0.6943359,0.8847656-0.8876953s0.8046875-0.2900391,1.3242188-0.2900391
    c0.0742188,0,0.15625,0.0048828,0.2460938,0.0146484s0.1894531,0.0244141,0.2988281,0.0439453L76.9541016,111.2382812z"/>
  <path d="M82.2685547,110.4238281v1.0195312c-0.3046875-0.15625-0.6210938-0.2734375-0.9492188-0.3515625
    s-0.6679688-0.1171875-1.0195312-0.1171875c-0.5351562,0-0.9365234,0.0820312-1.2041016,0.2460938
    s-0.4013672,0.4101562-0.4013672,0.7382812c0,0.25,0.0957031,0.4462891,0.2871094,0.5888672
    s0.5761719,0.2783203,1.1542969,0.4072266l0.3691406,0.0820312c0.765625,0.1640625,1.3095703,0.3955078,1.6318359,0.6943359
    s0.4833984,0.7158203,0.4833984,1.2509766c0,0.609375-0.2412109,1.0917969-0.7236328,1.4472656
    s-1.1455078,0.5332031-1.9892578,0.5332031c-0.3515625,0-0.7177734-0.0341797-1.0986328-0.1025391
    s-0.7822266-0.1708984-1.2041016-0.3076172v-1.1132812c0.3984375,0.2070312,0.7910156,0.3623047,1.1777344,0.4658203
    s0.7695312,0.1552734,1.1484375,0.1552734c0.5078125,0,0.8984375-0.0869141,1.171875-0.2607422
    s0.4101562-0.4189453,0.4101562-0.7353516c0-0.2929688-0.0986328-0.5175781-0.2958984-0.6738281
    s-0.6298828-0.3066406-1.2978516-0.4511719l-0.375-0.0878906c-0.6679688-0.140625-1.1503906-0.3564453-1.4472656-0.6474609
    s-0.4453125-0.6904297-0.4453125-1.1982422c0-0.6171875,0.21875-1.09375,0.65625-1.4296875
    s1.0585938-0.5039062,1.8632812-0.5039062c0.3984375,0,0.7734375,0.0292969,1.125,0.0878906
    S81.9716797,110.3066406,82.2685547,110.4238281z"/>
  <path d="M84.6123047,110.5878906h1.2363281v1.4882812h-1.2363281V110.5878906z M84.6123047,115.3046875h1.2363281v1.4882812
    h-1.2363281V115.3046875z"/>
</g>
<polygon class="st3" points="98.5002823,109.6464844 103.3317642,108.460022 101.3346405,113.0166016 103.9560318,117.2449722
  99.0053253,116.7536545 95.7939606,120.5533905 94.7313843,115.693161 90.1252518,113.8131485 94.4192429,111.3006897
  94.7838669,106.3390427 "/>
<polygon class="st4" points="119.2624969,110.1646805 124.2278519,110.4747009 120.9615021,114.227272 122.2010345,119.0454102
  117.6227646,117.098526 113.4234848,119.7662811 113.8603134,114.8104706 110.0254822,111.641098 114.8737259,110.525116
  116.7029495,105.8985825 "/>
<polygon class="st3" points="140.7761841,110.6785049 145.0945435,113.1488495 140.507019,115.073822 139.4920197,119.9442062
  136.2436523,116.1760635 131.2979889,116.7157822 133.8778992,112.4619675 131.8363037,107.9251404 136.6791534,109.0642853
  140.3630371,105.7206573 "/>
<polygon class="st4" points="157.1279755,109.5864944 161.0488434,106.5241928 161.0945282,111.4990158 165.2185669,114.2816772
  160.5013428,115.8624268 159.1292725,120.6445084 156.1681824,116.6466446 151.196167,116.8194656 154.0833282,112.7679062
  152.3825378,108.0926361 "/>
<polygon class="st3" points="179.6952209,110.0482483 184.5267029,108.8617935 182.5295715,113.4183655 185.1509705,117.6467438
  180.2002716,117.155426 176.9888916,120.9551544 175.9263153,116.0949326 171.3201904,114.21492 175.6141815,111.7024536
  175.9788055,106.7408142 "/>
<polygon class="st4" points="200.4574432,110.566452 205.4227905,110.8764725 202.1564331,114.6290436 203.3959656,119.4471741
  198.8177032,117.5002975 194.6184235,120.1680527 195.0552521,115.2122421 191.2204132,112.0428619 196.0686646,110.9268875
  197.8978882,106.300354 "/>
<polygon class="st3" points="221.9711151,111.0802689 226.2894745,113.5506134 221.7019501,115.4755859 220.6869659,120.3459778
  217.4385834,116.5778275 212.4929199,117.1175461 215.0728302,112.8637314 213.0312347,108.3269119 217.8740997,109.4660568
  221.5579834,106.1224289 "/>
<polygon class="st4" points="238.3229218,109.9882584 242.2437897,106.9259644 242.2894745,111.9007797 246.4134979,114.6834488
  241.6962891,116.2641983 240.3242035,121.0462723 237.3631287,117.0484161 232.391098,117.2212372 235.2782745,113.1696777
  233.5774689,108.4944077 "/>
</svg>