<?xml version="1.0" encoding="utf-8"?>
<!-- Generator: Adobe Illustrator 26.0.3, SVG Export Plug-In . SVG Version: 6.00 Build 0)  -->
<svg version="1.1" id="Layer_1" xmlns="http://www.w3.org/2000/svg" xmlns:xlink="http://www.w3.org/1999/xlink" x="0px" y="0px"
	 viewBox="0 0 256 52" style="enable-background:new 0 0 256 52;" xml:space="preserve">
<style type="text/css">
	.st0{fill:none;stroke:#000000;stroke-miterlimit:10;}
	.st1{enable-background:new    ;}
	.st2{fill:none;stroke:#000000;stroke-width:2;stroke-miterlimit:10;}
	.st3{fill:none;stroke:#000000;stroke-width:3;stroke-miterlimit:10;}
	.st4{fill:none;stroke:#000000;stroke-width:4;stroke-miterlimit:10;}
	.st5{fill:none;stroke:#000000;stroke-width:5;stroke-miterlimit:10;}
	.st6{fill:none;stroke:#000000;stroke-width:6;stroke-miterlimit:10;}
	.st7{fill:none;stroke:#000000;stroke-width:7;stroke-miterlimit:10;}
	.st8{fill:none;stroke:#000000;stroke-width:8;stroke-miterlimit:10;}
</style>
<g>
	<g>
		<rect x="9.8" y="7.3" class="st0" width="16" height="16"/>
		<g class="st1">
			<path d="M8.1,41.2H10v-6.7l-2.1,0.4v-1.1l2.1-0.4h1.2v7.8h1.9v1h-5V41.2z"/>
			<path d="M16.4,41.2v3.5h-1.1v-9.1h1.1v1c0.2-0.4,0.5-0.7,0.9-0.9s0.8-0.3,1.2-0.3c0.8,0,1.4,0.3,1.9,0.9s0.7,1.5,0.7,2.5
				s-0.2,1.9-0.7,2.5s-1.1,0.9-1.9,0.9c-0.5,0-0.9-0.1-1.2-0.3S16.6,41.6,16.4,41.2z M20.1,38.9c0-0.8-0.2-1.4-0.5-1.9
				s-0.8-0.7-1.3-0.7s-1,0.2-1.3,0.7s-0.5,1.1-0.5,1.9s0.2,1.4,0.5,1.9s0.8,0.7,1.3,0.7s1-0.2,1.3-0.7S20.1,39.7,20.1,38.9z"/>
			<path d="M28.4,35.6l-2.4,3.2l2.5,3.4h-1.3l-1.9-2.6l-1.9,2.6h-1.3l2.5-3.4l-2.3-3.1h1.3l1.7,2.3l1.7-2.3H28.4z"/>
		</g>
	</g>
	<g>
		<rect x="40.8" y="7.3" class="st2" width="16" height="16"/>
		<g class="st1">
			<path d="M39.9,41.2h4.1v1h-5.6v-1c0.4-0.5,1.1-1.1,1.8-1.9s1.3-1.3,1.5-1.5c0.4-0.4,0.6-0.8,0.8-1.1s0.2-0.6,0.2-0.9
				c0-0.5-0.2-0.8-0.5-1.1s-0.8-0.4-1.3-0.4c-0.4,0-0.8,0.1-1.2,0.2s-0.9,0.3-1.3,0.6v-1.2c0.5-0.2,0.9-0.3,1.3-0.4s0.8-0.1,1.1-0.1
				c0.9,0,1.6,0.2,2.2,0.7S44,35,44,35.8c0,0.4-0.1,0.7-0.2,1s-0.4,0.7-0.7,1.1c-0.1,0.1-0.4,0.4-0.9,1S40.9,40.2,39.9,41.2z"/>
			<path d="M47.4,41.2v3.5h-1.1v-9.1h1.1v1c0.2-0.4,0.5-0.7,0.9-0.9s0.8-0.3,1.2-0.3c0.8,0,1.4,0.3,1.9,0.9s0.7,1.5,0.7,2.5
				s-0.2,1.9-0.7,2.5s-1.1,0.9-1.9,0.9c-0.5,0-0.9-0.1-1.2-0.3S47.7,41.6,47.4,41.2z M51.1,38.9c0-0.8-0.2-1.4-0.5-1.9
				s-0.8-0.7-1.3-0.7s-1,0.2-1.3,0.7s-0.5,1.1-0.5,1.9s0.2,1.4,0.5,1.9s0.8,0.7,1.3,0.7s1-0.2,1.3-0.7S51.1,39.7,51.1,38.9z"/>
			<path d="M59.5,35.6l-2.4,3.2l2.5,3.4h-1.3l-1.9-2.6l-1.9,2.6h-1.3l2.5-3.4l-2.3-3.1h1.3l1.7,2.3l1.7-2.3H59.5z"/>
		</g>
	</g>
	<g>
		<rect x="71.5" y="7.3" class="st3" width="16" height="16"/>
		<g class="st1">
			<path d="M73.5,37.5c0.6,0.1,1,0.4,1.3,0.8s0.5,0.9,0.5,1.4c0,0.9-0.3,1.5-0.9,2s-1.4,0.7-2.5,0.7c-0.4,0-0.7,0-1.1-0.1
				s-0.8-0.2-1.2-0.3v-1.1c0.3,0.2,0.7,0.3,1.1,0.4s0.8,0.1,1.2,0.1c0.7,0,1.3-0.1,1.7-0.4s0.6-0.7,0.6-1.3c0-0.5-0.2-0.9-0.5-1.2
				S72.7,38,72.1,38h-1v-1h1.1c0.6,0,1-0.1,1.3-0.3s0.5-0.6,0.5-1c0-0.4-0.2-0.8-0.5-1s-0.8-0.4-1.4-0.4c-0.3,0-0.7,0-1,0.1
				s-0.8,0.2-1.2,0.3v-1.1c0.4-0.1,0.9-0.2,1.3-0.3s0.8-0.1,1.1-0.1c0.9,0,1.6,0.2,2.1,0.6s0.8,1,0.8,1.7c0,0.5-0.1,0.9-0.4,1.2
				S74,37.3,73.5,37.5z"/>
			<path d="M78.4,41.2v3.5h-1.1v-9.1h1.1v1c0.2-0.4,0.5-0.7,0.9-0.9s0.8-0.3,1.2-0.3c0.8,0,1.4,0.3,1.9,0.9s0.7,1.5,0.7,2.5
				s-0.2,1.9-0.7,2.5s-1.1,0.9-1.9,0.9c-0.5,0-0.9-0.1-1.2-0.3S78.7,41.6,78.4,41.2z M82.1,38.9c0-0.8-0.2-1.4-0.5-1.9
				s-0.8-0.7-1.3-0.7s-1,0.2-1.3,0.7s-0.5,1.1-0.5,1.9s0.2,1.4,0.5,1.9s0.8,0.7,1.3,0.7s1-0.2,1.3-0.7S82.1,39.7,82.1,38.9z"/>
			<path d="M90.5,35.6l-2.4,3.2l2.5,3.4h-1.3l-1.9-2.6l-1.9,2.6h-1.3l2.5-3.4l-2.3-3.1h1.3l1.7,2.3l1.7-2.3H90.5z"/>
		</g>
	</g>
	<g>
		<rect x="102.8" y="7.3" class="st4" width="16" height="16"/>
		<g class="st1">
			<path d="M103.9,33.4h1.5v5.7h1.2v1h-1.2v2.1h-1.2v-2.1h-3.9V39L103.9,33.4z M104.2,34.5l-3,4.7h3V34.5z"/>
			<path d="M109.5,41.2v3.5h-1.1v-9.1h1.1v1c0.2-0.4,0.5-0.7,0.9-0.9s0.8-0.3,1.2-0.3c0.8,0,1.4,0.3,1.9,0.9s0.7,1.5,0.7,2.5
				s-0.2,1.9-0.7,2.5s-1.1,0.9-1.9,0.9c-0.5,0-0.9-0.1-1.2-0.3S109.7,41.6,109.5,41.2z M113.1,38.9c0-0.8-0.2-1.4-0.5-1.9
				s-0.8-0.7-1.3-0.7s-1,0.2-1.3,0.7s-0.5,1.1-0.5,1.9s0.2,1.4,0.5,1.9s0.8,0.7,1.3,0.7s1-0.2,1.3-0.7S113.1,39.7,113.1,38.9z"/>
			<path d="M121.5,35.6l-2.4,3.2l2.5,3.4h-1.3l-1.9-2.6l-1.9,2.6h-1.3l2.5-3.4l-2.3-3.1h1.3l1.7,2.3l1.7-2.3H121.5z"/>
		</g>
	</g>
	<g>
		<rect x="133.8" y="7.3" class="st5" width="16" height="16"/>
		<g class="st1">
			<path d="M132,33.4h4.6v1H133v2.1c0.2-0.1,0.3-0.1,0.5-0.1s0.3,0,0.5,0c1,0,1.8,0.3,2.3,0.8s0.9,1.3,0.9,2.2
				c0,0.9-0.3,1.7-0.9,2.2s-1.4,0.8-2.5,0.8c-0.4,0-0.7,0-1.1-0.1s-0.8-0.2-1.2-0.3v-1.2c0.4,0.2,0.7,0.3,1.1,0.4s0.8,0.1,1.2,0.1
				c0.7,0,1.2-0.2,1.6-0.5s0.6-0.8,0.6-1.4s-0.2-1.1-0.6-1.4s-0.9-0.5-1.6-0.5c-0.3,0-0.6,0-0.9,0.1s-0.6,0.2-1,0.3V33.4z"/>
			<path d="M140.5,41.2v3.5h-1.1v-9.1h1.1v1c0.2-0.4,0.5-0.7,0.9-0.9s0.8-0.3,1.2-0.3c0.8,0,1.4,0.3,1.9,0.9s0.7,1.5,0.7,2.5
				s-0.2,1.9-0.7,2.5s-1.1,0.9-1.9,0.9c-0.5,0-0.9-0.1-1.2-0.3S140.7,41.6,140.5,41.2z M144.1,38.9c0-0.8-0.2-1.4-0.5-1.9
				s-0.8-0.7-1.3-0.7s-1,0.2-1.3,0.7s-0.5,1.1-0.5,1.9s0.2,1.4,0.5,1.9s0.8,0.7,1.3,0.7s1-0.2,1.3-0.7S144.1,39.7,144.1,38.9z"/>
			<path d="M152.5,35.6l-2.4,3.2l2.5,3.4h-1.3l-1.9-2.6l-1.9,2.6h-1.3l2.5-3.4l-2.3-3.1h1.3l1.7,2.3l1.7-2.3H152.5z"/>
		</g>
	</g>
	<g>
		<rect x="164.9" y="7.3" class="st6" width="16" height="16"/>
		<g class="st1">
			<path d="M168,33.6v1.1c-0.3-0.1-0.6-0.2-0.9-0.3s-0.6-0.1-0.9-0.1c-0.8,0-1.4,0.3-1.8,0.8s-0.6,1.3-0.7,2.4
				c0.2-0.3,0.5-0.6,0.9-0.8s0.7-0.3,1.1-0.3c0.9,0,1.6,0.3,2.1,0.8s0.8,1.3,0.8,2.2c0,0.9-0.3,1.6-0.8,2.2s-1.2,0.8-2.1,0.8
				c-1,0-1.8-0.4-2.3-1.2s-0.8-1.9-0.8-3.4c0-1.4,0.3-2.5,1-3.3s1.5-1.2,2.6-1.2c0.3,0,0.6,0,0.9,0.1S167.7,33.5,168,33.6z
				 M165.6,37.3c-0.5,0-1,0.2-1.3,0.5s-0.5,0.9-0.5,1.5c0,0.6,0.2,1.1,0.5,1.5s0.7,0.5,1.3,0.5s1-0.2,1.3-0.5s0.5-0.9,0.5-1.5
				c0-0.6-0.2-1.1-0.5-1.5S166.2,37.3,165.6,37.3z"/>
			<path d="M171.5,41.2v3.5h-1.1v-9.1h1.1v1c0.2-0.4,0.5-0.7,0.9-0.9s0.8-0.3,1.2-0.3c0.8,0,1.4,0.3,1.9,0.9s0.7,1.5,0.7,2.5
				s-0.2,1.9-0.7,2.5s-1.1,0.9-1.9,0.9c-0.5,0-0.9-0.1-1.2-0.3S171.7,41.6,171.5,41.2z M175.2,38.9c0-0.8-0.2-1.4-0.5-1.9
				s-0.8-0.7-1.3-0.7s-1,0.2-1.3,0.7s-0.5,1.1-0.5,1.9s0.2,1.4,0.5,1.9s0.8,0.7,1.3,0.7s1-0.2,1.3-0.7S175.2,39.7,175.2,38.9z"/>
			<path d="M183.5,35.6l-2.4,3.2l2.5,3.4h-1.3l-1.9-2.6l-1.9,2.6h-1.3l2.5-3.4l-2.3-3.1h1.3l1.7,2.3l1.7-2.3H183.5z"/>
		</g>
	</g>
	<g>
		<rect x="195.9" y="7.3" class="st7" width="16" height="16"/>
		<g class="st1">
			<path d="M193.7,33.4h5.6v0.5l-3.2,8.2h-1.2l3-7.8h-4.2V33.4z"/>
			<path d="M202.5,41.2v3.5h-1.1v-9.1h1.1v1c0.2-0.4,0.5-0.7,0.9-0.9s0.8-0.3,1.2-0.3c0.8,0,1.4,0.3,1.9,0.9s0.7,1.5,0.7,2.5
				s-0.2,1.9-0.7,2.5s-1.1,0.9-1.9,0.9c-0.5,0-0.9-0.1-1.2-0.3S202.7,41.6,202.5,41.2z M206.2,38.9c0-0.8-0.2-1.4-0.5-1.9
				s-0.8-0.7-1.3-0.7s-1,0.2-1.3,0.7s-0.5,1.1-0.5,1.9s0.2,1.4,0.5,1.9s0.8,0.7,1.3,0.7s1-0.2,1.3-0.7S206.2,39.7,206.2,38.9z"/>
			<path d="M214.5,35.6l-2.4,3.2l2.5,3.4h-1.3l-1.9-2.6l-1.9,2.6h-1.3l2.5-3.4l-2.3-3.1h1.3l1.7,2.3l1.7-2.3H214.5z"/>
		</g>
	</g>
	<g>
		<rect x="226.9" y="7.6" class="st8" width="16" height="16"/>
		<g class="st1">
			<path d="M226.3,37.2c-0.5-0.1-0.9-0.4-1.2-0.7s-0.4-0.8-0.4-1.3c0-0.7,0.2-1.3,0.7-1.7s1.2-0.6,2-0.6c0.9,0,1.6,0.2,2.1,0.6
				s0.7,1,0.7,1.7c0,0.5-0.1,0.9-0.4,1.3s-0.7,0.6-1.2,0.7c0.6,0.1,1,0.4,1.3,0.8s0.5,0.9,0.5,1.4c0,0.8-0.3,1.5-0.8,2
				s-1.3,0.7-2.2,0.7s-1.7-0.2-2.2-0.7s-0.8-1.1-0.8-2c0-0.6,0.2-1,0.5-1.4S225.8,37.3,226.3,37.2z M227.5,37.7
				c-0.6,0-1,0.2-1.3,0.5s-0.5,0.7-0.5,1.2s0.2,0.9,0.5,1.2s0.8,0.5,1.3,0.5s1-0.2,1.3-0.5s0.5-0.7,0.5-1.2c0-0.5-0.2-0.9-0.5-1.2
				S228.1,37.7,227.5,37.7z M225.9,35.3c0,0.5,0.1,0.8,0.4,1.1s0.7,0.4,1.2,0.4c0.5,0,0.9-0.1,1.2-0.4s0.4-0.6,0.4-1.1
				s-0.1-0.8-0.4-1.1s-0.7-0.4-1.2-0.4c-0.5,0-0.9,0.1-1.2,0.4S225.9,34.9,225.9,35.3z"/>
			<path d="M233.5,40.9v3.5h-1.1v-9.1h1.1v1c0.2-0.4,0.5-0.7,0.9-0.9s0.8-0.3,1.2-0.3c0.8,0,1.4,0.3,1.9,0.9s0.7,1.5,0.7,2.5
				s-0.2,1.9-0.7,2.5s-1.1,0.9-1.9,0.9c-0.5,0-0.9-0.1-1.2-0.3S233.8,41.3,233.5,40.9z M237.2,38.6c0-0.8-0.2-1.4-0.5-1.9
				s-0.8-0.7-1.3-0.7s-1,0.2-1.3,0.7s-0.5,1.1-0.5,1.9s0.2,1.4,0.5,1.9s0.8,0.7,1.3,0.7s1-0.2,1.3-0.7S237.2,39.4,237.2,38.6z"/>
			<path d="M245.6,35.3l-2.4,3.2l2.5,3.4h-1.3l-1.9-2.6l-1.9,2.6h-1.3l2.5-3.4l-2.3-3.1h1.3l1.7,2.3l1.7-2.3H245.6z"/>
		</g>
	</g>
</g>
</svg>
