<?xml version="1.0" encoding="utf-8"?>
<!-- Generator: Adobe Illustrator 26.0.3, SVG Export Plug-In . SVG Version: 6.00 Build 0)  -->
<svg version="1.1" id="Layer_1" xmlns="http://www.w3.org/2000/svg" xmlns:xlink="http://www.w3.org/1999/xlink" x="0px" y="0px"
	 viewBox="0 0 256 96" style="enable-background:new 0 0 256 96;" xml:space="preserve">
<style type="text/css">
	.st0{fill:none;stroke:#000000;stroke-width:4;stroke-miterlimit:10;}
</style>
<g>
	<g>
		<g>
			<path d="M14.4649153,9.2988281h7.2539072v1.7050781h-2.6074219v7.0429688h-2.0332031v-7.0429688h-2.6132822V9.2988281z"/>
			<path d="M28.6211662,14.0507812v3.9960938h-1.8984375v-0.6503906V15c0-0.5742188-0.0117188-0.96875-0.0351562-1.1835938
				s-0.0625-0.3730469-0.1171875-0.4746094c-0.0742188-0.1367188-0.1748047-0.2431641-0.3017578-0.3193359
				s-0.2705078-0.1142578-0.4306641-0.1142578c-0.3945312,0-0.7041016,0.1689453-0.9287109,0.5068359
				s-0.3369141,0.8056641-0.3369141,1.4033203v3.2285156h-1.8867188V8.9296875h1.8867188v3.515625
				c0.2851562-0.3828125,0.5878906-0.6650391,0.9082031-0.8466797s0.6738281-0.2724609,1.0605469-0.2724609
				c0.6796875,0,1.1962891,0.2324219,1.5498047,0.6972656S28.6211662,13.1640625,28.6211662,14.0507812z"/>
			<path d="M30.3731194,8.9296875h1.8867188v1.7109375h-1.8867188V8.9296875z M30.3731194,11.484375h1.8867188v6.5625h-1.8867188
				V11.484375z"/>
			<path d="M38.6817131,11.6894531v1.59375c-0.4023438-0.1875-0.7919922-0.328125-1.1689453-0.421875
				s-0.7314453-0.140625-1.0634766-0.140625c-0.359375,0-0.6259766,0.0498047-0.7998047,0.1494141
				s-0.2607422,0.2529297-0.2607422,0.4599609c0,0.1679688,0.0654297,0.296875,0.1962891,0.3867188
				s0.3681641,0.15625,0.7119141,0.1992188l0.328125,0.0527344c0.96875,0.1367188,1.6201172,0.3613281,1.9541016,0.6738281
				s0.5009766,0.8027344,0.5009766,1.4707031c0,0.6992188-0.2324219,1.2246094-0.6972656,1.5761719
				s-1.1582031,0.5273438-2.0800781,0.5273438c-0.390625,0-0.7939453-0.0341797-1.2099609-0.1025391
				s-0.8427734-0.1708984-1.2802734-0.3076172v-1.59375c0.375,0.203125,0.7607422,0.3554688,1.1572266,0.4570312
				s0.7978516,0.1523438,1.2041016,0.1523438c0.3671875,0,0.6445312-0.0566406,0.8320312-0.1699219
				s0.28125-0.28125,0.28125-0.5039062c0-0.1875-0.0644531-0.3271484-0.1933594-0.4189453s-0.3847656-0.1630859-0.7675781-0.2138672
				L35.99226,15.46875c-0.8398438-0.1171875-1.4287109-0.3339844-1.7666016-0.6503906s-0.5068359-0.796875-0.5068359-1.4414062
				c0-0.6953125,0.2148438-1.2109375,0.6445312-1.546875s1.0878906-0.5039062,1.9746094-0.5039062
				c0.3476562,0,0.7128906,0.0292969,1.0957031,0.0878906S38.2324944,11.5644531,38.6817131,11.6894531z"/>
			<path d="M44.2539787,8.9296875h1.8867188v1.7109375h-1.8867188V8.9296875z M44.2539787,11.484375h1.8867188v6.5625h-1.8867188
				V11.484375z"/>
			<path d="M52.5625725,11.6894531v1.59375c-0.4023438-0.1875-0.7919922-0.328125-1.1689453-0.421875
				s-0.7314453-0.140625-1.0634766-0.140625c-0.359375,0-0.6259766,0.0498047-0.7998047,0.1494141
				s-0.2607422,0.2529297-0.2607422,0.4599609c0,0.1679688,0.0654297,0.296875,0.1962891,0.3867188
				s0.3681641,0.15625,0.7119141,0.1992188l0.328125,0.0527344c0.96875,0.1367188,1.6201172,0.3613281,1.9541016,0.6738281
				s0.5009766,0.8027344,0.5009766,1.4707031c0,0.6992188-0.2324219,1.2246094-0.6972656,1.5761719
				s-1.1582031,0.5273438-2.0800781,0.5273438c-0.390625,0-0.7939453-0.0341797-1.2099609-0.1025391
				s-0.8427734-0.1708984-1.2802734-0.3076172v-1.59375c0.375,0.203125,0.7607422,0.3554688,1.1572266,0.4570312
				s0.7978516,0.1523438,1.2041016,0.1523438c0.3671875,0,0.6445312-0.0566406,0.8320312-0.1699219
				s0.28125-0.28125,0.28125-0.5039062c0-0.1875-0.0644531-0.3271484-0.1933594-0.4189453s-0.3847656-0.1630859-0.7675781-0.2138672
				l-0.3339844-0.046875c-0.8398438-0.1171875-1.4287109-0.3339844-1.7666016-0.6503906s-0.5068359-0.796875-0.5068359-1.4414062
				c0-0.6953125,0.2148438-1.2109375,0.6445312-1.546875s1.0878906-0.5039062,1.9746094-0.5039062
				c0.3476562,0,0.7128906,0.0292969,1.0957031,0.0878906S52.1133537,11.5644531,52.5625725,11.6894531z"/>
			<path d="M62.0196037,8.9296875v1.3769531H60.976635c-0.265625,0-0.4511719,0.0537109-0.5566406,0.1611328
				s-0.1582031,0.2939453-0.1582031,0.5595703v0.4570312h1.6113281v1.5h-1.6113281v5.0625h-1.8925781v-5.0625h-0.9375v-1.5h0.9375
				v-0.4570312c0-0.7148438,0.1796875-1.2431641,0.5390625-1.5849609s0.9160156-0.5126953,1.6699219-0.5126953H62.0196037z"/>
			<path d="M62.8281975,8.9296875h1.8867149v1.7109375h-1.8867149V8.9296875z M62.8281975,11.484375h1.8867149v6.5625h-1.8867149
				V11.484375z"/>
			<path d="M66.5254593,8.9296875h1.8867188v9.1171875h-1.8867188V8.9296875z"/>
			<path d="M70.2227249,8.9296875h1.8867188v9.1171875h-1.8867188V8.9296875z"/>
			<path d="M79.8145218,14.7480469v0.5976562h-4.4121094c0.0429688,0.4921875,0.2021484,0.8613281,0.4775391,1.1074219
				s0.6591797,0.3691406,1.1513672,0.3691406c0.3984375,0,0.8056641-0.0654297,1.2216797-0.1962891
				s0.8427734-0.3291016,1.2802734-0.5947266v1.6171875c-0.4453125,0.1875-0.8916016,0.3291016-1.3388672,0.4248047
				s-0.8935547,0.1435547-1.3388672,0.1435547c-1.0703125,0-1.9013672-0.3017578-2.4931641-0.9052734
				s-0.8876953-1.4501953-0.8876953-2.5400391c0-1.0703125,0.2910156-1.9121094,0.8730469-2.5253906
				s1.3828125-0.9199219,2.4023438-0.9199219c0.9296875,0,1.6728516,0.3105469,2.2294922,0.9316406
				S79.8145218,13.7089844,79.8145218,14.7480469z M77.8750687,14.0507812c0-0.3984375-0.1044922-0.7197266-0.3134766-0.9638672
				s-0.4833984-0.3662109-0.8232422-0.3662109c-0.3632812,0-0.6591797,0.1142578-0.8876953,0.3427734
				s-0.3720703,0.5576172-0.4306641,0.9873047H77.8750687z"/>
			<path d="M85.2637405,12.4453125v-3.515625h1.8984375v9.1171875h-1.8984375v-0.9492188
				c-0.2617188,0.3867188-0.5488281,0.6699219-0.8613281,0.8496094s-0.6757812,0.2695312-1.0898438,0.2695312
				c-0.7265625,0-1.3232422-0.3212891-1.7900391-0.9638672s-0.7001953-1.4697266-0.7001953-2.4814453
				s0.2333984-1.8388672,0.7001953-2.4814453s1.0634766-0.9638672,1.7900391-0.9638672
				c0.4101562,0,0.7724609,0.0908203,1.0869141,0.2724609S85.0020218,12.0625,85.2637405,12.4453125z M84.0156937,16.6933594
				c0.40625,0,0.7158203-0.1640625,0.9287109-0.4921875s0.3193359-0.8046875,0.3193359-1.4296875
				s-0.1064453-1.1015625-0.3193359-1.4296875s-0.5224609-0.4921875-0.9287109-0.4921875
				c-0.3984375,0-0.7041016,0.1640625-0.9169922,0.4921875s-0.3193359,0.8046875-0.3193359,1.4296875
				s0.1064453,1.1015625,0.3193359,1.4296875S83.6172562,16.6933594,84.0156937,16.6933594z"/>
			<path d="M94.615303,17.0976562v3.4453125h-1.8867188V11.484375h1.8867188v0.9609375
				c0.2617188-0.3828125,0.5507812-0.6650391,0.8671875-0.8466797s0.6796875-0.2724609,1.0898438-0.2724609
				c0.7265625,0,1.3242188,0.3212891,1.7929688,0.9638672s0.703125,1.4697266,0.703125,2.4814453
				s-0.234375,1.8388672-0.703125,2.4814453s-1.0664062,0.9638672-1.7929688,0.9638672
				c-0.4101562,0-0.7734375-0.0908203-1.0898438-0.2724609S94.8770218,17.4804688,94.615303,17.0976562z M95.8692093,12.8496094
				c-0.4023438,0-0.7119141,0.1650391-0.9287109,0.4951172s-0.3251953,0.8056641-0.3251953,1.4267578
				s0.1083984,1.0966797,0.3251953,1.4267578s0.5263672,0.4951172,0.9287109,0.4951172
				c0.40625,0,0.7158203-0.1640625,0.9287109-0.4921875s0.3193359-0.8046875,0.3193359-1.4296875
				s-0.1064453-1.1015625-0.3193359-1.4296875S96.2754593,12.8496094,95.8692093,12.8496094z"/>
			<path d="M103.2637405,11.3261719c1.0195312,0,1.8144531,0.3046875,2.3847656,0.9140625s0.8554688,1.453125,0.8554688,2.53125
				s-0.2851562,1.921875-0.8554688,2.53125s-1.3652344,0.9140625-2.3847656,0.9140625
				c-1.015625,0-1.8115234-0.3046875-2.3876953-0.9140625s-0.8642578-1.453125-0.8642578-2.53125
				s0.2880859-1.921875,0.8642578-2.53125S102.2481155,11.3261719,103.2637405,11.3261719z M103.2637405,12.8261719
				c-0.4179688,0-0.7363281,0.1669922-0.9550781,0.5009766s-0.328125,0.8154297-0.328125,1.4443359
				s0.109375,1.1103516,0.328125,1.4443359s0.5371094,0.5009766,0.9550781,0.5009766
				c0.4140625,0,0.7294922-0.1669922,0.9462891-0.5009766s0.3251953-0.8154297,0.3251953-1.4443359
				s-0.1083984-1.1103516-0.3251953-1.4443359S103.677803,12.8261719,103.2637405,12.8261719z"/>
			<path d="M107.8750687,8.9296875h1.8867188v9.1171875h-1.8867188V8.9296875z"/>
			<path d="M110.7930374,11.484375h1.8925781l1.5878906,4.453125l1.3476562-4.453125h1.8867188l-2.484375,7.1835938
				c-0.25,0.7304688-0.5410156,1.2412109-0.8730469,1.5322266s-0.7695312,0.4365234-1.3125,0.4365234h-1.0957031v-1.3769531
				h0.5917969c0.3203125,0,0.5537109-0.0566406,0.7001953-0.1699219s0.2607422-0.3164062,0.3427734-0.609375l0.0527344-0.1816406
				L110.7930374,11.484375z"/>
			<path d="M122.6289749,16.9335938c-0.2617188,0.3828125-0.5488281,0.6640625-0.8613281,0.84375
				s-0.6757812,0.2695312-1.0898438,0.2695312c-0.71875,0-1.3134766-0.3154297-1.7841797-0.9462891
				s-0.7060547-1.4345703-0.7060547-2.4111328c0-0.9804688,0.2353516-1.7841797,0.7060547-2.4111328
				s1.0654297-0.9404297,1.7841797-0.9404297c0.4140625,0,0.7773438,0.0898438,1.0898438,0.2695312
				s0.5996094,0.4628906,0.8613281,0.8496094V11.484375h1.8984375v5.9003906c0,1.0546875-0.2998047,1.8603516-0.8994141,2.4169922
				s-1.4697266,0.8349609-2.6103516,0.8349609c-0.3671875,0-0.7236328-0.03125-1.0693359-0.09375
				s-0.6923828-0.1582031-1.0400391-0.2871094v-1.6347656c0.3320312,0.2109375,0.65625,0.3681641,0.9726562,0.4716797
				s0.6347656,0.1552734,0.9550781,0.1552734c0.6171875,0,1.0703125-0.1503906,1.359375-0.4511719
				s0.4335938-0.7714844,0.4335938-1.4121094V16.9335938z M121.380928,12.8496094
				c-0.390625,0-0.6943359,0.1601562-0.9111328,0.4804688s-0.3251953,0.7734375-0.3251953,1.359375
				c0,0.6015625,0.1054688,1.0576172,0.3164062,1.3681641s0.5175781,0.4658203,0.9199219,0.4658203
				c0.3945312,0,0.7011719-0.1601562,0.9199219-0.4804688s0.328125-0.7714844,0.328125-1.3535156
				c0-0.5859375-0.109375-1.0390625-0.328125-1.359375S121.7754593,12.8496094,121.380928,12.8496094z"/>
			<path d="M129.1441193,11.3261719c1.0195312,0,1.8144531,0.3046875,2.3847656,0.9140625s0.8554688,1.453125,0.8554688,2.53125
				s-0.2851562,1.921875-0.8554688,2.53125s-1.3652344,0.9140625-2.3847656,0.9140625
				c-1.015625,0-1.8110428-0.3046875-2.3872147-0.9140625s-0.8642578-1.453125-0.8642578-2.53125
				s0.2880859-1.921875,0.8642578-2.53125S128.1284943,11.3261719,129.1441193,11.3261719z M129.1441193,12.8261719
				c-0.4179688,0-0.7363281,0.1669922-0.9550781,0.5009766c-0.2187576,0.3339844-0.3281326,0.8154297-0.3281326,1.4443359
				s0.109375,1.1103516,0.3281326,1.4443359c0.21875,0.3339844,0.5371094,0.5009766,0.9550781,0.5009766
				c0.4140625,0,0.7304688-0.1669922,0.9472656-0.5009766s0.3242188-0.8154297,0.3242188-1.4443359
				s-0.1074219-1.1103516-0.3242188-1.4443359S129.5581818,12.8261719,129.1441193,12.8261719z"/>
			<path d="M139.690506,14.0507812v3.9960938h-1.8979492v-0.6503906v-2.4082031c0-0.5664062-0.0117188-0.9570312-0.0351562-1.171875
				s-0.0625-0.3730469-0.1171875-0.4746094c-0.0742188-0.1367188-0.1748047-0.2431641-0.3017578-0.3193359
				s-0.2705078-0.1142578-0.4306641-0.1142578c-0.3945312,0-0.7041016,0.1689453-0.9287109,0.5068359
				s-0.3369141,0.8056641-0.3369141,1.4033203v3.2285156h-1.8867188v-6.5625h1.8867188v0.9609375
				c0.2851562-0.3828125,0.5878906-0.6650391,0.9082031-0.8466797s0.6738281-0.2724609,1.0605469-0.2724609
				c0.6791992,0,1.1958008,0.2324219,1.5493164,0.6972656S139.690506,13.1640625,139.690506,14.0507812z"/>
		</g>
		<path d="M107.6474609,88.0703125h-62v-62h62V88.0703125z M49.6474609,84.0703125h54v-54h-54V84.0703125z"/>
	</g>
	<g>
		<g>
			<path d="M160.7811737,9.2988281h7.2539062v1.7050781h-2.6074219v7.0429688h-2.0332031v-7.0429688h-2.6132812V9.2988281z"/>
			<path d="M174.9374237,14.0507812v3.9960938h-1.8984375v-0.6503906V15c0-0.5742188-0.0117188-0.96875-0.0351562-1.1835938
				s-0.0625-0.3730469-0.1171875-0.4746094c-0.0742188-0.1367188-0.1748047-0.2431641-0.3017578-0.3193359
				s-0.2705078-0.1142578-0.4306641-0.1142578c-0.3945312,0-0.7041016,0.1689453-0.9287109,0.5068359
				s-0.3369141,0.8056641-0.3369141,1.4033203v3.2285156h-1.8867188V8.9296875h1.8867188v3.515625
				c0.2851562-0.3828125,0.5878906-0.6650391,0.9082031-0.8466797s0.6738281-0.2724609,1.0605469-0.2724609
				c0.6796875,0,1.1962891,0.2324219,1.5498047,0.6972656S174.9374237,13.1640625,174.9374237,14.0507812z"/>
			<path d="M176.6893768,8.9296875h1.8867188v1.7109375h-1.8867188V8.9296875z M176.6893768,11.484375h1.8867188v6.5625h-1.8867188
				V11.484375z"/>
			<path d="M184.9979706,11.6894531v1.59375c-0.4023438-0.1875-0.7919922-0.328125-1.1689453-0.421875
				s-0.7314453-0.140625-1.0634766-0.140625c-0.359375,0-0.6259766,0.0498047-0.7998047,0.1494141
				s-0.2607422,0.2529297-0.2607422,0.4599609c0,0.1679688,0.0654297,0.296875,0.1962891,0.3867188
				s0.3681641,0.15625,0.7119141,0.1992188l0.328125,0.0527344c0.96875,0.1367188,1.6201172,0.3613281,1.9541016,0.6738281
				s0.5009766,0.8027344,0.5009766,1.4707031c0,0.6992188-0.2324219,1.2246094-0.6972656,1.5761719
				s-1.1582031,0.5273438-2.0800781,0.5273438c-0.390625,0-0.7939453-0.0341797-1.2099609-0.1025391
				s-0.8427734-0.1708984-1.2802734-0.3076172v-1.59375c0.375,0.203125,0.7607422,0.3554688,1.1572266,0.4570312
				s0.7978516,0.1523438,1.2041016,0.1523438c0.3671875,0,0.6445312-0.0566406,0.8320312-0.1699219
				s0.28125-0.28125,0.28125-0.5039062c0-0.1875-0.0644531-0.3271484-0.1933594-0.4189453s-0.3847656-0.1630859-0.7675781-0.2138672
				l-0.3339844-0.046875c-0.8398438-0.1171875-1.4287109-0.3339844-1.7666016-0.6503906s-0.5068359-0.796875-0.5068359-1.4414062
				c0-0.6953125,0.2148438-1.2109375,0.6445312-1.546875s1.0878906-0.5039062,1.9746094-0.5039062
				c0.3476562,0,0.7128906,0.0292969,1.0957031,0.0878906S184.5487518,11.5644531,184.9979706,11.6894531z"/>
			<path d="M190.5702362,8.9296875h1.8867188v1.7109375h-1.8867188V8.9296875z M190.5702362,11.484375h1.8867188v6.5625h-1.8867188
				V11.484375z"/>
			<path d="M198.87883,11.6894531v1.59375c-0.4023438-0.1875-0.7919922-0.328125-1.1689453-0.421875
				s-0.7314453-0.140625-1.0634766-0.140625c-0.359375,0-0.6259766,0.0498047-0.7998047,0.1494141
				s-0.2607422,0.2529297-0.2607422,0.4599609c0,0.1679688,0.0654297,0.296875,0.1962891,0.3867188
				s0.3681641,0.15625,0.7119141,0.1992188l0.328125,0.0527344c0.96875,0.1367188,1.6201172,0.3613281,1.9541016,0.6738281
				s0.5009766,0.8027344,0.5009766,1.4707031c0,0.6992188-0.2324219,1.2246094-0.6972656,1.5761719
				s-1.1582031,0.5273438-2.0800781,0.5273438c-0.390625,0-0.7939453-0.0341797-1.2099609-0.1025391
				s-0.8427734-0.1708984-1.2802734-0.3076172v-1.59375c0.375,0.203125,0.7607422,0.3554688,1.1572266,0.4570312
				s0.7978516,0.1523438,1.2041016,0.1523438c0.3671875,0,0.6445312-0.0566406,0.8320312-0.1699219
				s0.28125-0.28125,0.28125-0.5039062c0-0.1875-0.0644531-0.3271484-0.1933594-0.4189453s-0.3847656-0.1630859-0.7675781-0.2138672
				l-0.3339844-0.046875c-0.8398438-0.1171875-1.4287109-0.3339844-1.7666016-0.6503906s-0.5068359-0.796875-0.5068359-1.4414062
				c0-0.6953125,0.2148438-1.2109375,0.6445312-1.546875s1.0878906-0.5039062,1.9746094-0.5039062
				c0.3476562,0,0.7128906,0.0292969,1.0957031,0.0878906S198.4296112,11.5644531,198.87883,11.6894531z"/>
			<path d="M209.0624237,11.6894531v1.59375c-0.4023438-0.1875-0.7919922-0.328125-1.1689453-0.421875
				s-0.7314453-0.140625-1.0634766-0.140625c-0.359375,0-0.6259766,0.0498047-0.7998047,0.1494141
				s-0.2607422,0.2529297-0.2607422,0.4599609c0,0.1679688,0.0654297,0.296875,0.1962891,0.3867188
				s0.3681641,0.15625,0.7119141,0.1992188l0.328125,0.0527344c0.96875,0.1367188,1.6201172,0.3613281,1.9541016,0.6738281
				s0.5009766,0.8027344,0.5009766,1.4707031c0,0.6992188-0.2324219,1.2246094-0.6972656,1.5761719
				s-1.1582031,0.5273438-2.0800781,0.5273438c-0.390625,0-0.7939453-0.0341797-1.2099609-0.1025391
				s-0.8427734-0.1708984-1.2802734-0.3076172v-1.59375c0.375,0.203125,0.7607422,0.3554688,1.1572266,0.4570312
				s0.7978516,0.1523438,1.2041016,0.1523438c0.3671875,0,0.6445312-0.0566406,0.8320312-0.1699219
				s0.28125-0.28125,0.28125-0.5039062c0-0.1875-0.0644531-0.3271484-0.1933594-0.4189453s-0.3847656-0.1630859-0.7675781-0.2138672
				l-0.3339844-0.046875c-0.8398438-0.1171875-1.4287109-0.3339844-1.7666016-0.6503906s-0.5068359-0.796875-0.5068359-1.4414062
				c0-0.6953125,0.2148438-1.2109375,0.6445312-1.546875s1.0878906-0.5039062,1.9746094-0.5039062
				c0.3476562,0,0.7128906,0.0292969,1.0957031,0.0878906S208.613205,11.5644531,209.0624237,11.6894531z"/>
			<path d="M212.94133,9.6210938v1.8632812h1.9453125v1.5H212.94133v2.7832031c0,0.3046875,0.0537109,0.5107422,0.1611328,0.6181641
				s0.3232422,0.1611328,0.6474609,0.1611328h0.9726562v1.5h-1.6171875c-0.7460938,0-1.2753906-0.1728516-1.5878906-0.5185547
				s-0.46875-0.9326172-0.46875-1.7607422V12.984375h-0.9375v-1.5h0.9375V9.6210938H212.94133z"/>
			<path d="M220.4296112,13.2714844c-0.1679688-0.0859375-0.3330078-0.1494141-0.4951172-0.1904297
				s-0.3271484-0.0615234-0.4951172-0.0615234c-0.484375,0-0.8574219,0.1728516-1.1191406,0.5185547
				s-0.3925781,0.8408203-0.3925781,1.4853516v3.0234375h-1.8867188v-6.5625h1.8867188V12.5625
				c0.2421875-0.4296875,0.5205078-0.7431641,0.8349609-0.9404297s0.6923828-0.2958984,1.1337891-0.2958984
				c0.0625,0,0.1308594,0.0029297,0.2050781,0.0087891s0.1816406,0.0185547,0.3222656,0.0380859L220.4296112,13.2714844z"/>
			<path d="M224.1737518,11.3261719c1.0195312,0,1.8144531,0.3046875,2.3847656,0.9140625s0.8554688,1.453125,0.8554688,2.53125
				s-0.2851562,1.921875-0.8554688,2.53125s-1.3652344,0.9140625-2.3847656,0.9140625
				c-1.015625,0-1.8115234-0.3046875-2.3876953-0.9140625s-0.8642578-1.453125-0.8642578-2.53125
				s0.2880859-1.921875,0.8642578-2.53125S223.1581268,11.3261719,224.1737518,11.3261719z M224.1737518,12.8261719
				c-0.4179688,0-0.7363281,0.1669922-0.9550781,0.5009766s-0.328125,0.8154297-0.328125,1.4443359
				s0.109375,1.1103516,0.328125,1.4443359s0.5371094,0.5009766,0.9550781,0.5009766
				c0.4140625,0,0.7294922-0.1669922,0.9462891-0.5009766s0.3251953-0.8154297,0.3251953-1.4443359
				s-0.1083984-1.1103516-0.3251953-1.4443359S224.5878143,12.8261719,224.1737518,12.8261719z"/>
			<path d="M228.78508,8.9296875h1.8867188v4.9628906l2.1738281-2.4082031h2.1914062l-2.8828125,3.0117188l3.1113281,3.5507812
				h-2.2910156l-2.3027344-2.7363281v2.7363281H228.78508V8.9296875z"/>
			<path d="M241.53508,14.7480469v0.5976562h-4.4121094c0.0429688,0.4921875,0.2021484,0.8613281,0.4775391,1.1074219
				s0.6591797,0.3691406,1.1513672,0.3691406c0.3984375,0,0.8056641-0.0654297,1.2216797-0.1962891
				S240.81633,16.296875,241.25383,16.03125v1.6171875c-0.4453125,0.1875-0.8916016,0.3291016-1.3388672,0.4248047
				s-0.8935547,0.1435547-1.3388672,0.1435547c-1.0703125,0-1.9013672-0.3017578-2.4931641-0.9052734
				s-0.8876953-1.4501953-0.8876953-2.5400391c0-1.0703125,0.2910156-1.9121094,0.8730469-2.5253906
				s1.3828125-0.9199219,2.4023438-0.9199219c0.9296875,0,1.6728516,0.3105469,2.2294922,0.9316406
				S241.53508,13.7089844,241.53508,14.7480469z M239.5956268,14.0507812c0-0.3984375-0.1044922-0.7197266-0.3134766-0.9638672
				s-0.4833984-0.3662109-0.8232422-0.3662109c-0.3632812,0-0.6591797,0.1142578-0.8876953,0.3427734
				s-0.3720703,0.5576172-0.4306641,0.9873047H239.5956268z"/>
		</g>
		<rect x="172.1581268" y="28.0702038" class="st0" width="58" height="58"/>
	</g>
</g>
</svg>
