<?xml version="1.0" encoding="utf-8"?><!--Generator: Adobe Illustrator 26.0.3, SVG Export Plug-In . SVG Version: 6.00 Build 0)--><svg version="1.1" id="broken-line-width-010-4022739257__Layer_1" xmlns="http://www.w3.org/2000/svg" xmlns:xlink="http://www.w3.org/1999/xlink" x="0px" y="0px" viewBox="0 0 1024 1024" style="enable-background:new 0 0 1024 1024;" xml:space="preserve"><style type="text/css">.broken-line-width-010-4022739257__st0{fill:none;stroke:#007F00;stroke-width:18;stroke-linecap:round;stroke-miterlimit:10}.broken-line-width-010-4022739257__st1{fill:none;stroke:#FF0000;stroke-width:18;stroke-linecap:round;stroke-miterlimit:10}.broken-line-width-010-4022739257__st2{fill:none;stroke:#0000FF;stroke-width:18;stroke-linecap:round;stroke-linejoin:round;stroke-miterlimit:10}.broken-line-width-010-4022739257__st3{fill:none;stroke:#FF00FF;stroke-width:18;stroke-linecap:round;stroke-linejoin:round;stroke-miterlimit:10}.broken-line-width-010-4022739257__st4{fill:none;stroke:#F7931E;stroke-width:18;stroke-linecap:round;stroke-linejoin:round;stroke-miterlimit:10}.broken-line-width-010-4022739257__st5{fill:none;stroke:#ED1E79;stroke-width:18;stroke-linecap:round;stroke-linejoin:round;stroke-miterlimit:10}</style><g><g><path class="broken-line-width-010-4022739257__st0" d="M512,12.5L512,12.5c221.2,0,400.6,179.3,400.6,400.6v598.5" vector-effect="non-scaling-stroke"/><path class="broken-line-width-010-4022739257__st1" d="M111.4,1011.5V413c0-221.2,179.3-400.6,400.6-400.6" vector-effect="non-scaling-stroke"/><polyline class="broken-line-width-010-4022739257__st2" points="912.6,1011.5 832.5,893.7 752.3,1011.5 672.2,893.7 592.1,1011.5 512,893.7 431.9,1011.5 
			351.8,893.7 271.7,1011.5 191.5,893.7 111.4,1011.5 		" vector-effect="non-scaling-stroke"/></g><path class="broken-line-width-010-4022739257__st3" d="M204.5,418.6c0-67.4,54.6-122,122-122s122,54.6,122,122" vector-effect="non-scaling-stroke"/><path class="broken-line-width-010-4022739257__st4" d="M575.4,418.6c0-67.4,54.6-122,122-122s122,54.6,122,122" vector-effect="non-scaling-stroke"/><path class="broken-line-width-010-4022739257__st5" d="M619.2,605.4c0,67.4-54.6,122-122,122s-122-54.6-122-122" vector-effect="non-scaling-stroke"/></g></svg>