<?xml version="1.0" encoding="utf-8"?><!--Generator: Adobe Illustrator 26.0.3, SVG Export Plug-In . SVG Version: 6.00 Build 0)--><svg version="1.1" id="sun-3609273342__Layer_1" xmlns="http://www.w3.org/2000/svg" xmlns:xlink="http://www.w3.org/1999/xlink" x="0px" y="0px" viewBox="0 0 128 128" style="{enable-background:new 0 0 128 128}" xml:space="preserve"><style type="text/css">.sun-3609273342__st0{fill:none;stroke:#FFB531;stroke-width:2;stroke-miterlimit:10}.sun-3609273342__st1{fill:none;stroke:#FF4500;stroke-width:2;stroke-miterlimit:10}</style><g><g><path class="sun-3609273342__st0" d="M106.7,59.7c-0.6-6.2-2.6-12.1-5.6-17.3l-9.8,12.7L106.7,59.7z" vector-effect="non-scaling-stroke" fill=""/><path class="sun-3609273342__st0" d="M101.1,85.6c3-5.2,5-11,5.6-17.3l-15.4,4.5L101.1,85.6z" vector-effect="non-scaling-stroke" fill=""/><path class="sun-3609273342__st0" d="M96,35.4c-4.1-4.5-9-8.2-14.7-10.7l-0.4,16.1L96,35.4z" vector-effect="non-scaling-stroke" fill=""/><path class="sun-3609273342__st0" d="M21.3,68.3c0.6,6.2,2.6,12.1,5.6,17.3l9.8-12.7L21.3,68.3z" vector-effect="non-scaling-stroke" fill=""/><path class="sun-3609273342__st0" d="M54.9,106c2.9,0.6,6,1,9.1,1c3.1,0,6.2-0.3,9.1-1L64,92.7L54.9,106z" vector-effect="non-scaling-stroke" fill=""/><path class="sun-3609273342__st0" d="M81.3,103.3C87,100.8,92,97.2,96,92.6l-15.1-5.4L81.3,103.3z" vector-effect="non-scaling-stroke" fill=""/><path class="sun-3609273342__st0" d="M32,92.6c4.1,4.5,9,8.2,14.7,10.7l0.4-16.1L32,92.6z" vector-effect="non-scaling-stroke" fill=""/><path class="sun-3609273342__st0" d="M26.9,42.4c-3,5.2-5,11-5.6,17.3l15.4-4.5L26.9,42.4z" vector-effect="non-scaling-stroke" fill=""/><path class="sun-3609273342__st0" d="M73.1,22c-2.9-0.6-6-1-9.1-1c-3.1,0-6.2,0.3-9.1,1L64,35.3L73.1,22z" vector-effect="non-scaling-stroke" fill=""/><path class="sun-3609273342__st0" d="M46.7,24.7C41,27.2,36,30.8,32,35.4l15.1,5.4L46.7,24.7z" vector-effect="non-scaling-stroke" fill=""/></g><polygon class="sun-3609273342__st1" points="64,35.3 81.8,9.4 80.9,40.8 110.5,30.2 91.3,55.1 121.4,64 91.3,72.9 110.5,97.8 80.9,87.2
		81.8,118.6 64,92.7 46.2,118.6 47.1,87.2 17.5,97.8 36.7,72.9 6.5,64 36.7,55.1 17.5,30.2 47.1,40.8 46.2,9.4 	" vector-effect="non-scaling-stroke" fill=""/></g></svg>