<?xml version="1.0" encoding="utf-8"?>
<!-- Generator: Adobe Illustrator 26.0.3, SVG Export Plug-In . SVG Version: 6.00 Build 0)  -->
<svg version="1.1" id="Layer_1" xmlns="http://www.w3.org/2000/svg" xmlns:xlink="http://www.w3.org/1999/xlink" x="0px" y="0px"
	 viewBox="0 0 128 86" style="enable-background:new 0 0 128 86;" xml:space="preserve">
<style type="text/css">
	.st0{fill:#FF0000;}
	.st1{fill:#FFFFFF;stroke:#FF0000;stroke-width:2;stroke-miterlimit:10;}
	.st2{fill:none;stroke:#FF0000;stroke-width:2;stroke-miterlimit:10;}
</style>
<g>
	<path class="st0" d="M5.2218213,9.4957972h1.9453125l1.3593745,6.3574219L9.880024,9.4957972h1.9570312l1.3476562,6.3574219
		l1.359375-6.3574219h1.9335938l-1.8574219,8.7480459h-2.34375l-1.4296875-6.6503897l-1.4121094,6.6503897H7.0909619
		L5.2218213,9.4957972z"/>
	<path class="st0" d="M23.6554146,14.2477503v3.9960928h-1.8984375v-0.6503906V15.196969
		c0-0.5742188-0.0117188-0.96875-0.0351562-1.1835938s-0.0625-0.3730469-0.1171875-0.4746094
		c-0.0742188-0.1367188-0.1748047-0.2431641-0.3017578-0.3193359s-0.2705078-0.1142578-0.4306641-0.1142578
		c-0.3945312,0-0.7041016,0.1689453-0.9287109,0.5068359s-0.3369141,0.8056641-0.3369141,1.4033203v3.2285147h-1.8867188V9.1266565
		h1.8867188v3.515625c0.2851562-0.3828125,0.5878906-0.6650391,0.9082031-0.8466797s0.6738281-0.2724609,1.0605469-0.2724609
		c0.6796875,0,1.1962891,0.2324219,1.5498047,0.6972656S23.6554146,13.3610315,23.6554146,14.2477503z"/>
	<path class="st0" d="M25.4073677,9.1266565h1.8867188v1.7109375h-1.8867188V9.1266565z M25.4073677,11.681344h1.8867188v6.562499
		h-1.8867188V11.681344z"/>
	<path class="st0" d="M31.1671333,9.8180628v1.8632812h1.9453125v1.5h-1.9453125v2.7832031
		c0,0.3046865,0.0537109,0.5107412,0.1611328,0.6181631s0.3232422,0.1611328,0.6474609,0.1611328h0.9726562v1.5h-1.6171875
		c-0.7460938,0-1.2753906-0.1728516-1.5878906-0.5185547s-0.46875-0.9326172-0.46875-1.7607412V13.181344h-0.9375v-1.5h0.9375
		V9.8180628H31.1671333z"/>
	<path class="st0" d="M40.161274,14.9450159v0.5976562h-4.4121094c0.0429688,0.4921865,0.2021484,0.8613272,0.4775391,1.1074209
		s0.6591797,0.3691406,1.1513672,0.3691406c0.3984375,0,0.8056641-0.0654297,1.2216797-0.1962891
		s0.8427734-0.3291016,1.2802734-0.5947266v1.6171875c-0.4453125,0.1875-0.8916016,0.3291016-1.3388672,0.4248047
		s-0.8935547,0.1435547-1.3388672,0.1435547c-1.0703125,0-1.9013672-0.3017578-2.4931641-0.9052734
		s-0.8876953-1.4501953-0.8876953-2.5400381c0-1.0703125,0.2910156-1.9121094,0.8730469-2.5253906
		s1.3828125-0.9199219,2.4023438-0.9199219c0.9296875,0,1.6728516,0.3105469,2.2294922,0.9316406
		S40.161274,13.9059534,40.161274,14.9450159z M38.2218208,14.2477503c0-0.3984375-0.1044922-0.7197266-0.3134766-0.9638672
		s-0.4833984-0.3662109-0.8232422-0.3662109c-0.3632812,0-0.6591797,0.1142578-0.8876953,0.3427734
		s-0.3720703,0.5576172-0.4306641,0.9873047H38.2218208z"/>
	<path class="st0" d="M49.2315865,9.1266565v1.3769531h-1.0429688c-0.265625,0-0.4511719,0.0537109-0.5566406,0.1611328
		s-0.1582031,0.2939453-0.1582031,0.5595703v0.4570312h1.6113281v1.5H47.473774v5.062499h-1.8925781v-5.062499h-0.9375v-1.5h0.9375
		v-0.4570312c0-0.7148438,0.1796875-1.2431641,0.5390625-1.5849609s0.9160156-0.5126953,1.6699219-0.5126953H49.2315865z"/>
	<path class="st0" d="M50.0401802,9.1266565h1.8867188v1.7109375h-1.8867188V9.1266565z M50.0401802,11.681344h1.8867188v6.562499
		h-1.8867188V11.681344z"/>
	<path class="st0" d="M53.7374458,9.1266565h1.8867188v9.1171865h-1.8867188V9.1266565z"/>
	<path class="st0" d="M57.4347115,9.1266565h1.8867188v9.1171865h-1.8867188V9.1266565z"/>
</g>
<g>
	<path class="st0" d="M80.0709457,9.4957972h2.2675781l2.8652344,6v-6h1.921875v8.7480459h-2.2675781l-2.859375-5.999999v5.999999
		h-1.9277344V9.4957972z"/>
	<path class="st0" d="M91.8307114,11.5231409c1.0195312,0,1.8144531,0.3046875,2.3847656,0.9140625
		s0.8554688,1.453125,0.8554688,2.53125s-0.2851562,1.921874-0.8554688,2.531249s-1.3652344,0.9140625-2.3847656,0.9140625
		c-1.015625,0-1.8115234-0.3046875-2.3876953-0.9140625s-0.8642578-1.453125-0.8642578-2.531249
		s0.2880859-1.921875,0.8642578-2.53125S90.8150864,11.5231409,91.8307114,11.5231409z M91.8307114,13.0231409
		c-0.4179688,0-0.7363281,0.1669922-0.9550781,0.5009766s-0.328125,0.8154297-0.328125,1.4443359
		s0.109375,1.1103506,0.328125,1.444335s0.5371094,0.5009766,0.9550781,0.5009766
		c0.4140625,0,0.7294922-0.1669922,0.9462891-0.5009766s0.3251953-0.8154287,0.3251953-1.444335
		s-0.1083984-1.1103516-0.3251953-1.4443359S92.2447739,13.0231409,91.8307114,13.0231409z"/>
	<path class="st0" d="M104.0826645,9.1266565v1.3769531h-1.0429688c-0.265625,0-0.4511719,0.0537109-0.5566406,0.1611328
		s-0.1582031,0.2939453-0.1582031,0.5595703v0.4570312h1.6113281v1.5h-1.6113281v5.062499h-1.8925781v-5.062499h-0.9375v-1.5h0.9375
		v-0.4570312c0-0.7148438,0.1796875-1.2431641,0.5390625-1.5849609s0.9160156-0.5126953,1.6699219-0.5126953H104.0826645z"/>
	<path class="st0" d="M104.8912582,9.1266565h1.8867188v1.7109375h-1.8867188V9.1266565z M104.8912582,11.681344h1.8867188v6.562499
		h-1.8867188V11.681344z"/>
	<path class="st0" d="M108.5885239,9.1266565h1.8867188v9.1171865h-1.8867188V9.1266565z"/>
	<path class="st0" d="M112.2857895,9.1266565h1.8867188v9.1171865h-1.8867188V9.1266565z"/>
</g>
<rect x="6.8611436" y="25.472784" class="st1" width="51.4005585" height="51.4005585"/>
<rect x="71.3776169" y="25.472784" class="st2" width="51.4005585" height="51.4005585"/>
</svg>
