<?xml version="1.0" encoding="utf-8"?>
<!-- Generator: Adobe Illustrator 26.0.3, SVG Export Plug-In . SVG Version: 6.00 Build 0)  -->
<svg version="1.1" id="Layer_1" xmlns="http://www.w3.org/2000/svg" xmlns:xlink="http://www.w3.org/1999/xlink" x="0px" y="0px"
	 viewBox="0 0 1024 1024" style="enable-background:new 0 0 1024 1024;" xml:space="preserve">
<style type="text/css">
	.st0{fill:#00002D;}
	.st1{fill:#8BD7FF;}
	.st2{fill:#FF3232;}
	.st3{fill:#FF9F7F;}
	.st4{fill:#FFDB6A;}
	.st5{fill:#D3FF6A;}
	.st6{fill:#7FFF9C;}
	.st7{fill:#74FFF1;}
	.st8{fill:#8AAEFF;}
	.st9{fill:#EC8AFF;}
	.st10{fill:#FF94C7;}
	.st11{fill:none;stroke:#FF81FF;stroke-width:2;stroke-miterlimit:10;}
	.st12{fill:none;stroke:#00FFFF;stroke-width:2;stroke-miterlimit:10;}
	.st13{fill:none;stroke:#FFFF00;stroke-width:2;stroke-miterlimit:10;}
</style>
<path class="st0" d="M925.0183716,1024H98.9816513C44.3155937,1024,0,979.6843872,0,925.0183716V98.9816513
	C0,44.3155937,44.3155937,0,98.9816513,0h826.0367432C979.6843872,0,1024,44.3155937,1024,98.9816513v826.0367432
	C1024,979.6843872,979.6843872,1024,925.0183716,1024z"/>
<g>
	<path class="st1" d="M292.9057617,195.4458008c-6.9223633,3.9667969-14.1157227,6.9599609-21.5791016,8.9780273
		c-7.4638672,2.0175781-15.2348633,3.0283203-23.3100586,3.0283203c-24.2299805,0-43.4125977-7.5175781-57.5454102-22.5527344
		c-14.1342773-15.0356445-21.2006836-35.4248047-21.2006836-61.1689453c0-25.8149414,7.0664062-46.2416992,21.2006836-61.2768555
		c14.1328125-15.0356445,33.3154297-22.5532227,57.5454102-22.5532227c8.0751953,0,15.8461914,1.0107422,23.3100586,3.0288086
		c7.4633789,2.0195312,14.6567383,5.0126953,21.5791016,8.9780273v33.4238281
		c-6.9951172-5.2631836-13.8637695-9.121582-20.6054688-11.5742188c-6.7436523-2.4506836-13.8286133-3.6777344-21.2553711-3.6777344
		c-13.4125977,0-23.9418945,4.7597656-31.5849609,14.2783203c-7.644043,9.5185547-11.4658203,22.644043-11.4658203,39.3730469
		c0,16.6577148,3.8217773,29.7460938,11.4658203,39.2646484c7.6430664,9.519043,18.1723633,14.2783203,31.5849609,14.2783203
		c7.4267578,0,14.5117188-1.2250977,21.2553711-3.6777344c6.7416992-2.4506836,13.6103516-6.309082,20.6054688-11.5737305
		V195.4458008z"/>
	<path class="st1" d="M374.1396484,80.2470703c18.8212891,0,33.4951172,5.6245117,44.0244141,16.8740234
		c10.527832,11.2495117,15.7924805,26.8256836,15.7924805,46.7285156s-5.2646484,35.4790039-15.7924805,46.7285156
		c-10.5292969,11.2495117-25.203125,16.8740234-44.0244141,16.8740234c-18.75,0-33.4423828-5.6245117-44.078125-16.8740234
		c-10.6376953-11.2495117-15.9545898-26.8256836-15.9545898-46.7285156s5.3168945-35.4790039,15.9545898-46.7285156
		C340.6972656,85.871582,355.3896484,80.2470703,374.1396484,80.2470703z M374.1396484,107.9379883
		c-7.7167969,0-13.5932617,3.0825195-17.6313477,9.2485352c-4.0390625,6.1655273-6.0571289,15.0537109-6.0571289,26.6630859
		c0,11.6113281,2.0180664,20.4980469,6.0571289,26.6635742c4.0380859,6.1655273,9.9145508,9.2480469,17.6313477,9.2480469
		c7.6430664,0,13.4672852-3.0825195,17.4692383-9.2480469c4.0024414-6.1655273,6.003418-15.0522461,6.003418-26.6635742
		c0-11.609375-2.0009766-20.4975586-6.003418-26.6630859C387.6069336,111.0205078,381.7827148,107.9379883,374.1396484,107.9379883z
		"/>
	<path class="st1" d="M459.2680664,36.0063477h34.8300781v168.309082h-34.8300781V36.0063477z"/>
	<path class="st1" d="M579.3339844,80.2470703c18.8212891,0,33.4951172,5.6245117,44.0244141,16.8740234
		c10.5283203,11.2495117,15.7919922,26.8256836,15.7919922,46.7285156s-5.2636719,35.4790039-15.7919922,46.7285156
		c-10.5292969,11.2495117-25.203125,16.8740234-44.0244141,16.8740234c-18.75,0-33.4423828-5.6245117-44.078125-16.8740234
		c-10.6376953-11.2495117-15.9550781-26.8256836-15.9550781-46.7285156s5.3173828-35.4790039,15.9550781-46.7285156
		C545.8916016,85.871582,560.5839844,80.2470703,579.3339844,80.2470703z M579.3339844,107.9379883
		c-7.7167969,0-13.59375,3.0825195-17.6308594,9.2485352c-4.0390625,6.1655273-6.0576172,15.0537109-6.0576172,26.6630859
		c0,11.6113281,2.0185547,20.4980469,6.0576172,26.6635742c4.0371094,6.1655273,9.9140625,9.2480469,17.6308594,9.2480469
		c7.6425781,0,13.4667969-3.0825195,17.46875-9.2480469c4.0029297-6.1655273,6.0039062-15.0522461,6.0039062-26.6635742
		c0-11.609375-2.0009766-20.4975586-6.0039062-26.6630859C592.8007812,111.0205078,586.9765625,107.9379883,579.3339844,107.9379883
		z"/>
	<path class="st1" d="M745.4804688,116.1586914c-3.1015625-1.5854492-6.1494141-2.7583008-9.140625-3.515625
		c-2.9931641-0.7568359-6.0410156-1.1357422-9.140625-1.1357422c-8.9414062,0-15.8291016,3.190918-20.6601562,9.5732422
		c-4.8320312,6.3818359-7.2460938,15.5219727-7.2460938,27.4204102v55.8144531h-34.8300781V83.1674805h34.8300781v19.902832
		c4.4697266-7.9316406,9.6074219-13.71875,15.4130859-17.3608398c5.8037109-3.640625,12.7802734-5.4624023,20.9306641-5.4624023
		c1.1523438,0,2.4150391,0.0541992,3.7851562,0.1621094c1.3691406,0.1083984,3.3535156,0.3432617,5.9492188,0.703125
		L745.4804688,116.1586914z"/>
	<path class="st1" d="M847.9140625,86.9536133V116.375c-7.4277344-3.4614258-14.6210938-6.0571289-21.5791016-7.7880859
		c-6.9599609-1.7304688-13.5039062-2.5961914-19.6318359-2.5961914c-6.6357422,0-11.5576172,0.9194336-14.765625,2.7583008
		c-3.2089844,1.8388672-4.8134766,4.6699219-4.8134766,8.4912109c0,3.1015625,1.2070312,5.4814453,3.6240234,7.1391602
		c2.4150391,1.659668,6.7958984,2.8852539,13.1425781,3.6777344l6.0566406,0.9736328
		c17.8837891,2.5249023,29.9082031,6.6708984,36.0742188,12.4389648c6.1660156,5.7705078,9.2480469,14.8193359,9.2480469,27.1503906
		c0,12.9091797-4.2910156,22.6069336-12.8710938,29.097168c-8.5830078,6.4897461-21.3828125,9.7348633-38.4003906,9.7348633
		c-7.2109375,0-14.65625-0.6318359-22.3359375-1.8925781c-7.6796875-1.2612305-15.5595703-3.1538086-23.6347656-5.6791992
		v-29.4213867c6.921875,3.7504883,14.0429688,6.5625,21.3632812,8.4370117c7.3183594,1.8759766,14.7275391,2.8125,22.2285156,2.8125
		c6.7773438,0,11.8984375-1.0444336,15.359375-3.137207c3.4609375-2.090332,5.1914062-5.1918945,5.1914062-9.3022461
		c0-3.4614258-1.1894531-6.0385742-3.5683594-7.7338867c-2.3808594-1.6933594-7.1035156-3.0102539-14.1699219-3.9482422
		l-6.1660156-0.8652344c-15.5058594-2.1635742-26.3759766-6.1655273-32.6132812-12.0068359
		c-6.2382812-5.8408203-9.3554688-14.7104492-9.3554688-26.6088867c0-12.8349609,3.9648438-22.3540039,11.8984375-28.5566406
		c7.9316406-6.2006836,20.0820312-9.3022461,36.4521484-9.3022461c6.4169922,0,13.1591797,0.5410156,20.2275391,1.6225586
		C831.9414062,82.9511719,839.6210938,84.6464844,847.9140625,86.9536133z"/>
	<path class="st2" d="M451.2636719,330.5449219v73.7705078h-35.0463867v-12.0068359v-44.456543
		c0-10.4550781-0.2163086-17.6669922-0.6489258-21.6337891c-0.4326172-3.9648438-1.1542969-6.8852539-2.1630859-8.7617188
		c-1.3710938-2.5229492-3.2285156-4.4887695-5.5708008-5.8950195c-2.3442383-1.40625-4.9941406-2.109375-7.9501953-2.109375
		c-7.284668,0-12.9990234,3.1201172-17.1450195,9.3564453c-4.1474609,6.2382812-6.2192383,14.8735352-6.2192383,25.90625v59.6005859
		h-34.8300781V283.1674805h34.8300781v17.7397461c5.2626953-7.0664062,10.8520508-12.2773438,16.765625-15.6303711
		c5.9121094-3.3530273,12.4394531-5.0297852,19.5786133-5.0297852c12.5473633,0,22.0830078,4.2910156,28.6103516,12.8720703
		C448,301.7016602,451.2636719,314.1762695,451.2636719,330.5449219z"/>
	<path class="st2" d="M535.4179688,280.2470703c18.8212891,0,33.4951172,5.6245117,44.0244141,16.8740234
		c10.5283203,11.2495117,15.7919922,26.8256836,15.7919922,46.7285156s-5.2636719,35.4790039-15.7919922,46.7285156
		c-10.5292969,11.2495117-25.203125,16.8740234-44.0244141,16.8740234c-18.75,0-33.4423828-5.6245117-44.078125-16.8740234
		c-10.6376953-11.2495117-15.9545898-26.8256836-15.9545898-46.7285156s5.3168945-35.4790039,15.9545898-46.7285156
		C501.9755859,285.871582,516.6679688,280.2470703,535.4179688,280.2470703z M535.4179688,307.9379883
		c-7.7167969,0-13.59375,3.0825195-17.6308594,9.2485352c-4.0390625,6.1655273-6.0576172,15.0537109-6.0576172,26.6630859
		c0,11.6113281,2.0185547,20.4980469,6.0576172,26.6635742c4.0371094,6.1655273,9.9140625,9.2480469,17.6308594,9.2480469
		c7.6425781,0,13.4667969-3.0825195,17.46875-9.2480469c4.0029297-6.1655273,6.0039062-15.0522461,6.0039062-26.6635742
		c0-11.609375-2.0009766-20.4975586-6.0039062-26.6630859C548.8847656,311.0205078,543.0605469,307.9379883,535.4179688,307.9379883
		z"/>
	<path class="st2" d="M658.6210938,248.7700195v34.3974609h35.9121094v27.690918h-35.9121094v51.3798828
		c0,5.6245117,0.9902344,9.4291992,2.9746094,11.4116211c1.9824219,1.984375,5.9667969,2.9746094,11.953125,2.9746094h17.9550781
		v27.690918h-29.8535156c-13.7753906,0-23.5449219-3.190918-29.3144531-9.5727539s-8.6523438-17.2158203-8.6523438-32.5043945
		v-51.3798828h-17.3066406v-27.690918h17.3066406v-34.3974609H658.6210938z"/>
	<path class="st3" d="M122.3256836,516.1582031c-3.1015625-1.5859375-6.1489258-2.7587891-9.1401367-3.5151367
		c-2.9931641-0.7578125-6.0405273-1.1357422-9.1401367-1.1357422c-8.9423828,0-15.8295898,3.1899414-20.6601562,9.5717773
		c-4.8320312,6.3818359-7.2470703,15.5224609-7.2470703,27.4208984v55.8144531H41.3081055V483.1669922h34.8300781v19.902832
		c4.4702148-7.9316406,9.6083984-13.71875,15.4135742-17.3608398c5.8041992-3.640625,12.7807617-5.4624023,20.9306641-5.4624023
		c1.152832,0,2.4150391,0.0541992,3.7856445,0.1621094c1.3691406,0.1083984,3.3535156,0.3432617,5.9492188,0.703125
		L122.3256836,516.1582031z"/>
	<path class="st4" d="M248.4492188,543.4160156v11.0332031h-81.4501953
		c0.7929688,9.0859375,3.7319336,15.9003906,8.815918,20.4433594s12.1689453,6.8144531,21.2548828,6.8144531
		c7.3554688,0,14.8730469-1.2060547,22.5527344-3.6230469c7.6801758-2.4150391,15.5576172-6.0742188,23.6347656-10.9794922
		v29.8544922c-8.2207031,3.4619141-16.4599609,6.0761719-24.7163086,7.8417969
		c-8.2578125,1.7666016-16.4956055,2.6503906-24.7163086,2.6503906c-19.7592773,0-35.1005859-5.5703125-46.0253906-16.7119141
		s-16.387207-26.7714844-16.387207-46.890625c0-19.7578125,5.3710938-35.2973633,16.1166992-46.6196289
		c10.7441406-11.3208008,25.527832-16.9824219,44.3491211-16.9824219c17.1611328,0,30.8818359,5.7329102,41.1577148,17.1987305
		C243.3115234,508.9106445,248.4492188,524.234375,248.4492188,543.4160156z M212.6459961,530.5439453
		c0-7.3554688-1.9301758-13.2861328-5.7871094-17.793457c-3.8583984-4.5058594-8.9238281-6.7602539-15.1972656-6.7602539
		c-6.706543,0-12.1689453,2.1098633-16.3876953,6.3276367c-4.2182617,4.2182617-6.8686523,10.2944336-7.9501953,18.2260742
		H212.6459961z"/>
	<path class="st5" d="M309.6723633,586.7910156v63.6025391h-34.8300781V483.1669922h34.8300781v17.7397461
		c4.8300781-7.0664062,10.1674805-12.2773438,16.0087891-15.6303711c5.8408203-3.3530273,12.5473633-5.0297852,20.1191406-5.0297852
		c13.4125977,0,24.4458008,5.9321289,33.0991211,17.793457c8.6533203,11.862793,12.9804688,27.1328125,12.9804688,45.8085938
		c0,18.6777344-4.3271484,33.9482422-12.9804688,45.8095703c-8.6533203,11.8623047-19.6865234,17.7929688-33.0991211,17.7929688
		c-7.5717773,0-14.2783203-1.6767578-20.1191406-5.0292969C319.8398438,599.0683594,314.5024414,593.859375,309.6723633,586.7910156
		z M332.8203125,508.3706055c-7.4282227,0-13.1425781,3.046875-17.1450195,9.1391602
		c-4.0019531,6.0947266-6.0029297,14.8730469-6.0029297,26.3388672s2.0009766,20.2460938,6.0029297,26.3388672
		c4.0024414,6.0947266,9.7167969,9.140625,17.1450195,9.140625c7.4990234,0,13.2128906-3.0292969,17.1445312-9.0869141
		c3.9291992-6.0566406,5.8950195-14.8544922,5.8950195-26.3925781c0-11.5371094-1.9658203-20.3359375-5.8950195-26.3925781
		C346.0332031,511.3989258,340.3193359,508.3706055,332.8203125,508.3706055z"/>
	<path class="st6" d="M417.515625,436.0058594h34.8300781v168.3085938H417.515625V436.0058594z"/>
	<path class="st7" d="M587.8798828,535.1953125v69.1191406h-35.1552734v-17.9560547
		c-4.6875,7.3554688-9.9511719,12.7099609-15.7919922,16.0634766c-5.8408203,3.3525391-12.9443359,5.0292969-21.3095703,5.0292969
		c-11.3212891,0-20.4970703-3.6591797-27.527832-10.9785156c-7.03125-7.3183594-10.5463867-16.8203125-10.5463867-28.5029297
		c0-14.2050781,4.3974609-24.625,13.1962891-31.2597656c8.796875-6.6337891,22.6064453-9.9521484,41.4287109-9.9521484h20.5507812
		v-3.0283203c0-6.1279297-2.1816406-10.6171875-6.5429688-13.4663086c-4.3642578-2.8476562-11.125-4.2729492-20.2822266-4.2729492
		c-7.5009766,0-14.4589844,0.8305664-20.8759766,2.487793c-6.4194336,1.6601562-12.4038086,4.1474609-17.9560547,7.4633789
		v-29.5292969c7.4990234-2.0180664,15.0166016-3.5507812,22.5532227-4.597168
		c7.5336914-1.0444336,15.0522461-1.5683594,22.5532227-1.5683594c19.6855469,0,33.8916016,4.3095703,42.6171875,12.9257812
		C583.515625,501.7905273,587.8798828,515.7978516,587.8798828,535.1953125z M534.6611328,549.7978516
		c-7.2841797,0-12.7636719,1.3710938-16.4414062,4.1103516c-3.6777344,2.7412109-5.5166016,6.7792969-5.5166016,12.1152344
		c0,4.9042969,1.4765625,8.7441406,4.4355469,11.5195312c2.9550781,2.7763672,7.0664062,4.1640625,12.3300781,4.1640625
		c6.5615234,0,12.078125-2.6123047,16.5507812-7.8417969c4.4697266-5.2275391,6.7050781-11.7714844,6.7050781-19.6328125v-4.4345703
		H534.6611328z"/>
	<path class="st8" d="M708.2695312,486.953125v31.5839844c-4.6875-3.6044922-9.4287109-6.2729492-14.2236328-8.003418
		c-4.7958984-1.7304688-9.7529297-2.5966797-14.8730469-2.5966797c-9.7353516,0-17.3066406,3.15625-22.7158203,9.4643555
		c-5.4082031,6.3115234-8.1113281,15.1269531-8.1113281,26.4472656c0,11.3222656,2.703125,20.1376953,8.1113281,26.4472656
		c5.4091797,6.3105469,12.9804688,9.4648438,22.7158203,9.4648438c5.4794922,0,10.6708984-0.9013672,15.5761719-2.7041016
		c4.9033203-1.8017578,9.4111328-4.4707031,13.5205078-8.0048828v31.6933594
		c-5.4082031,2.2353516-10.9238281,3.9111328-16.5488281,5.0292969c-5.625,1.1171875-11.25,1.6767578-16.875,1.6767578
		c-19.6855469,0-35.0830078-5.6064453-46.1875-16.8203125c-11.1054688-11.2119141-16.6572266-26.8066406-16.6572266-46.7822266
		c0-19.9736328,5.5517578-35.5678711,16.6572266-46.7822266c11.1044922-11.2119141,26.5019531-16.8198242,46.1875-16.8198242
		c5.6962891,0,11.3203125,0.5595703,16.875,1.6767578C697.2724609,483.0419922,702.7890625,484.71875,708.2695312,486.953125z"/>
	<path class="st9" d="M847.1582031,543.4160156v11.0332031h-81.4511719
		c0.7929688,9.0859375,3.7324219,15.9003906,8.8164062,20.4433594s12.1689453,6.8144531,21.2548828,6.8144531
		c7.3554688,0,14.8730469-1.2060547,22.5527344-3.6230469c7.6806641-2.4150391,15.5576172-6.0742188,23.6347656-10.9794922
		v29.8544922c-8.2207031,3.4619141-16.4599609,6.0761719-24.7158203,7.8417969
		c-8.2578125,1.7666016-16.4960938,2.6503906-24.7167969,2.6503906c-19.7597656,0-35.1005859-5.5703125-46.0253906-16.7119141
		s-16.3867188-26.7714844-16.3867188-46.890625c0-19.7578125,5.3710938-35.2973633,16.1162109-46.6196289
		c10.7441406-11.3208008,25.5283203-16.9824219,44.3486328-16.9824219c17.1621094,0,30.8828125,5.7329102,41.1582031,17.1987305
		C842.0195312,508.9106445,847.1582031,524.234375,847.1582031,543.4160156z M811.3544922,530.5439453
		c0-7.3554688-1.9306641-13.2861328-5.7871094-17.793457c-3.8583984-4.5058594-8.9238281-6.7602539-15.1972656-6.7602539
		c-6.7060547,0-12.1689453,2.1098633-16.3876953,6.3276367c-4.21875,4.2182617-6.8691406,10.2944336-7.9501953,18.2260742
		H811.3544922z"/>
	<path class="st10" d="M947.7539062,500.9067383v-64.9008789h35.046875v168.3085938h-35.046875v-17.5234375
		c-4.8320312,7.1396484-10.1328125,12.3681641-15.9003906,15.6845703
		c-5.7705078,3.3164062-12.4765625,4.9755859-20.1191406,4.9755859c-13.4130859,0-24.4296875-5.9306641-33.0458984-17.7929688
		c-8.6181641-11.8613281-12.9257812-27.1318359-12.9257812-45.8095703c0-18.6757812,4.3076172-33.9458008,12.9257812-45.8085938
		c8.6162109-11.8613281,19.6328125-17.793457,33.0458984-17.793457c7.5712891,0,14.2597656,1.6767578,20.0644531,5.0297852
		S942.921875,493.840332,947.7539062,500.9067383z M924.7138672,579.328125c7.4990234,0,13.2138672-3.0292969,17.1445312-9.0869141
		c3.9296875-6.0566406,5.8955078-14.8544922,5.8955078-26.3925781c0-11.5371094-1.9658203-20.3359375-5.8955078-26.3925781
		c-3.9306641-6.0571289-9.6455078-9.0854492-17.1445312-9.0854492c-7.3554688,0-12.9990234,3.0283203-16.9287109,9.0854492
		c-3.9306641,6.0566406-5.8945312,14.8554688-5.8945312,26.3925781c0,11.5380859,1.9638672,20.3359375,5.8945312,26.3925781
		C911.7148438,576.2988281,917.3583984,579.328125,924.7138672,579.328125z"/>
</g>
<path class="st11" d="M63.260849,783.7259521l58.6840515-39.9833374
	c26.5817413-18.1109619,61.7969055-17.0686035,87.2608795,2.5829468l0.0000916,0.000061
	c28.1492004,21.7238159,67.7416077,20.4682617,94.4577942-2.9955444l18.9360352-16.6307983
	c28.0415955-24.6278076,69.9981689-24.6421509,98.0566406-0.0335083l29.8112183,26.145874
	c24.890686,21.8303833,61.2194824,24.5657349,89.0984192,6.7086182l52.2280884-33.4533081
	c30.2754517-19.3920898,70.0906372-14.3338013,94.5552368,12.0126953l5.5252686,5.9503174
	c24.5187378,26.4047852,64.4454956,31.4196777,94.732605,11.8986816l36.9367676-23.8068848
	c30.8708496-19.8971558,71.6461182-14.2633667,95.9650879,13.2592773l42.6363525,48.2531738"/>
<path class="st12" d="M962.12677,893.1651001l-57.6528931-41.4564209
	c-26.114624-18.7781982-61.3449097-18.6278687-87.2982788,0.3726196l-0.0001221,0.000061
	c-28.6901855,21.0041504-68.2381592,18.74646-94.3516235-5.3862305L704.3149414,829.59021
	c-27.4089966-25.3299561-69.3517456-26.4066772-98.024292-2.5163574l-30.4637451,25.3827515
	c-25.4354248,21.1931152-61.8218384,23.0077515-89.2396851,4.4504395l-51.3643188-34.7650146
	c-29.7746887-20.1524048-69.7052307-16.1038818-94.829071,9.6146851l-5.6741638,5.8085327
	c-25.1794434,25.7754517-65.2203674,29.777832-95.0035095,9.4962158l-36.3221436-24.7344971
	c-30.3571167-20.6724854-71.2619934-16.072876-96.2700043,10.8251953l-43.8445053,47.1581421"/>
<path class="st13" d="M969.3151855,983.0298462l-58.2451782-40.6199951
	c-26.3829956-18.399353-61.6074219-17.7405396-87.2838745,1.6325684l-0.000061,0.000061
	c-28.3840942,21.4160767-67.9604492,19.7294312-94.4195557-4.0238037l-18.7538452-16.8359985
	c-27.7717896-24.9317017-69.725708-25.4029541-98.0504761-1.1012573l-30.0941162,25.8197632
	c-25.1269531,21.5580444-61.4833374,23.897644-89.1661987,5.7380371l-51.8607483-34.0200195
	c-30.0624695-19.7205811-69.9303894-15.0961304-94.6804199,10.9823608l-5.5897522,5.8898315
	c-24.8047791,26.1362305-64.7837524,30.7160645-94.8565369,10.8664551l-36.6753693-24.2076416
	c-30.6523285-20.2321777-71.486557-15.0426636-96.1037292,12.213562l-43.1592789,47.7860107"/>
</svg>
