<?xml version="1.0" encoding="utf-8"?><!--Generator: Adobe Illustrator 26.0.3, SVG Export Plug-In . SVG Version: 6.00 Build 0)--><svg version="1.1" id="sun-000-862100211__Layer_1" xmlns="http://www.w3.org/2000/svg" xmlns:xlink="http://www.w3.org/1999/xlink" x="0px" y="0px" viewBox="0 0 1024 1024" style="enable-background:new 0 0 1024 1024;" xml:space="preserve"><style type="text/css">.sun-000-862100211__st0{fill:#F15A24}.sun-000-862100211__st1{fill:#C1272D}.sun-000-862100211__st2{fill:#FBB03B}</style><g><path class="sun-000-862100211__st0" d="M512,850.2c-90.3,0-175.2-35.2-239.1-99c-63.9-63.9-99-148.8-99-239.1c0-90.3,35.2-175.2,99-239.1
		c63.9-63.9,148.8-99,239.1-99c90.3,0,175.2,35.2,239.1,99c63.9,63.9,99,148.8,99,239.1c0,90.3-35.2,175.2-99,239.1
		C687.2,815,602.3,850.2,512,850.2z"/><path class="sun-000-862100211__st1" d="M512,178.8c45,0,88.6,8.8,129.7,26.2c39.7,16.8,75.3,40.8,105.9,71.4c30.6,30.6,54.6,66.2,71.4,105.9
		c17.4,41.1,26.2,84.7,26.2,129.7s-8.8,88.6-26.2,129.7c-16.8,39.7-40.8,75.3-71.4,105.9c-30.6,30.6-66.2,54.6-105.9,71.4
		c-41.1,17.4-84.7,26.2-129.7,26.2s-88.6-8.8-129.7-26.2c-39.7-16.8-75.3-40.8-105.9-71.4c-30.6-30.6-54.6-66.2-71.4-105.9
		c-17.4-41.1-26.2-84.7-26.2-129.7s8.8-88.6,26.2-129.7c16.8-39.7,40.8-75.3,71.4-105.9c30.6-30.6,66.2-54.6,105.9-71.4
		C423.4,187.6,467,178.8,512,178.8 M512,168.8c-189.5,0-343.2,153.6-343.2,343.2S322.5,855.2,512,855.2S855.2,701.5,855.2,512
		S701.5,168.8,512,168.8L512,168.8z"/></g><g><polygon class="sun-000-862100211__st2" points="427.6,715.7 162.6,861.4 308.3,596.4 17.9,512 308.3,427.6 162.6,162.6 427.6,308.3 512,17.9 
		596.4,308.3 861.4,162.6 715.7,427.6 1006.1,512 715.7,596.4 861.4,861.4 596.4,715.7 512,1006.1 	"/><path class="sun-000-862100211__st1" d="M512,35.8l77.8,267.9l3.5,12l10.9-6l244.4-134.4L714.3,419.7l-6,10.9l12,3.5L988.2,512l-267.9,77.8l-12,3.5
		l6,10.9l134.4,244.4L604.3,714.3l-10.9-6l-3.5,12L512,988.2l-77.8-267.9l-3.5-12l-10.9,6L175.3,848.7l134.4-244.4l6-10.9l-12-3.5
		L35.8,512l267.9-77.8l12-3.5l-6-10.9L175.3,175.3l244.4,134.4l10.9,6l3.5-12L512,35.8 M512,0l-87.4,300.9L150,150l150.9,274.6
		L0,512l300.9,87.4L150,874l274.6-150.9L512,1024l87.4-300.9L874,874L723.1,599.4L1024,512l-300.9-87.4L874,150L599.4,300.9L512,0
		L512,0z"/></g></svg>