<?xml version="1.0" encoding="utf-8"?>
<!-- Generator: Adobe Illustrator 26.0.3, SVG Export Plug-In . SVG Version: 6.00 Build 0)  -->
<svg version="1.1" id="Layer_1" xmlns="http://www.w3.org/2000/svg" xmlns:xlink="http://www.w3.org/1999/xlink" x="0px" y="0px"
	 viewBox="0 0 1024 1024" style="enable-background:new 0 0 1024 1024;" xml:space="preserve">
<style type="text/css">
	.st0{fill:none;stroke:orange;stroke-width:14;stroke-miterlimit:10;}
</style>
<g>
	<g>
		<polyline class="st0" points="401.5751343,88.5871582 338,88.5871582 338,265.0949402 401.5751343,265.0949402 		"/>
		<line class="st0" x1="401.5751343" y1="176.8410492" x2="338" y2="176.8410492"/>
	</g>
	<polyline class="st0" points="28.7917862,312.3738098 74.0890503,480.4764709 105.8766022,385.9187317 141.6375885,480.4764709
		182.9614105,312.3738098 	"/>
	<line class="st0" x1="240.9736938" y1="312.3738098" x2="240.9736938" y2="480.4764709"/>
	<line class="st0" x1="208.391449" y1="480.4764709" x2="269.582489" y2="480.4764709"/>
	<line class="st0" x1="208.391449" y1="312.3738098" x2="269.582489" y2="312.3738098"/>
	<polygon class="st0" points="316.4691162,312.3738098 316.4691162,480.4764709 390.3751831,439.5014648 390.3751831,344.9436951
		"/>
	<g>
		<line class="st0" x1="406.2689514" y1="308.1712646" x2="501.6316223" y2="308.1712646"/>
		<line class="st0" x1="453.9502869" y1="484.6790466" x2="453.9502869" y2="308.1712646"/>
	</g>
	<line class="st0" x1="538.9819946" y1="312.3738098" x2="538.9819946" y2="484.6790466"/>
	<line class="st0" x1="603.3518066" y1="398.5264282" x2="538.9819946" y2="398.5264282"/>
	<line class="st0" x1="604.3948364" y1="318.2836914" x2="604.3948364" y2="486.386322"/>
	<polyline class="st0" points="28.7917862,672.7438965 28.7917862,521.4514771 89.1881332,672.7438965 89.1881332,521.4514771 	"/>
	<rect x="144.8163452" y="521.4514771" class="st0" width="63.5751038" height="176.5078125"/>
	<g>
		<line class="st0" x1="250.1126099" y1="527.7553711" x2="345.4752808" y2="527.7553711"/>
		<line class="st0" x1="297.7939453" y1="704.2631226" x2="297.7939453" y2="527.7553711"/>
	</g>
	<polyline class="st0" points="28.7917862,931.99823 28.7917862,755.4904785 105.8766022,755.4904785 105.8766022,837.4404907
		28.7917862,839.5418091 	"/>
	<polyline class="st0" points="144.4190063,928.5836792 144.4190063,752.0758667 221.5038147,752.0758667 221.5038147,834.0259399
		144.4190063,836.1271973 219.5171051,935.4128418 	"/>
	<g>
		<polyline class="st0" points="329.5814819,751.5419922 266.0063782,751.5419922 266.0063782,928.0498047 329.5814819,928.0498047
					"/>
		<line class="st0" x1="329.5814819" y1="839.7958984" x2="266.0063782" y2="839.7958984"/>
	</g>
	<polyline class="st0" points="426.9308777,751.5419922 376.0708008,751.5419922 376.0708008,850.3023071 436.4671326,850.3023071
		436.4671326,928.0498047 376.0708008,928.0498047 	"/>
	<g>
		<polyline class="st0" points="546.5315552,751.5419922 482.9564209,751.5419922 482.9564209,928.0498047 546.5315552,928.0498047
					"/>
		<line class="st0" x1="546.5315552" y1="839.7958984" x2="482.9564209" y2="839.7958984"/>
	</g>
	<polyline class="st0" points="585.2791138,928.5836792 585.2791138,752.0758667 662.3638916,752.0758667 662.3638916,834.0259399
		585.2791138,836.1271973 660.3771973,935.4128418 	"/>
	<polyline class="st0" points="702.6878662,751.5419922 737.6541748,935.4128418 773.4151611,755.4904785 	"/>
	<g>
		<polyline class="st0" points="884.489502,751.5419922 820.9144287,751.5419922 820.9144287,928.0498047 884.489502,928.0498047
			"/>
		<line class="st0" x1="884.489502" y1="839.7958984" x2="820.9144287" y2="839.7958984"/>
	</g>
	<polygon class="st0" points="921.3021851,755.7445679 921.3021851,923.847229 995.2081909,882.8721924 995.2081909,788.3144531
		"/>
	<polyline class="st0" points="32.6741486,88.5871582 32.6741486,265.0949402 85.3057709,265.0949402 	"/>
	<polyline class="st0" points="210.7755127,260.892395 210.7755127,109.5999603 271.171875,260.892395 271.171875,109.5999603 	"/>
	<line class="st0" x1="138.458847" y1="92.7897186" x2="138.458847" y2="260.892395"/>
	<line class="st0" x1="105.8766022" y1="260.892395" x2="167.0676422" y2="260.892395"/>
	<line class="st0" x1="105.8766022" y1="92.7897186" x2="167.0676422" y2="92.7897186"/>
</g>
</svg>
