<?xml version="1.0" encoding="utf-8"?>
<!-- Generator: Adobe Illustrator 26.0.3, SVG Export Plug-In . SVG Version: 6.00 Build 0)  -->
<svg version="1.1" id="Layer_1" xmlns="http://www.w3.org/2000/svg" xmlns:xlink="http://www.w3.org/1999/xlink" x="0px" y="0px"
	 viewBox="0 0 1024 1024" style="enable-background:new 0 0 1024 1024;" xml:space="preserve">
<style type="text/css">
	.st0{fill:none;stroke:#FFB531;stroke-width:12;stroke-miterlimit:10;}
	.st1{fill:none;stroke:#FF4500;stroke-width:12;stroke-miterlimit:10;}
</style>
<g>
	<g>
		<path class="st0" d="M845.2,478.1c-4.9-48.7-20.2-94.3-43.7-134.6l-76.4,99.2L845.2,478.1z"/>
		<path class="st0" d="M801.5,680.5c23.5-40.3,38.8-85.9,43.7-134.6l-120.1,35.4L801.5,680.5z"/>
		<path class="st0" d="M761.6,288.8c-31.6-35.3-70.5-63.8-114.5-83.2l-3.5,125.2L761.6,288.8z"/>
		<path class="st0" d="M178.8,545.9c4.9,48.7,20.2,94.3,43.7,134.6l76.4-99.2L178.8,545.9z"/>
		<path class="st0" d="M441.2,839.4c22.8,4.9,46.5,7.5,70.8,7.5s48-2.6,70.8-7.5L512,736.1L441.2,839.4z"/>
		<path class="st0" d="M647.2,818.5c43.9-19.4,82.9-47.9,114.5-83.2l-117.9-42L647.2,818.5z"/>
		<path class="st0" d="M262.4,735.2c31.6,35.3,70.5,63.8,114.5,83.2l3.5-125.2L262.4,735.2z"/>
		<path class="st0" d="M222.5,343.5c-23.5,40.3-38.8,85.9-43.7,134.6l120.1-35.4L222.5,343.5z"/>
		<path class="st0" d="M582.8,184.6c-22.8-4.9-46.5-7.5-70.8-7.5s-48,2.6-70.8,7.5L512,287.9L582.8,184.6z"/>
		<path class="st0" d="M376.8,205.5c-43.9,19.4-82.9,47.9-114.5,83.2l117.9,42L376.8,205.5z"/>
	</g>
	<polygon class="st1" points="512,287.9 650.5,85.8 643.7,330.7 874.5,248.6 725.1,442.8 960.1,512 725.1,581.2 874.5,775.4
		643.7,693.3 650.5,938.2 512,736.1 373.5,938.2 380.3,693.3 149.5,775.4 298.9,581.2 63.9,512 298.9,442.8 149.5,248.6
		380.3,330.7 373.5,85.8 	"/>
</g>
</svg>
